<?xml version="1.0" standalone="no"?>
<!DOCTYPE svg PUBLIC "-//W3C//DTD SVG 20010904//EN"
 "http://www.w3.org/TR/2001/REC-SVG-20010904/DTD/svg10.dtd">
<svg version="1.0" xmlns="http://www.w3.org/2000/svg"
 width="633.000000pt" height="857.000000pt" viewBox="0 0 633.000000 857.000000"
 preserveAspectRatio="xMidYMid meet">

<g transform="translate(0.000000,857.000000) scale(0.100000,-0.100000)"
fill="#000000" stroke="none">
<path d="M2402 8048 c-17 -17 -15 -64 4 -82 33 -34 94 -7 94 42 0 43 -67 71
-98 40z"/>
<path d="M2820 7881 c0 -39 4 -51 16 -51 12 0 14 10 12 47 -4 66 -28 70 -28 4z"/>
<path d="M2870 7880 c0 -55 17 -69 22 -17 l3 32 20 -32 c29 -49 45 -42 45 17
0 30 -4 50 -11 50 -7 0 -10 -14 -7 -35 2 -19 3 -35 2 -35 -1 0 -12 16 -24 35
-32 51 -50 46 -50 -15z"/>
<path d="M2986 7914 c-3 -9 4 -25 21 -40 l26 -24 -27 0 c-14 0 -26 -4 -26 -10
0 -5 14 -10 30 -10 40 0 51 27 22 51 -27 21 -28 29 -2 29 11 0 20 5 20 10 0
17 -57 12 -64 -6z"/>
<path d="M3060 7920 c0 -5 7 -10 15 -10 11 0 15 -11 15 -40 0 -22 5 -40 10
-40 6 0 10 16 10 36 0 23 6 42 18 50 15 12 12 13 -25 14 -24 0 -43 -4 -43 -10z"/>
<path d="M3150 7880 c0 -38 4 -50 15 -50 11 0 15 12 15 50 0 38 -4 50 -15 50
-11 0 -15 -12 -15 -50z"/>
<path d="M3190 7920 c0 -5 7 -10 15 -10 11 0 15 -11 15 -40 0 -22 5 -40 10
-40 6 0 10 16 10 36 0 23 6 42 18 50 15 12 12 13 -25 14 -24 0 -43 -4 -43 -10z"/>
<path d="M3280 7892 c0 -43 14 -62 45 -62 12 0 26 5 33 12 14 14 16 88 2 88
-5 0 -10 -12 -10 -27 0 -37 -14 -57 -34 -50 -10 4 -16 19 -16 42 0 19 -4 35
-10 35 -5 0 -10 -17 -10 -38z"/>
<path d="M3390 7920 c0 -5 5 -10 10 -10 6 0 10 -18 10 -40 0 -22 5 -40 10 -40
6 0 10 18 10 40 0 29 4 40 15 40 8 0 15 5 15 10 0 6 -16 10 -35 10 -19 0 -35
-4 -35 -10z"/>
<path d="M3478 7905 c-17 -37 3 -75 40 -75 35 0 52 16 52 50 0 34 -17 50 -52
50 -21 0 -32 -7 -40 -25z m67 -25 c0 -18 -6 -26 -21 -28 -23 -3 -37 18 -27 44
10 25 48 13 48 -16z"/>
<path d="M3630 7880 c0 -27 5 -50 10 -50 6 0 10 9 10 20 0 11 7 20 15 20 8 0
15 5 15 10 0 6 -7 10 -15 10 -8 0 -15 5 -15 10 0 6 9 10 20 10 11 0 20 5 20
10 0 6 -13 10 -30 10 -29 0 -30 -1 -30 -50z"/>
<path d="M3710 7880 c0 -49 1 -50 30 -50 17 0 30 5 30 10 0 6 -9 10 -20 10
-11 0 -20 5 -20 10 0 6 7 10 15 10 8 0 15 5 15 10 0 6 -7 10 -15 10 -8 0 -15
5 -15 10 0 6 9 10 20 10 11 0 20 5 20 10 0 6 -13 10 -30 10 -29 0 -30 -1 -30
-50z"/>
<path d="M3790 7880 c0 -48 1 -50 28 -50 35 0 52 16 52 50 0 34 -17 50 -52 50
-27 0 -28 -2 -28 -50z m58 3 c-2 -17 -10 -29 -20 -31 -14 -3 -18 3 -18 27 0
25 4 31 21 31 16 0 20 -5 17 -27z"/>
<path d="M3900 7880 c0 -47 2 -50 25 -50 14 0 25 5 25 10 0 6 -7 10 -15 10 -8
0 -15 5 -15 10 0 6 7 10 15 10 8 0 15 5 15 10 0 6 -7 10 -15 10 -8 0 -15 5
-15 10 0 6 7 10 15 10 8 0 15 5 15 10 0 6 -11 10 -25 10 -23 0 -25 -3 -25 -50z"/>
<path d="M3980 7880 c0 -27 5 -50 10 -50 6 0 10 10 10 23 l0 22 20 -25 c10
-14 22 -22 26 -18 4 4 1 14 -6 23 -9 11 -10 18 -1 29 18 22 2 46 -30 46 -28 0
-29 -2 -29 -50z m40 20 c0 -5 -4 -10 -10 -10 -5 0 -10 5 -10 10 0 6 5 10 10
10 6 0 10 -4 10 -10z"/>
<path d="M4078 7880 c-14 -42 -14 -50 -2 -50 8 0 14 5 14 10 0 6 9 10 20 10
11 0 20 -4 20 -10 0 -5 7 -10 15 -10 12 0 12 7 -4 48 -25 64 -43 65 -63 2z
m42 -2 c0 -5 -4 -8 -10 -8 -5 0 -10 10 -10 23 0 18 2 19 10 7 5 -8 10 -18 10
-22z"/>
<path d="M4170 7880 l0 -50 36 0 c21 0 33 4 29 10 -3 6 -15 10 -26 10 -16 0
-19 7 -19 40 0 22 -4 40 -10 40 -5 0 -10 -22 -10 -50z"/>
<path d="M2827 7773 c-10 -9 -8 -73 2 -73 4 0 6 16 4 36 -3 33 -2 36 17 31 11
-3 18 -1 14 4 -6 11 -28 12 -37 2z"/>
<path d="M2953 7745 c0 -22 2 -30 4 -17 2 12 2 30 0 40 -3 9 -5 -1 -4 -23z"/>
<path d="M2906 7753 c7 -4 14 -19 17 -33 4 -22 5 -21 4 4 -1 17 -9 31 -17 33
-10 3 -11 2 -4 -4z"/>
<path d="M2983 7736 c7 -14 13 -23 15 -21 7 6 -9 45 -18 45 -4 0 -3 -11 3 -24z"/>
<path d="M3056 7753 c7 -4 14 -19 17 -33 4 -22 5 -21 4 4 -1 17 -9 31 -17 33
-10 3 -11 2 -4 -4z"/>
<path d="M2856 7742 c-3 -6 0 -13 6 -15 10 -4 9 -8 -2 -16 -9 -7 -10 -11 -3
-11 18 0 25 18 15 36 -6 10 -12 13 -16 6z"/>
<path d="M3012 7730 c0 -14 2 -19 5 -12 2 6 2 18 0 25 -3 6 -5 1 -5 -13z"/>
<path d="M2890 7715 c0 -8 2 -15 4 -15 2 0 6 7 10 15 3 8 1 15 -4 15 -6 0 -10
-7 -10 -15z"/>
<path d="M3035 7721 c-3 -5 -2 -12 3 -15 5 -3 9 1 9 9 0 17 -3 19 -12 6z"/>
<path d="M2832 7638 c-17 -17 -15 -33 6 -49 14 -11 15 -11 5 1 -19 21 -16 40
10 50 13 5 16 9 7 9 -9 1 -21 -4 -28 -11z"/>
<path d="M3235 7639 c-4 -6 -4 -13 -1 -16 3 -4 6 -1 6 5 0 6 8 13 18 15 15 4
15 5 0 6 -9 0 -20 -4 -23 -10z"/>
<path d="M3531 7618 c-6 -17 -9 -33 -7 -35 2 -3 7 6 11 19 4 13 12 26 17 29 7
4 7 9 0 13 -6 3 -15 -8 -21 -26z"/>
<path d="M3949 7645 c-5 -20 -3 -65 4 -65 4 0 7 16 7 35 0 29 -7 48 -11 30z"/>
<path d="M4063 7615 c0 -22 2 -30 4 -17 2 12 2 30 0 40 -3 9 -5 -1 -4 -23z"/>
<path d="M3400 7630 c0 -5 5 -10 10 -10 6 0 10 5 10 10 0 6 -4 10 -10 10 -5 0
-10 -4 -10 -10z"/>
<path d="M3650 7610 c0 -16 4 -30 8 -30 5 0 7 14 4 30 -2 17 -6 30 -8 30 -2 0
-4 -13 -4 -30z"/>
<path d="M2920 7610 c0 -12 -7 -20 -17 -20 -16 0 -16 2 -3 11 10 7 11 9 2 7
-22 -6 -19 -23 6 -26 18 -3 22 1 22 22 0 14 -2 26 -5 26 -3 0 -5 -9 -5 -20z"/>
<path d="M2978 7605 c2 -14 6 -25 8 -25 2 0 4 11 4 25 0 14 -4 25 -9 25 -4 0
-6 -11 -3 -25z"/>
<path d="M3012 7605 c0 -16 2 -22 5 -12 2 9 2 23 0 30 -3 6 -5 -1 -5 -18z"/>
<path d="M3101 7608 c-1 -22 4 -28 19 -28 15 0 20 6 19 28 -2 23 -2 24 -6 5
-2 -13 -8 -23 -13 -23 -5 0 -11 10 -13 23 -4 19 -4 18 -6 -5z"/>
<path d="M3160 7621 c0 -10 19 -25 25 -20 1 2 -3 10 -11 17 -8 7 -14 8 -14 3z"/>
<path d="M3317 7610 c4 -14 0 -20 -11 -20 -11 0 -14 5 -10 12 4 7 3 8 -4 4
-20 -12 -13 -26 13 -26 18 0 25 5 25 19 0 11 -4 22 -9 25 -5 4 -7 -3 -4 -14z"/>
<path d="M3378 7603 c5 -21 7 -23 10 -9 2 10 0 22 -6 28 -6 6 -7 0 -4 -19z"/>
<path d="M3592 7610 c0 -14 2 -19 5 -12 2 6 2 18 0 25 -3 6 -5 1 -5 -13z"/>
<path d="M3622 7605 c0 -16 2 -22 5 -12 2 9 2 23 0 30 -3 6 -5 -1 -5 -18z"/>
<path d="M3717 7611 c4 -15 1 -21 -10 -21 -9 0 -17 6 -20 13 -2 7 -3 6 -3 -3
2 -21 35 -25 42 -5 4 9 2 21 -4 27 -8 8 -9 5 -5 -11z"/>
<path d="M3742 7605 c0 -16 2 -22 5 -12 2 9 2 23 0 30 -3 6 -5 -1 -5 -18z"/>
<path d="M3778 7603 c5 -21 7 -23 10 -9 2 10 0 22 -6 28 -6 6 -7 0 -4 -19z"/>
<path d="M3802 7605 c0 -16 2 -22 5 -12 2 9 2 23 0 30 -3 6 -5 -1 -5 -18z"/>
<path d="M3913 7614 c-3 -8 -2 -19 3 -24 5 -5 9 1 9 16 0 28 -3 30 -12 8z"/>
<path d="M3973 7614 c-3 -8 -2 -19 3 -24 5 -5 9 1 9 16 0 28 -3 30 -12 8z"/>
<path d="M3996 7615 c-3 -8 -1 -15 4 -15 13 0 22 18 11 24 -5 3 -11 -1 -15 -9z"/>
<path d="M4084 7615 c-8 -19 4 -35 24 -34 15 1 15 2 1 6 -11 3 -15 11 -12 24
6 22 -5 26 -13 4z"/>
<path d="M4111 7614 c0 -11 3 -14 6 -6 3 7 2 16 -1 19 -3 4 -6 -2 -5 -13z"/>
<path d="M4140 7621 c0 -10 19 -25 25 -20 1 2 -3 10 -11 17 -8 7 -14 8 -14 3z"/>
<path d="M4181 7614 c0 -11 3 -14 6 -6 3 7 2 16 -1 19 -3 4 -6 -2 -5 -13z"/>
<path d="M4220 7611 c0 -11 -8 -22 -17 -24 -14 -4 -12 -5 5 -6 17 -1 22 4 22
24 0 14 -2 25 -5 25 -3 0 -5 -9 -5 -19z"/>
<path d="M4250 7623 c1 -14 30 -48 30 -34 0 7 -7 19 -15 27 -8 9 -15 12 -15 7z"/>
<path d="M3254 7599 c0 -10 4 -19 8 -19 4 0 8 6 8 14 0 8 -4 17 -8 20 -4 2 -8
-4 -8 -15z"/>
<path d="M3860 7604 c0 -10 -6 -14 -15 -10 -8 3 -15 1 -15 -4 0 -6 9 -10 20
-10 13 0 20 7 20 20 0 11 -2 20 -5 20 -3 0 -5 -7 -5 -16z"/>
<path d="M3555 7600 c3 -5 8 -10 11 -10 2 0 4 5 4 10 0 6 -5 10 -11 10 -5 0
-7 -4 -4 -10z"/>
<path d="M3040 7588 c0 -4 9 -8 20 -8 11 0 20 4 20 8 0 4 -9 8 -20 8 -11 0
-20 -4 -20 -8z"/>
<path d="M3440 7589 c0 -5 9 -9 20 -9 11 0 20 2 20 4 0 2 -9 6 -20 9 -11 3
-20 1 -20 -4z"/>
<path d="M3168 7583 c7 -3 16 -2 19 1 4 3 -2 6 -13 5 -11 0 -14 -3 -6 -6z"/>
<path d="M4148 7583 c7 -3 16 -2 19 1 4 3 -2 6 -13 5 -11 0 -14 -3 -6 -6z"/>
<path d="M4204 7328 c10 -6 22 -6 26 -2 5 5 -3 10 -18 11 -22 1 -24 0 -8 -9z"/>
<path d="M4721 7331 c-10 -7 -7 -9 12 -8 14 1 23 5 20 10 -6 9 -15 9 -32 -2z"/>
<path d="M1488 7309 c-28 -16 -21 -37 20 -56 50 -24 50 -49 -1 -46 -23 2 -35
-1 -32 -7 9 -14 69 -12 83 2 21 21 13 37 -28 58 -22 11 -40 24 -40 29 0 15 23
19 43 9 23 -12 37 -1 17 12 -19 12 -41 12 -62 -1z"/>
<path d="M2104 7294 c-20 -19 -24 -31 -19 -52 10 -39 24 -52 56 -52 37 0 59
24 59 65 0 24 -7 39 -22 49 -31 22 -45 20 -74 -10z m76 -37 c0 -37 -15 -57
-42 -57 -38 0 -51 70 -16 94 31 22 58 4 58 -37z"/>
<path d="M3810 7300 c-24 -24 -26 -57 -4 -88 18 -26 65 -30 84 -7 15 18 7 19
-20 3 -38 -24 -69 14 -56 67 7 29 35 37 59 17 22 -20 33 -9 12 12 -22 22 -51
20 -75 -4z"/>
<path d="M4062 7304 c-19 -13 -22 -24 -20 -56 2 -28 9 -44 23 -52 11 -6 26
-18 33 -26 12 -13 13 -13 8 2 -3 11 2 19 15 23 10 4 19 11 19 16 0 12 -17 12
-25 -1 -12 -20 -45 -10 -55 16 -14 35 -13 41 11 65 19 19 22 19 45 4 13 -8 24
-11 24 -6 0 10 -32 31 -47 31 -5 0 -19 -7 -31 -16z"/>
<path d="M4300 7300 c-24 -24 -26 -72 -4 -94 24 -25 71 -20 90 9 42 64 -32
139 -86 85z m75 -50 c0 -67 -67 -66 -73 1 -3 23 2 37 14 46 27 20 59 -5 59
-47z"/>
<path d="M4534 7294 c-20 -19 -24 -31 -19 -52 4 -15 11 -33 17 -39 14 -18 63
-16 78 2 8 9 9 15 2 15 -6 0 -14 -4 -17 -10 -11 -17 -44 -11 -55 11 -16 28 -9
59 16 76 19 12 24 12 38 -3 9 -9 20 -13 24 -9 8 8 -26 35 -45 35 -8 0 -25 -11
-39 -26z"/>
<path d="M4954 7294 c-20 -19 -24 -31 -19 -52 4 -15 11 -33 17 -39 14 -18 63
-16 78 2 8 9 9 15 2 15 -6 0 -14 -4 -17 -10 -11 -17 -44 -11 -55 11 -16 28 -9
59 16 76 19 12 24 12 38 -3 9 -9 20 -13 24 -9 8 8 -26 35 -45 35 -8 0 -25 -11
-39 -26z"/>
<path d="M1300 7250 c0 -33 4 -60 10 -60 6 0 10 27 10 60 0 33 -4 60 -10 60
-6 0 -10 -27 -10 -60z"/>
<path d="M1350 7250 c0 -33 4 -60 10 -60 6 0 10 21 10 48 l1 47 25 -47 c35
-68 54 -64 54 12 0 33 -4 60 -10 60 -5 0 -10 -21 -10 -47 l0 -48 -27 48 c-37
66 -53 62 -53 -13z"/>
<path d="M1598 7303 c20 -4 22 -10 22 -59 0 -30 5 -54 10 -54 6 0 10 24 10 54
0 49 2 55 23 59 12 2 -3 4 -33 4 -30 0 -45 -2 -32 -4z"/>
<path d="M1700 7250 c0 -33 4 -60 10 -60 6 0 10 27 10 60 0 33 -4 60 -10 60
-6 0 -10 -27 -10 -60z"/>
<path d="M1757 7303 c19 -4 23 -12 26 -61 l3 -57 2 57 c2 50 5 57 25 61 12 2
0 4 -28 4 -27 0 -40 -2 -28 -4z"/>
<path d="M1864 7255 l1 -60 40 0 40 0 1 60 c1 33 0 44 -3 25 -7 -70 -12 -80
-38 -80 -19 0 -25 6 -29 33 -3 17 -7 43 -10 57 -2 14 -3 -2 -2 -35z"/>
<path d="M1988 7303 c20 -4 22 -10 22 -59 0 -30 5 -54 10 -54 6 0 10 24 10 54
0 49 2 55 23 59 12 2 -3 4 -33 4 -30 0 -45 -2 -32 -4z"/>
<path d="M2282 7248 c0 -35 3 -49 5 -31 3 26 9 33 31 36 l27 4 -27 2 c-21 1
-28 6 -28 20 0 15 8 21 33 24 31 4 31 4 -5 5 l-38 2 2 -62z"/>
<path d="M2390 7250 l0 -60 43 2 42 1 -37 4 c-32 4 -38 8 -38 28 0 19 6 24 33
28 l32 4 -32 1 c-25 2 -33 7 -33 21 0 15 8 21 38 24 l37 4 -42 1 -43 2 0 -60z"/>
<path d="M2500 7250 l0 -60 34 0 c43 0 66 22 66 64 0 42 -16 56 -62 56 l-38 0
0 -60z m81 24 c12 -33 -11 -74 -41 -74 -17 0 -20 7 -20 50 0 47 2 50 25 50 18
0 28 -7 36 -26z"/>
<path d="M2630 7250 l0 -60 48 2 c43 1 44 2 10 5 -32 4 -38 8 -38 28 0 18 6
25 28 28 l27 4 -27 2 c-21 1 -28 6 -28 20 0 15 8 21 33 24 28 3 26 4 -10 5
l-43 2 0 -60z"/>
<path d="M2751 7248 c1 -35 4 -51 6 -35 5 34 22 34 53 2 13 -14 28 -25 33 -25
6 0 0 11 -13 25 -20 21 -21 25 -7 31 21 8 30 34 16 50 -6 8 -29 14 -50 14
l-39 0 1 -62z m74 42 c10 -17 -16 -41 -39 -38 -13 2 -22 12 -24 26 -3 19 1 22
27 22 16 0 33 -5 36 -10z"/>
<path d="M2881 7255 c-24 -63 -24 -65 -12 -65 5 0 11 9 14 20 3 13 14 20 30
20 17 0 28 -7 32 -20 3 -11 10 -20 15 -20 5 0 0 27 -12 60 -11 33 -26 60 -33
60 -8 0 -23 -25 -34 -55z m48 -2 c1 -7 -8 -13 -18 -13 -18 0 -19 3 -9 32 10
28 12 30 19 12 4 -10 8 -25 8 -31z"/>
<path d="M2990 7250 l0 -60 43 2 c36 1 38 2 10 5 -33 4 -33 5 -33 59 0 30 -4
54 -10 54 -6 0 -10 -27 -10 -60z"/>
<path d="M3140 7250 l0 -61 37 3 c48 4 73 41 57 85 -8 24 -16 28 -52 31 l-42
3 0 -61z m68 38 c7 -7 12 -24 12 -38 0 -32 -17 -50 -47 -50 -21 0 -23 4 -23
50 0 46 2 50 23 50 13 0 28 -5 35 -12z"/>
<path d="M3260 7250 l0 -60 48 2 c43 1 44 2 10 5 -32 4 -38 8 -38 28 0 18 6
25 28 28 l27 4 -27 2 c-21 1 -28 6 -28 20 0 15 8 21 38 24 34 3 33 4 -10 5
l-48 2 0 -60z"/>
<path d="M3430 7250 l0 -60 48 2 c43 1 44 2 10 5 -32 4 -38 8 -38 28 0 18 6
25 28 28 l27 4 -27 2 c-21 1 -28 6 -28 20 0 15 8 21 33 24 28 3 26 4 -10 5
l-43 2 0 -60z"/>
<path d="M3550 7250 l0 -61 37 3 c48 4 73 41 57 85 -8 24 -16 28 -52 31 l-42
3 0 -61z m68 38 c7 -7 12 -24 12 -38 0 -32 -17 -50 -47 -50 -21 0 -23 4 -23
50 0 46 2 50 23 50 13 0 28 -5 35 -12z"/>
<path d="M3670 7262 c0 -55 12 -72 52 -72 33 0 48 24 48 79 0 60 -18 50 -22
-11 -3 -49 -5 -53 -28 -53 -23 0 -25 4 -28 53 -4 65 -22 69 -22 4z"/>
<path d="M3934 7250 c-12 -33 -17 -60 -12 -60 6 0 12 9 15 20 4 13 14 20 30
20 16 0 27 -7 30 -20 5 -19 23 -29 23 -12 0 22 -40 107 -51 110 -9 1 -22 -20
-35 -58z m49 10 c4 -15 0 -20 -15 -20 -14 0 -18 5 -14 16 3 9 6 20 6 25 0 17
17 1 23 -21z"/>
<path d="M4185 7273 c-22 -53 -29 -83 -17 -83 5 0 12 9 15 20 3 13 14 20 30
20 16 0 26 -7 30 -20 3 -11 9 -20 15 -20 5 0 0 27 -12 60 -12 33 -27 60 -33
60 -7 0 -20 -17 -28 -37z m41 -30 c-2 -3 -11 -3 -19 -1 -11 2 -12 9 -5 28 l10
25 9 -24 c5 -13 7 -26 5 -28z"/>
<path d="M4653 7250 c0 -36 2 -50 4 -32 2 17 2 47 0 65 -2 17 -4 3 -4 -33z"/>
<path d="M4700 7250 l0 -60 48 2 c43 1 44 2 10 5 -32 4 -38 8 -38 28 0 18 6
25 28 28 l27 4 -27 2 c-21 1 -28 6 -28 20 0 15 8 21 33 24 28 3 26 4 -10 5
l-43 2 0 -60z"/>
<path d="M4810 7250 c0 -71 18 -81 22 -12 l3 47 25 -47 c34 -67 50 -63 50 12
0 33 -4 60 -10 60 -5 0 -10 -21 -10 -47 l-1 -48 -25 48 c-35 67 -54 63 -54
-13z"/>
<path d="M5070 7250 c0 -33 4 -60 10 -60 6 0 10 27 10 60 0 33 -4 60 -10 60
-6 0 -10 -27 -10 -60z"/>
<path d="M5124 7250 c-12 -33 -17 -60 -12 -60 6 0 12 9 15 20 4 13 14 20 30
20 16 0 27 -7 30 -20 5 -19 23 -29 23 -12 0 22 -40 107 -51 110 -9 1 -22 -20
-35 -58z m49 10 c4 -15 0 -20 -15 -20 -14 0 -18 5 -14 16 3 9 6 20 6 25 0 17
17 1 23 -21z"/>
<path d="M5290 7250 l0 -60 43 2 42 1 -37 4 c-32 4 -38 8 -38 28 0 19 6 24 33
28 l32 4 -32 1 c-25 2 -33 7 -33 21 0 15 8 21 38 24 l37 4 -42 1 -43 2 0 -60z"/>
<path d="M4420 7188 c0 -19 2 -20 10 -8 13 19 13 30 0 30 -5 0 -10 -10 -10
-22z"/>
<path d="M2580 7000 c-24 -24 -26 -72 -4 -94 20 -20 68 -21 84 -1 15 18 7 19
-20 3 -29 -19 -54 1 -58 45 -4 45 23 65 56 41 12 -8 22 -11 22 -5 0 11 -32 31
-49 31 -6 0 -20 -9 -31 -20z"/>
<path d="M2834 6994 c-20 -19 -24 -31 -19 -52 10 -39 24 -52 56 -52 37 0 59
24 59 65 0 24 -7 39 -22 49 -31 22 -45 20 -74 -10z m76 -37 c0 -37 -15 -57
-42 -57 -38 0 -51 70 -16 94 31 22 58 4 58 -37z"/>
<path d="M3072 7004 c-16 -11 -22 -25 -22 -53 0 -45 14 -61 55 -61 41 0 55 16
55 61 0 37 -26 69 -55 69 -6 0 -21 -7 -33 -16z m74 -38 c14 -58 -56 -95 -76
-40 -14 35 -13 41 10 64 25 25 56 13 66 -24z"/>
<path d="M3210 7002 c-16 -13 -23 -29 -22 -51 1 -42 18 -61 52 -61 44 0 60 10
60 36 0 20 -5 24 -27 23 -17 -1 -21 -3 -10 -6 27 -7 22 -43 -7 -43 -52 0 -73
53 -36 90 16 16 25 18 40 10 28 -15 38 -12 16 5 -26 20 -39 19 -66 -3z"/>
<path d="M2348 7003 c20 -4 22 -10 22 -59 0 -30 5 -54 10 -54 6 0 10 24 10 54
0 49 2 55 23 59 12 2 -3 4 -33 4 -30 0 -45 -2 -32 -4z"/>
<path d="M2450 6950 l0 -60 48 2 c43 1 44 2 10 5 -32 4 -38 8 -38 28 0 18 6
25 28 28 l27 4 -27 2 c-21 1 -28 6 -28 20 0 15 8 21 33 24 28 3 26 4 -10 5
l-43 2 0 -60z"/>
<path d="M2690 6950 c0 -71 18 -81 22 -12 l3 47 25 -47 c34 -67 50 -63 50 12
0 33 -4 60 -10 60 -5 0 -10 -21 -10 -47 l-1 -48 -25 48 c-35 67 -54 63 -54
-13z"/>
<path d="M2962 6953 l-2 -63 38 2 c36 1 36 1 5 5 -31 4 -32 5 -36 61 l-3 57
-2 -62z"/>
<path d="M3333 6950 c0 -36 2 -50 4 -32 2 17 2 47 0 65 -2 17 -4 3 -4 -33z"/>
<path d="M3382 6950 c-12 -33 -17 -60 -12 -60 5 0 12 9 15 20 4 13 15 20 30
20 15 0 26 -7 30 -20 5 -17 25 -29 25 -16 0 21 -46 116 -55 116 -7 0 -22 -27
-33 -60z m47 3 c1 -7 -6 -13 -14 -13 -17 0 -18 4 -8 39 6 23 7 23 14 5 4 -10
8 -25 8 -31z"/>
<path d="M3540 6950 l0 -60 34 0 c43 0 66 22 66 64 0 42 -16 56 -62 56 l-38 0
0 -60z m81 24 c12 -33 -11 -74 -41 -74 -17 0 -20 7 -20 50 0 47 2 50 25 50 18
0 28 -7 36 -26z"/>
<path d="M3685 6973 c-22 -53 -29 -83 -17 -83 5 0 12 9 15 20 3 13 14 20 30
20 16 0 26 -7 30 -20 3 -11 9 -20 15 -20 5 0 0 27 -12 60 -12 33 -27 60 -33
60 -7 0 -20 -17 -28 -37z m41 -30 c-2 -3 -11 -3 -19 -1 -11 2 -12 9 -5 28 l10
25 9 -24 c5 -13 7 -26 5 -28z"/>
<path d="M3830 6951 l0 -61 39 0 c43 0 67 20 56 47 -4 10 -8 29 -9 43 -1 22
-6 25 -43 28 l-43 3 0 -60z m68 32 c-2 -10 -13 -19 -26 -21 -17 -3 -22 2 -22
17 0 16 6 21 26 21 19 0 25 -5 22 -17z m7 -58 c0 -14 -8 -21 -27 -23 -24 -3
-28 0 -28 23 0 23 4 26 28 23 19 -2 27 -9 27 -23z"/>
<path d="M3962 6950 c-12 -33 -17 -60 -12 -60 5 0 12 9 15 20 4 13 15 20 30
20 15 0 26 -7 30 -20 5 -17 25 -29 25 -16 0 21 -46 116 -55 116 -7 0 -22 -27
-33 -60z m47 3 c1 -7 -6 -13 -14 -13 -17 0 -18 4 -8 39 6 23 7 23 14 5 4 -10
8 -25 8 -31z"/>
<path d="M4073 6950 c-1 -43 2 -55 6 -35 5 25 12 31 38 33 29 3 32 1 36 -30 2
-18 4 -4 4 32 0 36 -2 53 -4 38 -4 -24 -9 -28 -38 -28 -29 0 -34 4 -38 28 -2
15 -4 -2 -4 -38z"/>
<path d="M4203 6950 c0 -36 2 -50 4 -32 2 17 2 47 0 65 -2 17 -4 3 -4 -33z"/>
<path d="M4254 6950 c-12 -33 -17 -60 -12 -60 6 0 12 9 15 20 4 13 14 20 30
20 16 0 27 -7 30 -20 5 -19 23 -29 23 -12 0 22 -40 107 -51 110 -9 1 -22 -20
-35 -58z m49 10 c4 -15 0 -20 -15 -20 -14 0 -18 5 -14 16 3 9 6 20 6 25 0 17
17 1 23 -21z"/>
<path d="M2423 5528 c-20 -52 -21 -80 -2 -45 12 21 59 23 59 2 0 -8 5 -15 10
-15 13 0 13 -4 -9 55 -10 27 -23 51 -28 52 -6 2 -19 -20 -30 -49z m46 -10 c1
-5 -6 -8 -14 -8 -15 0 -21 31 -8 44 7 6 20 -17 22 -36z"/>
<path d="M2522 5528 l-2 -58 33 1 c29 2 30 2 5 6 -25 4 -27 9 -31 56 l-3 52
-2 -57z"/>
<path d="M2600 5526 l0 -56 34 0 c37 0 63 22 49 42 -4 7 -8 24 -8 38 0 22 -5
25 -37 28 l-38 3 0 -55z m58 27 c-5 -26 -38 -29 -38 -4 0 15 6 21 21 21 14 0
19 -5 17 -17z m7 -53 c0 -8 -10 -16 -22 -18 -18 -3 -23 2 -23 18 0 16 5 21 23
18 12 -2 22 -10 22 -18z"/>
<path d="M2710 5525 l0 -55 43 2 42 1 -37 4 c-29 3 -38 9 -38 23 0 13 9 20 28
23 l27 4 -27 2 c-21 1 -28 6 -28 20 0 15 8 21 33 24 31 4 31 4 -5 5 l-38 2 0
-55z"/>
<path d="M2810 5525 c0 -30 5 -55 10 -55 6 0 10 9 10 20 0 11 6 20 13 20 7 0
18 -9 25 -20 7 -11 17 -20 24 -20 6 0 3 8 -7 20 -16 18 -16 20 -1 35 9 9 16
20 16 24 0 17 -26 31 -57 31 l-33 0 0 -55z m67 29 c6 -16 -12 -34 -34 -34 -7
0 -13 11 -13 25 0 18 5 25 20 25 11 0 23 -7 27 -16z"/>
<path d="M2923 5573 c13 -3 17 -15 17 -54 0 -27 5 -49 10 -49 6 0 10 22 10 49
0 39 4 51 18 54 9 3 -3 5 -28 5 -25 0 -37 -2 -27 -5z"/>
<path d="M3062 5568 c-19 -19 -14 -28 24 -44 42 -18 40 -40 -5 -38 -17 1 -28
-2 -25 -7 9 -15 60 -10 74 6 16 19 0 40 -35 49 -14 4 -25 14 -25 22 0 13 7 15
30 10 19 -3 29 -2 25 4 -9 14 -49 12 -63 -2z"/>
<path d="M3163 5525 c0 -33 2 -45 4 -27 2 18 2 45 0 60 -2 15 -4 0 -4 -33z"/>
<path d="M3200 5525 l0 -55 38 1 c30 2 32 3 10 6 -26 4 -28 8 -28 54 0 27 -4
49 -10 49 -5 0 -10 -25 -10 -55z"/>
<path d="M3280 5576 c0 -22 36 -106 45 -106 6 0 19 23 28 52 17 55 15 81 -3
32 -26 -72 -26 -72 -40 -29 -12 38 -30 68 -30 51z"/>
<path d="M3415 5568 c-26 -73 -33 -98 -25 -98 6 0 10 7 10 15 0 21 47 19 59
-2 19 -35 18 -7 -2 45 -19 51 -33 64 -42 40z m25 -39 c0 -11 -7 -19 -16 -19
-11 0 -14 5 -10 16 3 9 6 20 6 25 0 6 5 7 10 4 6 -3 10 -15 10 -26z"/>
<path d="M3530 5525 l0 -55 33 0 c41 0 57 15 57 55 0 40 -16 55 -57 55 l-33 0
0 -55z m68 33 c27 -27 7 -78 -30 -78 -15 0 -18 8 -18 45 0 37 3 45 18 45 10 0
23 -5 30 -12z"/>
<path d="M3650 5525 l0 -55 43 2 42 1 -37 4 c-29 3 -38 9 -38 23 0 13 9 20 28
23 l27 4 -27 2 c-21 1 -28 6 -28 20 0 15 8 21 33 24 31 4 31 4 -5 5 l-38 2 0
-55z"/>
<path d="M3828 5574 c-5 -4 -8 -27 -8 -50 0 -36 -3 -43 -22 -47 -20 -4 -19 -4
5 -6 15 0 30 5 33 13 8 20 0 99 -8 90z"/>
<path d="M3870 5525 l0 -55 43 2 c36 1 38 2 10 5 -40 5 -47 39 -10 46 l22 4
-22 2 c-38 2 -30 39 10 44 28 3 26 4 -10 5 l-43 2 0 -55z"/>
<path d="M3977 5573 c-16 -15 -5 -34 28 -50 43 -20 40 -39 -5 -36 -21 1 -29
-2 -22 -9 5 -5 22 -8 38 -6 21 2 30 9 32 25 3 17 -5 26 -33 37 -43 18 -38 41
7 32 18 -3 27 -2 23 4 -7 11 -58 14 -68 3z"/>
<path d="M4070 5544 c0 -19 5 -44 10 -55 12 -21 50 -25 68 -7 14 14 16 98 2
98 -5 0 -10 -23 -10 -51 0 -47 -2 -50 -22 -47 -20 3 -23 10 -26 51 -4 54 -22
64 -22 11z"/>
<path d="M4187 5573 c-16 -15 -5 -35 29 -49 43 -18 40 -40 -6 -37 -21 1 -29
-2 -22 -9 5 -5 22 -8 38 -6 21 2 30 9 32 26 3 18 -3 25 -27 33 -42 15 -42 44
-1 35 19 -3 29 -2 25 4 -7 11 -58 14 -68 3z"/>
<path d="M1200 3885 c0 -37 4 -65 10 -65 6 0 10 28 10 65 0 37 -4 65 -10 65
-6 0 -10 -28 -10 -65z"/>
<path d="M1690 3929 c0 -15 -5 -19 -15 -15 -16 6 -55 -26 -55 -45 0 -29 22
-49 55 -49 l35 0 0 65 c0 37 -4 65 -10 65 -5 0 -10 -9 -10 -21z m-2 -62 c3
-22 -1 -27 -17 -27 -15 0 -21 6 -21 23 0 46 33 49 38 4z"/>
<path d="M2530 3929 c0 -15 -5 -19 -15 -15 -16 6 -55 -26 -55 -45 0 -29 22
-49 55 -49 l35 0 0 65 c0 37 -4 65 -10 65 -5 0 -10 -9 -10 -21z m-2 -62 c3
-22 -1 -27 -17 -27 -15 0 -21 6 -21 23 0 46 33 49 38 4z"/>
<path d="M4010 3885 c0 -37 4 -65 10 -65 6 0 10 28 10 65 0 37 -4 65 -10 65
-6 0 -10 -28 -10 -65z"/>
<path d="M4280 3940 c0 -5 5 -10 10 -10 6 0 10 5 10 10 0 6 -4 10 -10 10 -5 0
-10 -4 -10 -10z"/>
<path d="M4630 3929 c0 -15 -5 -19 -19 -14 -38 12 -69 -53 -39 -83 7 -7 27
-12 45 -12 l33 0 0 65 c0 37 -4 65 -10 65 -5 0 -10 -9 -10 -21z m-5 -60 c0
-15 -7 -25 -17 -27 -13 -3 -18 3 -18 21 0 13 3 27 7 31 13 12 28 -1 28 -25z"/>
<path d="M5573 3930 c-3 -12 -11 -19 -17 -17 -20 8 -46 -13 -46 -38 0 -44 10
-55 51 -55 l39 0 0 65 c0 64 -16 89 -27 45z m-5 -63 c2 -18 -1 -27 -11 -27
-18 0 -29 24 -20 45 8 23 28 12 31 -18z"/>
<path d="M880 3880 l0 -60 45 0 c25 0 45 5 45 10 0 6 -13 10 -30 10 -20 0 -30
5 -30 15 0 8 9 15 20 15 11 0 20 5 20 10 0 6 -9 10 -20 10 -13 0 -20 7 -20 19
0 15 8 21 33 24 24 3 21 4 -15 5 l-48 2 0 -60z"/>
<path d="M2150 3880 c0 -47 3 -60 15 -60 9 0 15 9 15 25 0 18 5 25 20 25 11 0
20 5 20 10 0 6 -9 10 -20 10 -33 0 -26 38 8 43 19 3 14 4 -15 6 l-43 1 0 -60z"/>
<path d="M3503 3933 c13 -4 17 -15 17 -59 0 -41 4 -54 15 -54 11 0 15 13 15
54 0 49 2 55 23 59 12 2 -3 4 -33 4 -30 1 -47 -1 -37 -4z"/>
<path d="M4820 3880 c0 -47 3 -60 15 -60 12 0 15 13 15 60 0 47 -3 60 -15 60
-12 0 -15 -13 -15 -60z"/>
<path d="M3029 3918 c-5 -54 9 -98 31 -98 11 0 20 5 20 10 0 6 -5 10 -11 10
-6 0 -10 15 -9 33 3 50 1 57 -15 57 -8 0 -16 -6 -16 -12z"/>
<path d="M4977 3922 c-3 -4 -3 -28 0 -55 5 -37 9 -47 24 -47 11 0 19 5 19 10
0 6 -4 10 -10 10 -5 0 -10 14 -10 30 0 17 5 30 11 30 6 0 4 7 -5 15 -16 17
-23 18 -29 7z"/>
<path d="M5407 3922 c-3 -4 -3 -28 0 -55 5 -37 9 -47 24 -47 11 0 19 5 19 10
0 6 -4 10 -10 10 -5 0 -10 14 -10 30 0 17 5 30 11 30 6 0 4 7 -5 15 -16 17
-23 18 -29 7z"/>
<path d="M1113 3913 c-21 -4 -23 -10 -23 -69 0 -50 3 -64 15 -64 8 0 15 9 15
20 0 14 7 20 24 20 39 0 52 71 17 90 -11 5 -21 9 -23 9 -2 -1 -13 -4 -25 -6z
m39 -30 c7 -25 -1 -43 -18 -43 -9 0 -14 11 -14 30 0 33 24 42 32 13z"/>
<path d="M1260 3900 c-23 -23 -24 -33 -10 -61 12 -22 59 -26 78 -7 19 19 14
55 -10 72 -29 20 -34 20 -58 -4z m45 -36 c0 -19 -5 -29 -15 -29 -16 0 -25 28
-16 51 10 25 31 10 31 -22z"/>
<path d="M1373 3912 c-20 -3 -23 -10 -23 -48 0 -32 4 -44 15 -44 10 0 15 11
15 35 0 21 6 37 16 43 20 11 7 19 -23 14z"/>
<path d="M1434 3904 c-18 -15 -18 -15 9 -9 34 7 35 -8 1 -24 -38 -17 -28 -45
19 -49 l37 -3 0 40 c0 30 -5 43 -19 51 -25 13 -24 13 -47 -6z m36 -52 c0 -13
-12 -22 -22 -16 -10 6 -1 24 13 24 5 0 9 -4 9 -8z"/>
<path d="M1548 3913 c-26 -4 -28 -8 -28 -49 0 -32 4 -44 14 -44 10 0 16 13 18
38 2 20 8 37 13 37 6 0 11 -17 13 -37 4 -53 32 -52 32 0 0 34 -15 64 -29 61
-4 -1 -18 -4 -33 -6z"/>
<path d="M1752 3904 c-24 -17 -29 -53 -10 -72 19 -19 66 -15 78 7 14 28 13 38
-10 61 -24 24 -29 24 -58 4z m43 -40 c0 -19 -5 -29 -15 -29 -16 0 -25 28 -16
51 10 25 31 10 31 -22z"/>
<path d="M1906 3907 c-12 -9 -17 -23 -14 -47 3 -30 7 -35 31 -38 37 -4 57 13
57 49 0 22 -6 32 -26 39 -31 12 -27 13 -48 -3z m48 -23 c3 -8 1 -24 -5 -35 -8
-16 -13 -18 -25 -8 -15 12 -19 41 -7 52 11 12 31 7 37 -9z"/>
<path d="M2017 3912 c-27 -6 -18 -46 11 -50 12 -2 22 -10 22 -19 0 -12 -6 -14
-27 -8 -21 5 -25 4 -17 -5 17 -18 68 -8 72 13 3 13 -6 22 -27 30 -37 14 -42
32 -6 23 14 -4 25 -2 25 3 0 11 -29 18 -53 13z"/>
<path d="M2388 3913 c-26 -4 -28 -8 -28 -49 0 -24 5 -44 10 -44 6 0 10 15 10
34 0 20 6 36 14 39 20 8 26 -2 26 -40 0 -23 5 -33 15 -33 21 0 20 64 -1 84 -8
9 -16 15 -17 15 -1 -1 -14 -4 -29 -6z"/>
<path d="M2598 3913 c-10 -2 -18 -9 -18 -15 0 -5 7 -7 16 -4 31 12 36 -7 5
-20 -45 -19 -39 -48 12 -52 37 -3 37 -3 37 35 0 35 -14 65 -29 62 -4 -1 -14
-3 -23 -6z m30 -65 c-6 -18 -28 -21 -28 -4 0 9 7 16 16 16 9 0 14 -5 12 -12z"/>
<path d="M2698 3912 c-26 -3 -28 -7 -28 -48 0 -32 4 -44 14 -44 10 0 16 13 18
38 2 20 8 37 13 37 6 0 11 -17 13 -37 4 -44 22 -52 22 -9 0 16 7 34 15 41 13
11 15 7 15 -29 0 -30 4 -41 15 -41 18 0 21 75 3 86 -12 8 -59 11 -100 6z"/>
<path d="M2838 3901 c-19 -16 -21 -23 -13 -47 8 -23 17 -29 39 -29 16 0 31 6
34 13 3 11 0 12 -16 3 -19 -10 -32 -6 -32 11 0 4 14 8 30 8 29 0 38 13 22 36
-14 21 -41 23 -64 5z m42 -16 c0 -8 -7 -15 -15 -15 -16 0 -20 12 -8 23 11 12
23 8 23 -8z"/>
<path d="M2953 3912 c-32 -3 -33 -5 -33 -48 0 -32 4 -44 15 -44 10 0 15 10 15
34 0 20 6 36 14 39 20 8 26 -2 26 -40 0 -18 5 -33 10 -33 15 0 12 87 -2 92 -7
2 -28 2 -45 0z"/>
<path d="M3112 3909 c-19 -7 -23 -15 -20 -40 4 -38 26 -54 61 -45 23 5 27 12
27 41 0 24 -6 37 -19 45 -23 12 -19 12 -49 -1z m46 -35 c2 -11 -4 -26 -12 -33
-12 -10 -17 -9 -25 8 -6 11 -8 27 -5 36 9 22 38 14 42 -11z"/>
<path d="M3217 3912 c-27 -6 -18 -46 11 -50 12 -2 22 -10 22 -19 0 -12 -6 -14
-27 -8 -21 5 -25 4 -17 -5 17 -18 68 -8 72 13 3 13 -6 22 -27 30 -37 14 -42
32 -6 23 14 -4 25 -2 25 3 0 11 -29 18 -53 13z"/>
<path d="M3368 3912 c-22 -4 -35 -49 -21 -71 12 -20 51 -27 66 -12 15 15 0 26
-16 13 -8 -7 -17 -9 -20 -5 -15 14 -6 23 23 23 33 0 35 3 20 29 -11 22 -28 29
-52 23z m30 -30 c2 -7 -3 -12 -12 -12 -9 0 -16 7 -16 16 0 17 22 14 28 -4z"/>
<path d="M3616 3907 c-27 -20 -18 -81 12 -85 31 -5 55 5 47 18 -5 8 -11 7 -20
0 -15 -12 -35 -6 -35 11 0 5 14 9 30 9 23 0 30 4 30 20 0 10 -9 24 -19 30 -24
13 -24 13 -45 -3z m34 -22 c0 -8 -4 -15 -9 -15 -13 0 -22 16 -14 24 11 11 23
6 23 -9z"/>
<path d="M3709 3901 c-20 -16 -22 -23 -14 -47 8 -22 18 -30 41 -32 21 -2 33 2
37 12 7 19 -14 21 -31 4 -9 -9 -13 -8 -18 5 -12 33 0 52 31 49 29 -2 29 -2 11
13 -25 19 -29 19 -57 -4z"/>
<path d="M3823 3912 c-32 -3 -33 -5 -33 -48 0 -32 4 -44 15 -44 10 0 15 10 15
34 0 20 6 36 14 39 20 8 26 -2 26 -40 0 -18 5 -33 10 -33 15 0 12 87 -2 92 -7
2 -28 2 -45 0z"/>
<path d="M3922 3909 c-19 -7 -23 -15 -20 -40 4 -38 26 -54 61 -45 23 5 27 12
27 41 0 24 -6 37 -19 45 -23 12 -19 12 -49 -1z m46 -35 c2 -11 -4 -26 -12 -33
-12 -10 -17 -9 -25 8 -6 11 -8 27 -5 36 9 22 38 14 42 -11z"/>
<path d="M4070 3900 c-23 -23 -24 -33 -10 -61 12 -22 59 -26 78 -7 19 19 14
55 -10 72 -29 20 -34 20 -58 -4z m45 -36 c0 -19 -5 -29 -15 -29 -16 0 -25 28
-16 51 10 25 31 10 31 -22z"/>
<path d="M4188 3912 c-22 -4 -35 -49 -21 -71 6 -9 22 -17 37 -19 35 -4 28 -28
-8 -25 -31 2 -35 -12 -4 -20 42 -11 58 8 58 72 0 53 -2 59 -22 63 -13 2 -31 2
-40 0z m40 -45 c3 -22 -1 -27 -17 -27 -15 0 -21 6 -21 23 0 46 33 49 38 4z"/>
<path d="M4334 3904 c-18 -15 -18 -15 9 -9 33 7 36 -6 5 -20 -13 -6 -24 -20
-26 -32 -3 -21 1 -23 37 -23 40 0 41 1 41 34 0 31 -20 66 -39 66 -4 0 -16 -7
-27 -16z m32 -59 c-3 -9 -11 -13 -16 -10 -8 5 -7 11 1 21 14 18 24 11 15 -11z"/>
<path d="M4437 3912 c-27 -6 -18 -46 11 -50 12 -2 22 -10 22 -19 0 -12 -6 -14
-27 -8 -21 5 -25 4 -17 -5 17 -18 68 -8 72 13 3 13 -6 22 -27 30 -37 14 -42
32 -6 23 14 -4 25 -2 25 3 0 11 -29 18 -53 13z"/>
<path d="M4684 3904 c-18 -15 -18 -15 9 -9 34 7 35 -8 1 -24 -38 -17 -28 -45
19 -49 l37 -3 0 40 c0 30 -5 43 -19 51 -25 13 -24 13 -47 -6z m36 -52 c0 -13
-12 -22 -22 -16 -10 6 -1 24 13 24 5 0 9 -4 9 -8z"/>
<path d="M4898 3913 c-26 -4 -28 -8 -28 -49 0 -32 4 -44 14 -44 10 0 16 13 18
38 2 20 8 37 13 37 6 0 11 -17 13 -37 4 -53 32 -52 32 0 0 34 -15 64 -29 61
-4 -1 -18 -4 -33 -6z"/>
<path d="M5048 3909 c-18 -10 -23 -44 -12 -73 7 -18 59 -22 69 -5 11 17 -3 23
-21 9 -13 -12 -17 -11 -24 1 -7 11 -3 15 20 17 35 4 42 35 11 52 -23 12 -22
12 -43 -1z m34 -24 c0 -5 -5 -11 -11 -13 -6 -2 -11 4 -11 13 0 9 5 15 11 13 6
-2 11 -8 11 -13z"/>
<path d="M5153 3912 c-20 -3 -23 -10 -23 -48 0 -24 5 -44 10 -44 6 0 10 13 10
29 0 19 8 35 21 44 23 17 15 25 -18 19z"/>
<path d="M5228 3913 c-26 -4 -28 -8 -28 -49 0 -32 4 -44 14 -44 10 0 16 13 18
38 2 20 8 37 13 37 6 0 11 -17 13 -37 4 -53 32 -52 32 0 0 34 -15 64 -29 61
-4 -1 -18 -4 -33 -6z"/>
<path d="M5318 3901 c-19 -16 -21 -23 -13 -47 8 -23 17 -29 39 -29 16 0 31 6
34 13 3 11 0 12 -16 3 -19 -10 -32 -6 -32 11 0 4 14 8 30 8 29 0 38 13 22 36
-14 21 -41 23 -64 5z m42 -16 c0 -8 -7 -15 -15 -15 -16 0 -20 12 -8 23 11 12
23 8 23 -8z"/>
<path d="M5634 3904 c-18 -15 -18 -15 9 -9 33 7 36 -6 5 -20 -13 -6 -24 -20
-26 -32 -3 -21 1 -23 37 -23 40 0 41 1 41 34 0 31 -20 66 -39 66 -4 0 -16 -7
-27 -16z m32 -59 c-3 -9 -11 -13 -16 -10 -8 5 -7 11 1 21 14 18 24 11 15 -11z"/>
<path d="M5737 3912 c-27 -6 -18 -46 11 -50 12 -2 22 -10 22 -19 0 -12 -6 -14
-27 -8 -21 5 -25 4 -17 -5 17 -18 68 -8 72 13 3 13 -6 22 -27 30 -37 14 -42
32 -6 23 14 -4 25 -2 25 3 0 11 -29 18 -53 13z"/>
<path d="M1002 3885 c9 -19 9 -28 0 -37 -7 -7 -12 -16 -12 -20 0 -14 22 -8 36
10 13 16 13 16 14 0 0 -10 7 -18 15 -18 18 0 19 12 3 28 -9 9 -9 18 0 37 10
21 9 25 -3 25 -8 0 -15 -5 -15 -12 0 -9 -3 -9 -12 0 -7 7 -18 12 -25 12 -10 0
-10 -5 -1 -25z"/>
<path d="M2252 3868 c3 -43 3 -43 46 -46 l42 -3 0 45 c0 34 -4 46 -15 46 -10
0 -15 -11 -15 -35 0 -24 -5 -35 -15 -35 -10 0 -15 11 -15 35 0 25 -4 35 -16
35 -12 0 -14 -9 -12 -42z"/>
<path d="M4270 3865 c0 -33 4 -45 15 -45 11 0 15 12 15 45 0 33 -4 45 -15 45
-11 0 -15 -12 -15 -45z"/>
<path d="M3080 3622 c-16 -13 -23 -29 -22 -51 1 -42 18 -61 53 -61 30 0 71 31
49 38 -6 2 -17 -1 -23 -7 -16 -16 -44 -13 -51 5 -18 47 10 87 46 65 26 -16 39
-3 14 15 -26 19 -39 18 -66 -4z"/>
<path d="M3300 3630 c0 -5 5 -10 10 -10 6 0 10 5 10 10 0 6 -4 10 -10 10 -5 0
-10 -4 -10 -10z"/>
<path d="M3202 3594 c-24 -17 -29 -53 -10 -72 19 -19 66 -15 78 7 14 28 13 38
-10 61 -24 24 -29 24 -58 4z m43 -40 c0 -19 -5 -29 -15 -29 -16 0 -25 28 -16
51 10 25 31 10 31 -22z"/>
<path d="M3358 3603 c-30 -7 -21 -40 13 -52 36 -12 29 -34 -8 -25 -18 5 -24 3
-19 -5 4 -6 21 -11 37 -11 36 0 52 28 25 44 -10 6 -25 17 -34 24 -15 12 -14
13 11 7 29 -6 38 9 11 19 -9 3 -16 5 -17 5 -1 -1 -10 -3 -19 -6z"/>
<path d="M3454 3594 c-18 -15 -18 -15 9 -9 33 7 37 -10 3 -19 -24 -6 -40 -31
-30 -47 3 -5 22 -9 42 -9 l38 0 -4 43 c-6 56 -23 69 -58 41z m34 -55 c-2 -6
-8 -10 -13 -10 -5 0 -11 4 -13 10 -2 6 4 11 13 11 9 0 15 -5 13 -11z"/>
<path d="M3546 3597 c-22 -16 -15 -34 20 -47 36 -14 30 -33 -7 -25 -22 5 -29
4 -25 -4 11 -17 62 -13 77 5 11 14 10 18 -6 30 -10 8 -25 14 -32 14 -7 0 -13
5 -13 11 0 7 10 9 25 5 14 -4 25 -2 25 4 0 5 -4 10 -9 10 -5 0 -15 2 -23 5 -7
3 -22 -1 -32 -8z"/>
<path d="M3290 3555 c0 -33 4 -45 15 -45 11 0 15 12 15 45 0 33 -4 45 -15 45
-11 0 -15 -12 -15 -45z"/>
<path d="M930 3285 c0 -42 3 -55 15 -55 8 0 15 9 15 20 0 11 3 20 8 20 4 0 13
-9 20 -20 7 -11 20 -20 29 -20 14 0 14 2 -2 20 -16 18 -16 20 -1 35 27 27 4
55 -44 55 l-40 0 0 -55z m70 20 c0 -8 -9 -15 -20 -15 -11 0 -20 7 -20 15 0 8
9 15 20 15 11 0 20 -7 20 -15z"/>
<path d="M1130 3285 c0 -30 5 -55 10 -55 6 0 10 25 10 55 0 30 -4 55 -10 55
-5 0 -10 -25 -10 -55z"/>
<path d="M1332 3315 c-32 -34 -27 -79 9 -83 14 -2 31 4 38 12 17 20 6 66 -15
66 -14 0 -14 3 -4 15 21 25 -3 17 -28 -10z m32 -30 c7 -18 -2 -45 -15 -45 -13
0 -22 27 -15 45 3 8 10 15 15 15 5 0 11 -7 15 -15z"/>
<path d="M1468 3333 c7 -3 16 -2 19 1 4 3 -2 6 -13 5 -11 0 -14 -3 -6 -6z"/>
<path d="M1640 3330 c0 -5 7 -10 15 -10 11 0 15 -12 15 -45 0 -25 5 -45 10
-45 6 0 10 20 10 45 0 33 4 45 15 45 8 0 15 5 15 10 0 6 -18 10 -40 10 -22 0
-40 -4 -40 -10z"/>
<path d="M1774 3325 c-4 -8 -12 -15 -20 -15 -19 0 -29 -47 -14 -65 15 -18 56
-20 66 -4 5 9 -1 10 -20 5 -19 -5 -26 -3 -26 9 0 9 9 15 25 15 28 0 32 12 12
32 -8 7 -12 19 -9 26 5 17 -7 15 -14 -3z m6 -35 c0 -5 -4 -10 -10 -10 -5 0
-10 5 -10 10 0 6 5 10 10 10 6 0 10 -4 10 -10z"/>
<path d="M2008 3333 c7 -3 16 -2 19 1 4 3 -2 6 -13 5 -11 0 -14 -3 -6 -6z"/>
<path d="M2440 3284 l0 -55 38 3 c35 3 37 5 37 38 0 29 -4 36 -22 38 -13 2
-23 10 -23 18 0 8 -7 14 -15 14 -12 0 -15 -13 -15 -56z m55 -12 c0 -31 -19
-28 -23 4 -3 18 0 25 10 22 7 -3 13 -14 13 -26z"/>
<path d="M2753 3323 c-3 -10 -12 -33 -19 -52 -17 -41 -17 -41 1 -41 8 0 15 7
15 15 0 8 9 15 20 15 11 0 23 -7 26 -15 4 -9 19 -15 35 -15 25 0 29 4 29 30 0
17 7 33 18 39 14 9 12 10 -15 11 -30 0 -32 -3 -35 -37 l-3 -38 -18 53 c-19 53
-42 68 -54 35z m23 -51 c-12 -11 -18 7 -10 30 l8 23 4 -23 c2 -13 1 -26 -2
-30z"/>
<path d="M3640 3285 c0 -30 5 -55 10 -55 6 0 10 9 10 19 0 14 8 21 26 23 63 7
51 68 -12 68 l-34 0 0 -55z m60 20 c0 -8 -9 -15 -20 -15 -11 0 -20 7 -20 15 0
8 9 15 20 15 11 0 20 -7 20 -15z"/>
<path d="M4220 3285 c0 -30 5 -55 10 -55 6 0 10 25 10 55 0 30 -4 55 -10 55
-5 0 -10 -25 -10 -55z"/>
<path d="M4540 3325 c0 -9 -9 -15 -25 -15 -29 0 -40 -19 -31 -55 5 -21 12 -25
41 -25 l35 0 0 55 c0 30 -4 55 -10 55 -5 0 -10 -7 -10 -15z m-5 -55 c0 -13 -5
-25 -12 -27 -13 -5 -27 32 -18 47 11 18 30 5 30 -20z"/>
<path d="M4713 3314 c-15 -24 -15 -29 -2 -53 17 -30 59 -40 78 -17 7 8 8 17 3
20 -6 3 -15 -1 -22 -9 -17 -21 -40 -7 -40 25 0 30 24 58 35 40 3 -5 13 -10 22
-10 13 0 13 3 3 15 -20 24 -57 18 -77 -11z"/>
<path d="M1258 3319 c-2 -5 -2 -28 0 -50 3 -31 8 -39 24 -39 17 0 18 3 8 14
-6 8 -11 25 -10 38 3 36 1 48 -9 48 -5 0 -11 -5 -13 -11z"/>
<path d="M3128 3318 c-2 -7 -2 -29 2 -48 3 -24 11 -36 25 -38 16 -3 18 -1 8 9
-16 16 -17 59 -2 59 6 0 4 7 -5 15 -18 18 -23 19 -28 3z"/>
<path d="M3260 3303 c0 -41 11 -73 24 -73 9 0 12 35 7 93 -1 4 -8 7 -16 7 -10
0 -15 -10 -15 -27z"/>
<path d="M3898 3319 c-2 -5 -2 -28 0 -50 3 -31 8 -39 24 -39 17 0 18 3 8 14
-6 8 -11 25 -10 38 3 36 1 48 -9 48 -5 0 -11 -5 -13 -11z"/>
<path d="M5558 3323 c6 -2 18 -2 25 0 6 3 1 5 -13 5 -14 0 -19 -2 -12 -5z"/>
<path d="M1044 3295 c-12 -30 5 -65 31 -65 13 0 27 4 30 10 3 5 -2 9 -12 7
-10 -1 -19 3 -21 8 -1 6 9 11 23 13 21 3 23 6 15 23 -13 23 -58 26 -66 4z m46
-5 c0 -5 -7 -10 -16 -10 -8 0 -12 5 -9 10 3 6 10 10 16 10 5 0 9 -4 9 -10z"/>
<path d="M1174 3299 c-5 -9 -1 -11 14 -7 12 4 22 3 22 -2 0 -4 -9 -10 -20 -13
-12 -3 -20 -14 -20 -26 0 -17 6 -21 36 -21 35 0 35 1 32 38 -3 32 -7 37 -30
40 -14 2 -29 -2 -34 -9z m46 -38 c0 -12 -20 -25 -27 -18 -7 7 6 27 18 27 5 0
9 -4 9 -9z"/>
<path d="M1400 3270 c0 -22 5 -40 10 -40 6 0 10 13 10 30 0 17 7 33 18 39 14
9 13 10 -10 11 -26 0 -28 -3 -28 -40z"/>
<path d="M1460 3270 c0 -29 4 -40 15 -40 11 0 15 11 15 40 0 29 -4 40 -15 40
-11 0 -15 -11 -15 -40z"/>
<path d="M1507 3304 c-12 -12 -8 -51 7 -64 8 -6 25 -10 38 -8 19 2 23 9 23 38
0 32 -3 35 -30 38 -17 2 -34 0 -38 -4z m48 -34 c0 -13 -5 -25 -12 -27 -13 -5
-27 32 -18 47 11 18 30 5 30 -20z"/>
<path d="M1824 3296 c-11 -30 1 -61 25 -64 13 -2 28 1 34 7 16 16 0 26 -18 11
-12 -10 -16 -9 -21 4 -10 27 3 48 27 41 15 -5 19 -4 15 4 -10 16 -56 14 -62
-3z"/>
<path d="M1910 3270 c0 -47 17 -54 22 -8 4 46 28 49 28 4 0 -20 5 -36 10 -36
6 0 10 18 10 40 0 39 -1 40 -35 40 -34 0 -35 -1 -35 -40z"/>
<path d="M2000 3270 c0 -29 4 -40 15 -40 11 0 15 11 15 40 0 29 -4 40 -15 40
-11 0 -15 -11 -15 -40z"/>
<path d="M2044 3295 c-12 -30 5 -65 31 -65 24 0 42 16 30 28 -3 3 -10 0 -15
-8 -7 -11 -12 -12 -21 -3 -18 18 -6 48 19 46 12 -2 22 2 22 7 0 16 -60 12 -66
-5z"/>
<path d="M2134 3296 c-12 -31 0 -61 27 -64 33 -4 53 20 45 53 -5 20 -13 25
-37 25 -16 0 -32 -6 -35 -14z m50 -11 c7 -18 -2 -45 -15 -45 -5 0 -12 7 -15
15 -7 18 2 45 15 45 5 0 11 -7 15 -15z"/>
<path d="M2267 3303 c-13 -12 -7 -23 18 -35 33 -15 32 -32 -1 -24 -17 5 -23 3
-19 -4 8 -14 48 -13 63 2 13 13 -2 38 -24 38 -7 0 -16 5 -20 12 -5 8 0 9 14 6
12 -4 25 -2 28 3 6 10 -49 13 -59 2z"/>
<path d="M2354 3296 c-12 -31 0 -61 27 -64 33 -4 53 20 45 53 -5 20 -13 25
-37 25 -16 0 -32 -6 -35 -14z m50 -11 c7 -18 -2 -45 -15 -45 -13 0 -22 27 -15
45 3 8 10 15 15 15 5 0 11 -7 15 -15z"/>
<path d="M2540 3270 c0 -22 5 -40 10 -40 6 0 10 13 10 30 0 17 7 33 18 39 14
9 13 10 -10 11 -26 0 -28 -3 -28 -40z"/>
<path d="M2600 3291 c-15 -29 3 -61 35 -61 13 0 27 5 31 11 4 7 -2 9 -16 7
-13 -2 -25 3 -27 10 -3 7 5 12 22 12 20 0 26 4 23 18 -5 26 -54 28 -68 3z m45
-1 c3 -5 -1 -10 -9 -10 -9 0 -16 5 -16 10 0 6 4 10 9 10 6 0 13 -4 16 -10z"/>
<path d="M2894 3285 c-7 -29 10 -55 37 -55 12 0 19 -7 19 -20 0 -11 5 -20 10
-20 6 0 10 27 10 60 l0 60 -35 0 c-29 0 -36 -4 -41 -25z m51 -13 c0 -31 -19
-28 -23 4 -3 18 0 25 10 22 7 -3 13 -14 13 -26z"/>
<path d="M2990 3270 l0 -40 40 0 40 0 0 40 c0 29 -4 40 -15 40 -10 0 -15 -10
-15 -30 0 -20 -5 -30 -15 -30 -10 0 -15 10 -15 30 0 17 -4 30 -10 30 -5 0 -10
-18 -10 -40z"/>
<path d="M3090 3270 c0 -22 5 -40 10 -40 6 0 10 18 10 40 0 22 -4 40 -10 40
-5 0 -10 -18 -10 -40z"/>
<path d="M3180 3291 c-15 -29 3 -61 35 -61 13 0 27 5 31 11 4 7 -2 9 -16 7
-13 -2 -25 3 -27 10 -3 7 5 12 22 12 20 0 26 4 23 18 -5 26 -54 28 -68 3z m45
-1 c3 -5 -1 -10 -9 -10 -9 0 -16 5 -16 10 0 6 4 10 9 10 6 0 13 -4 16 -10z"/>
<path d="M3312 3273 c3 -36 5 -38 41 -40 37 -1 37 -1 37 38 0 21 -4 39 -10 39
-5 0 -10 -13 -10 -30 0 -20 -5 -30 -15 -30 -10 0 -15 10 -15 30 0 21 -5 30
-16 30 -12 0 -14 -9 -12 -37z"/>
<path d="M3410 3270 c0 -22 5 -40 10 -40 6 0 10 13 10 30 0 17 7 33 18 39 14
9 13 10 -10 11 -26 0 -28 -3 -28 -40z"/>
<path d="M3474 3299 c-4 -8 0 -9 15 -4 11 3 21 2 21 -3 0 -5 -9 -12 -20 -15
-12 -3 -20 -14 -20 -26 0 -17 6 -21 35 -21 30 0 35 3 35 24 0 13 -3 31 -6 40
-7 18 -49 22 -60 5z m32 -56 c-10 -10 -19 5 -10 18 6 11 8 11 12 0 2 -7 1 -15
-2 -18z"/>
<path d="M3740 3270 c0 -22 5 -40 10 -40 6 0 10 13 10 30 0 17 7 33 18 39 14
9 13 10 -10 11 -26 0 -28 -3 -28 -40z"/>
<path d="M3804 3296 c-3 -8 -4 -25 -2 -38 2 -19 9 -23 38 -23 33 0 35 2 35 35
0 32 -3 35 -33 38 -21 2 -34 -2 -38 -12z m51 -26 c0 -13 -6 -25 -12 -27 -16
-6 -27 21 -19 43 9 23 31 11 31 -16z"/>
<path d="M3952 3298 c-27 -27 -6 -68 35 -68 31 0 52 42 33 65 -15 18 -51 20
-68 3z m46 -23 c-2 -14 -7 -26 -13 -26 -5 0 -11 12 -13 26 -2 18 1 25 13 25
12 0 15 -7 13 -25z"/>
<path d="M4044 3296 c-11 -30 1 -61 25 -64 13 -2 28 1 34 7 16 16 0 26 -18 11
-12 -10 -16 -9 -21 4 -10 27 3 48 27 41 15 -5 19 -4 15 4 -10 16 -56 14 -62
-3z"/>
<path d="M4127 3304 c-12 -12 -8 -51 7 -64 8 -6 25 -10 38 -8 19 2 23 9 23 38
0 32 -3 35 -30 38 -17 2 -34 0 -38 -4z m48 -34 c0 -13 -5 -25 -12 -27 -13 -5
-27 32 -18 47 11 18 30 5 30 -20z"/>
<path d="M4264 3296 c-3 -8 -4 -25 -2 -38 2 -19 9 -23 38 -23 33 0 35 2 35 35
0 32 -3 35 -33 38 -21 2 -34 -2 -38 -12z m51 -26 c0 -13 -6 -25 -12 -27 -16
-6 -27 21 -19 43 9 23 31 11 31 -16z"/>
<path d="M4360 3291 c0 -10 9 -21 20 -24 11 -3 20 -10 20 -17 0 -7 -8 -9 -20
-5 -12 4 -20 2 -20 -5 0 -7 13 -10 32 -8 42 4 51 34 14 44 -14 3 -26 11 -26
16 0 6 9 8 20 5 11 -3 20 -1 20 4 0 5 -13 9 -30 9 -23 0 -30 -5 -30 -19z"/>
<path d="M4580 3291 c-15 -29 3 -61 35 -61 13 0 27 5 31 11 4 7 -2 9 -16 7
-13 -2 -25 3 -27 10 -3 7 5 12 22 12 20 0 26 4 23 18 -5 26 -54 28 -68 3z m45
-1 c3 -5 -1 -10 -9 -10 -9 0 -16 5 -16 10 0 6 4 10 9 10 6 0 13 -4 16 -10z"/>
<path d="M4822 3298 c-27 -27 -6 -68 35 -68 31 0 52 42 33 65 -15 18 -51 20
-68 3z m46 -23 c-2 -14 -7 -26 -13 -26 -5 0 -11 12 -13 26 -2 18 1 25 13 25
12 0 15 -7 13 -25z"/>
<path d="M4910 3270 c0 -48 17 -54 22 -7 2 17 8 32 13 32 6 0 11 -15 13 -32 2
-18 7 -33 12 -33 5 0 10 15 12 33 2 17 8 32 13 32 6 0 11 -15 13 -32 5 -47 22
-41 22 7 l0 40 -60 0 -60 0 0 -40z"/>
<path d="M5040 3293 c1 -48 11 -62 46 -61 33 1 34 3 34 40 0 21 -4 38 -10 38
-5 0 -10 -13 -10 -30 0 -20 -5 -30 -15 -30 -10 0 -15 10 -15 30 0 20 -5 30
-15 30 -8 0 -15 -8 -15 -17z"/>
<path d="M5140 3271 c0 -23 5 -41 10 -41 6 0 10 13 10 29 0 16 6 31 14 34 19
8 26 -1 26 -35 0 -15 5 -28 11 -28 6 0 9 16 7 38 -3 35 -5 37 -40 40 l-38 3 0
-40z"/>
<path d="M5240 3270 c0 -22 5 -40 10 -40 6 0 10 18 10 40 0 22 -4 40 -10 40
-5 0 -10 -18 -10 -40z"/>
<path d="M5280 3290 c-15 -28 4 -60 35 -60 13 0 27 5 30 11 10 16 -3 23 -18
11 -17 -15 -27 -6 -27 25 0 20 3 23 26 17 19 -5 25 -4 20 5 -12 18 -54 13 -66
-9z"/>
<path d="M5370 3300 c0 -7 8 -9 20 -5 11 3 20 2 20 -3 0 -6 -12 -13 -26 -16
-37 -10 -28 -40 14 -44 33 -3 33 -3 30 35 -3 33 -7 38 -30 41 -16 2 -28 -2
-28 -8z m40 -38 c0 -13 -12 -22 -22 -16 -10 6 -1 24 13 24 5 0 9 -4 9 -8z"/>
<path d="M5450 3290 c-12 -22 2 -60 21 -60 6 0 9 -7 5 -15 -3 -9 0 -15 10 -15
9 0 14 6 11 13 -2 6 3 17 12 24 9 6 13 15 9 19 -4 4 -14 2 -21 -4 -17 -15 -27
-6 -27 25 0 20 3 23 26 17 19 -5 25 -4 20 5 -12 18 -54 13 -66 -9z"/>
<path d="M5540 3300 c0 -7 8 -9 20 -5 11 3 20 2 20 -3 0 -6 -12 -13 -26 -16
-37 -10 -28 -40 14 -44 33 -3 33 -3 30 35 -3 33 -7 38 -30 41 -16 2 -28 -2
-28 -8z m40 -38 c0 -13 -12 -22 -22 -16 -10 6 -1 24 13 24 5 0 9 -4 9 -8z"/>
<path d="M5624 3296 c-3 -8 -4 -25 -2 -38 2 -19 9 -23 38 -23 33 0 35 2 35 35
0 32 -3 35 -33 38 -21 2 -34 -2 -38 -12z m51 -26 c0 -27 -22 -39 -31 -16 -8
22 3 49 19 43 6 -2 12 -14 12 -27z"/>
<path d="M3557 3243 c-10 -9 -8 -33 2 -33 5 0 11 9 14 20 5 20 -3 26 -16 13z"/>
<path d="M5717 3243 c-10 -9 -8 -33 2 -33 5 0 11 9 14 20 5 20 -3 26 -16 13z"/>
<path d="M1390 3065 c-10 -12 -10 -18 0 -30 7 -8 18 -15 26 -15 18 0 28 -20
16 -32 -8 -8 -15 -8 -26 1 -14 12 -32 0 -19 -13 11 -10 58 -7 71 6 20 20 13
39 -18 50 -35 12 -35 35 0 30 14 -2 20 0 16 7 -10 16 -52 13 -66 -4z"/>
<path d="M2257 3073 c-4 -3 -7 -28 -7 -55 0 -36 4 -48 15 -48 9 0 15 9 15 25
0 18 5 25 20 25 15 0 20 -7 20 -25 0 -16 6 -25 15 -25 12 0 15 13 15 55 0 42
-3 55 -15 55 -9 0 -15 -9 -15 -25 0 -18 -5 -25 -20 -25 -15 0 -20 7 -20 25 0
24 -10 32 -23 18z"/>
<path d="M2560 3066 c0 -8 -10 -16 -22 -18 -19 -2 -23 -9 -23 -38 0 -33 2 -35
38 -38 l37 -3 0 55 c0 43 -3 56 -15 56 -8 0 -15 -6 -15 -14z m0 -50 c0 -14 -5
-28 -10 -31 -13 -8 -24 20 -16 40 9 24 26 17 26 -9z"/>
<path d="M3133 3054 c-15 -24 -15 -29 -2 -53 17 -30 59 -40 78 -17 7 8 8 17 3
20 -6 3 -15 -1 -22 -9 -17 -21 -40 -7 -40 25 0 30 24 58 35 40 3 -5 13 -10 22
-10 13 0 13 3 3 15 -20 24 -57 18 -77 -11z"/>
<path d="M3895 3070 c-4 -6 3 -10 14 -10 25 0 27 6 6 13 -8 4 -17 2 -20 -3z"/>
<path d="M4370 3026 c0 -55 0 -56 29 -56 42 0 61 10 61 31 0 10 -4 19 -8 19
-4 0 -8 12 -7 28 0 24 -4 27 -37 30 l-38 3 0 -55z m60 25 c0 -5 -7 -12 -16
-15 -22 -9 -24 -8 -24 9 0 8 9 15 20 15 11 0 20 -4 20 -9z m5 -46 c0 -5 -10
-11 -22 -13 -16 -2 -23 2 -23 13 0 11 7 15 23 13 12 -2 22 -7 22 -13z"/>
<path d="M4680 3066 c0 -8 -10 -16 -22 -18 -19 -2 -23 -9 -23 -38 0 -33 2 -35
38 -38 l37 -3 0 55 c0 43 -3 56 -15 56 -8 0 -15 -6 -15 -14z m0 -50 c0 -14 -5
-28 -10 -31 -13 -8 -24 20 -16 40 9 24 26 17 26 -9z"/>
<path d="M5077 3073 c-4 -3 -7 -28 -7 -55 0 -36 4 -48 15 -48 12 0 15 13 15
55 0 51 -7 65 -23 48z"/>
<path d="M5210 3070 c0 -5 7 -10 15 -10 11 0 15 -12 15 -45 0 -25 5 -45 10
-45 6 0 10 20 10 45 0 33 4 45 15 45 8 0 15 5 15 10 0 6 -18 10 -40 10 -22 0
-40 -4 -40 -10z"/>
<path d="M3658 3059 c-2 -5 -2 -27 0 -49 l4 -38 54 -1 54 0 0 39 c0 38 -2 40
-30 40 -16 0 -30 -5 -30 -11 0 -6 9 -8 20 -4 11 4 20 2 20 -4 0 -6 -6 -11 -14
-11 -8 0 -21 -9 -29 -21 -17 -23 -29 -12 -27 24 3 35 1 47 -9 47 -5 0 -11 -5
-13 -11z m92 -64 c0 -8 -4 -15 -10 -15 -5 0 -10 7 -10 15 0 8 5 15 10 15 6 0
10 -7 10 -15z"/>
<path d="M1484 3025 c-4 -15 -1 -32 6 -40 15 -18 56 -20 66 -4 5 9 -1 10 -20
5 -19 -5 -26 -3 -26 9 0 10 9 15 26 15 20 0 25 4 20 16 -3 9 -6 18 -6 20 0 2
-13 4 -30 4 -23 0 -31 -5 -36 -25z m46 5 c0 -5 -4 -10 -10 -10 -5 0 -10 5 -10
10 0 6 5 10 10 10 6 0 10 -4 10 -10z"/>
<path d="M1574 3036 c-13 -33 0 -61 29 -64 23 -3 26 -6 16 -18 -8 -10 -15 -11
-24 -4 -9 8 -15 8 -20 1 -9 -16 43 -25 60 -11 10 8 15 30 15 61 l0 49 -35 0
c-22 0 -38 -6 -41 -14z m54 -23 c4 -24 -26 -40 -34 -18 -8 21 3 47 19 43 6 -3
13 -14 15 -25z"/>
<path d="M1662 3013 c3 -36 5 -38 41 -40 37 -1 37 -1 37 38 0 21 -4 39 -10 39
-5 0 -10 -13 -10 -30 0 -20 -5 -30 -15 -30 -10 0 -15 10 -15 30 0 21 -5 30
-16 30 -12 0 -14 -9 -12 -37z"/>
<path d="M1760 3010 c0 -22 5 -40 10 -40 6 0 10 13 10 30 0 17 7 33 18 39 14
9 13 10 -10 11 -26 0 -28 -3 -28 -40z"/>
<path d="M1824 3039 c-4 -8 0 -9 15 -4 11 3 21 2 21 -3 0 -5 -9 -12 -20 -15
-12 -3 -20 -14 -20 -26 0 -17 6 -21 35 -21 30 0 35 3 35 24 0 13 -3 31 -6 40
-7 18 -49 22 -60 5z m32 -56 c-10 -10 -19 5 -10 18 6 11 8 11 12 0 2 -7 1 -15
-2 -18z"/>
<path d="M1900 3010 c0 -51 27 -57 32 -7 2 17 8 32 13 32 6 0 11 -15 13 -32 5
-47 22 -41 22 7 l0 40 -40 0 -40 0 0 -40z"/>
<path d="M2000 3030 c-12 -22 2 -60 21 -60 6 0 9 -7 5 -15 -3 -9 0 -15 10 -15
9 0 14 6 11 13 -2 6 3 17 12 24 9 6 13 15 9 19 -4 4 -14 2 -21 -4 -17 -15 -27
-6 -27 25 0 20 3 23 26 17 19 -5 25 -4 20 5 -12 18 -54 13 -66 -9z"/>
<path d="M2090 3040 c0 -7 8 -9 20 -5 11 3 20 2 20 -3 0 -6 -12 -13 -26 -16
-37 -10 -28 -40 14 -44 33 -3 33 -3 30 35 -3 33 -7 38 -30 41 -16 2 -28 -2
-28 -8z m40 -38 c0 -13 -12 -22 -22 -16 -10 6 -1 24 13 24 5 0 9 -4 9 -8z"/>
<path d="M2370 3039 c0 -6 9 -8 20 -4 27 9 25 -8 -2 -20 -34 -15 -29 -39 10
-43 31 -3 32 -2 32 37 0 39 -2 41 -30 41 -16 0 -30 -5 -30 -11z m40 -44 c0 -8
-4 -15 -10 -15 -5 0 -10 7 -10 15 0 8 5 15 10 15 6 0 10 -7 10 -15z"/>
<path d="M2450 3010 c0 -22 5 -40 10 -40 6 0 10 13 10 30 0 17 7 33 18 39 14
9 13 10 -10 11 -26 0 -28 -3 -28 -40z"/>
<path d="M2605 3018 c4 -18 11 -37 15 -42 12 -13 30 2 31 27 1 21 1 21 8 -2 4
-14 12 -26 19 -29 12 -4 32 36 32 64 0 23 -18 16 -23 -8 l-4 -23 -8 23 c-4 12
-13 22 -20 22 -7 0 -16 -10 -20 -22 l-8 -23 -4 23 c-2 12 -9 22 -14 22 -7 0
-8 -13 -4 -32z"/>
<path d="M2730 3040 c0 -7 8 -9 20 -5 11 3 20 2 20 -3 0 -6 -12 -13 -26 -16
-37 -10 -28 -40 14 -44 33 -3 33 -3 30 35 -3 33 -7 38 -30 41 -16 2 -28 -2
-28 -8z m40 -38 c0 -13 -12 -22 -22 -16 -10 6 -1 24 13 24 5 0 9 -4 9 -8z"/>
<path d="M2810 3010 c0 -22 5 -40 10 -40 6 0 10 13 10 30 0 17 7 33 18 39 14
9 13 10 -10 11 -26 0 -28 -3 -28 -40z"/>
<path d="M2870 3031 c-15 -29 3 -61 35 -61 13 0 27 5 31 11 4 7 -2 9 -16 7
-13 -2 -25 3 -27 10 -3 7 5 12 22 12 20 0 26 4 23 18 -5 26 -54 28 -68 3z m45
-1 c3 -5 -1 -10 -9 -10 -9 0 -16 5 -16 10 0 6 4 10 9 10 6 0 13 -4 16 -10z"/>
<path d="M2994 3025 c-4 -15 -1 -32 6 -40 15 -18 56 -20 66 -4 5 9 -1 10 -20
5 -19 -5 -26 -3 -26 9 0 10 9 15 26 15 20 0 25 4 20 16 -3 9 -6 18 -6 20 0 2
-13 4 -30 4 -23 0 -31 -5 -36 -25z m46 5 c0 -5 -4 -10 -10 -10 -5 0 -10 5 -10
10 0 6 5 10 10 10 6 0 10 -4 10 -10z"/>
<path d="M3242 3038 c-27 -27 -6 -68 35 -68 31 0 52 42 33 65 -15 18 -51 20
-68 3z m46 -23 c-2 -14 -7 -26 -13 -26 -5 0 -11 12 -13 26 -2 18 1 25 13 25
12 0 15 -7 13 -25z"/>
<path d="M3330 3010 c0 -48 17 -54 22 -7 2 17 8 32 13 32 6 0 11 -15 13 -32 2
-18 7 -33 12 -33 5 0 10 15 12 33 2 17 8 32 13 32 6 0 11 -15 13 -32 5 -47 22
-41 22 7 l0 40 -60 0 -60 0 0 -40z"/>
<path d="M3470 2990 c0 -33 4 -60 10 -60 6 0 10 9 10 20 0 13 7 20 20 20 24 0
43 34 35 60 -5 15 -15 20 -41 20 l-34 0 0 -60z m50 26 c0 -14 -5 -28 -10 -31
-13 -8 -24 20 -16 40 9 24 26 17 26 -9z"/>
<path d="M3562 3013 c3 -36 5 -38 41 -41 l37 -3 0 40 c0 46 -17 56 -22 14 -2
-17 -10 -29 -20 -31 -14 -3 -18 3 -18 27 0 17 -5 31 -11 31 -6 0 -9 -16 -7
-37z"/>
<path d="M3797 3043 c-16 -15 -6 -63 14 -74 17 -9 19 -13 8 -20 -12 -7 -11 -9
1 -9 8 0 21 12 27 27 15 31 10 41 -12 23 -12 -10 -16 -9 -21 4 -10 27 3 48 27
41 15 -5 19 -4 15 4 -8 12 -49 15 -59 4z"/>
<path d="M3880 3039 c0 -6 9 -8 20 -4 27 9 25 -8 -2 -20 -34 -15 -29 -39 10
-43 31 -3 32 -2 32 37 0 39 -2 41 -30 41 -16 0 -30 -5 -30 -11z m40 -44 c0 -8
-4 -15 -10 -15 -5 0 -10 7 -10 15 0 8 5 15 10 15 6 0 10 -7 10 -15z"/>
<path d="M3967 3044 c-12 -12 -8 -51 7 -64 8 -6 25 -10 38 -8 19 2 23 9 23 38
0 32 -3 35 -30 38 -17 2 -34 0 -38 -4z m48 -34 c0 -13 -5 -25 -12 -27 -13 -5
-27 32 -18 47 11 18 30 5 30 -20z"/>
<path d="M4100 3031 c-15 -29 3 -61 35 -61 13 0 27 5 31 11 4 7 -2 9 -16 7
-13 -2 -25 3 -27 10 -3 7 5 12 22 12 20 0 26 4 23 18 -5 26 -54 28 -68 3z m45
-1 c3 -5 -1 -10 -9 -10 -9 0 -16 5 -16 10 0 6 4 10 9 10 6 0 13 -4 16 -10z"/>
<path d="M4190 3010 c0 -22 5 -40 10 -40 6 0 10 13 10 29 0 17 5 33 10 36 6 4
10 -8 10 -29 0 -25 4 -36 15 -36 10 0 15 10 15 29 0 17 5 33 10 36 6 4 10 -8
10 -29 0 -26 4 -36 16 -36 12 0 14 9 12 38 l-3 37 -57 3 -58 3 0 -41z"/>
<path d="M4482 3038 c-27 -27 -6 -68 35 -68 31 0 52 42 33 65 -15 18 -51 20
-68 3z m46 -23 c-2 -14 -7 -26 -13 -26 -5 0 -11 12 -13 26 -2 18 1 25 13 25
12 0 15 -7 13 -25z"/>
<path d="M4570 3010 c0 -22 5 -40 10 -40 6 0 10 13 10 30 0 17 7 33 18 39 14
9 13 10 -10 11 -26 0 -28 -3 -28 -40z"/>
<path d="M4730 3040 c0 -7 8 -9 20 -5 11 3 20 2 20 -3 0 -6 -12 -13 -26 -16
-37 -10 -28 -40 14 -44 33 -3 33 -3 30 35 -3 33 -7 38 -30 41 -16 2 -28 -2
-28 -8z m40 -38 c0 -13 -12 -22 -22 -16 -10 6 -1 24 13 24 5 0 9 -4 9 -8z"/>
<path d="M4850 3011 c0 -23 5 -41 10 -41 6 0 10 13 10 29 0 16 6 31 14 34 19
8 26 -1 26 -35 0 -15 5 -28 11 -28 6 0 9 16 7 38 -3 35 -5 37 -40 40 l-38 3 0
-40z"/>
<path d="M4950 3039 c0 -6 9 -8 20 -4 27 9 25 -8 -2 -20 -34 -15 -29 -39 10
-43 31 -3 32 -2 32 37 0 39 -2 41 -30 41 -16 0 -30 -5 -30 -11z m40 -44 c0 -8
-4 -15 -10 -15 -5 0 -10 7 -10 15 0 8 5 15 10 15 6 0 10 -7 10 -15z"/>
<path d="M5122 3038 c-27 -27 -6 -68 35 -68 31 0 52 42 33 65 -15 18 -51 20
-68 3z m46 -23 c-2 -14 -7 -26 -13 -26 -5 0 -11 12 -13 26 -2 18 1 25 13 25
12 0 15 -7 13 -25z"/>
<path d="M2170 2968 c0 -19 2 -20 10 -8 13 19 13 30 0 30 -5 0 -10 -10 -10
-22z"/>
<path d="M2438 989 c-26 -14 -22 -26 12 -44 39 -20 39 -39 1 -33 -17 2 -28 1
-25 -4 9 -15 54 -8 61 8 6 16 -13 38 -41 47 -7 3 -7 9 3 20 15 19 13 21 -11 6z"/>
<path d="M3330 985 c0 -8 -9 -15 -19 -15 -22 0 -35 -28 -25 -54 3 -9 17 -16
30 -16 22 0 24 4 24 50 0 28 -2 50 -5 50 -3 0 -5 -7 -5 -15z m0 -50 c0 -16 -6
-25 -15 -25 -9 0 -15 9 -15 25 0 16 6 25 15 25 9 0 15 -9 15 -25z"/>
<path d="M2821 968 c-5 -13 -11 -34 -15 -48 -6 -23 -6 -23 7 -7 18 22 43 22
51 1 4 -9 9 -15 11 -12 7 7 -27 88 -37 88 -5 0 -12 -10 -17 -22z m29 -13 c0
-8 -4 -15 -10 -15 -5 0 -10 7 -10 15 0 8 5 15 10 15 6 0 10 -7 10 -15z"/>
<path d="M3502 953 c-2 -35 -6 -42 -24 -46 l-23 -4 23 -2 c27 -1 35 15 29 61
-3 30 -4 30 -5 -9z"/>
<path d="M3930 945 c0 -46 0 -46 33 -43 30 3 32 5 32 43 0 38 -2 40 -32 43
-33 3 -33 3 -33 -43z m54 26 c3 -5 -1 -12 -10 -15 -22 -9 -24 -8 -24 9 0 16
25 21 34 6z m6 -46 c0 -8 -9 -15 -20 -15 -11 0 -20 7 -20 15 0 8 9 15 20 15
11 0 20 -7 20 -15z"/>
<path d="M4090 945 c0 -25 5 -45 10 -45 6 0 10 14 10 30 0 42 27 40 33 -2 4
-32 4 -32 5 5 2 31 -1 37 -18 37 -11 0 -20 5 -20 10 0 6 -4 10 -10 10 -5 0
-10 -20 -10 -45z"/>
<path d="M2659 975 c-7 -6 2 -75 10 -75 3 0 6 16 5 35 -1 35 -6 49 -15 40z"/>
<path d="M2962 944 c4 -49 23 -55 22 -7 -1 20 -7 39 -13 41 -9 3 -11 -7 -9
-34z"/>
<path d="M2516 961 c-4 -5 3 -7 14 -4 16 4 20 0 20 -21 0 -17 -5 -26 -16 -26
-10 0 -14 6 -10 15 3 8 1 15 -4 15 -6 0 -10 -9 -10 -20 0 -15 7 -20 25 -20 22
0 25 4 25 35 0 28 -4 35 -19 35 -11 0 -22 -4 -25 -9z"/>
<path d="M2580 935 c0 -19 5 -35 10 -35 6 0 10 14 10 30 0 42 27 40 33 -2 4
-32 4 -32 5 5 2 35 0 37 -28 37 -28 0 -30 -3 -30 -35z"/>
<path d="M2694 956 c-11 -29 0 -51 26 -51 21 0 25 5 25 30 0 24 -5 31 -23 33
-13 2 -24 -3 -28 -12z m46 -21 c0 -25 -23 -35 -35 -15 -10 16 2 40 20 40 9 0
15 -9 15 -25z"/>
<path d="M2891 933 c1 -36 2 -37 8 -8 3 17 13 30 21 30 8 0 18 -13 22 -30 6
-29 6 -29 5 5 -2 30 -6 35 -29 38 -26 3 -28 1 -27 -35z"/>
<path d="M3004 956 c-11 -29 0 -51 26 -51 21 0 25 5 25 30 0 24 -5 31 -23 33
-13 2 -24 -3 -28 -12z m41 -21 c0 -11 -8 -21 -17 -23 -14 -3 -18 3 -18 23 0
20 4 26 18 23 9 -2 17 -12 17 -23z"/>
<path d="M3070 935 c0 -19 5 -35 10 -35 6 0 10 14 10 30 0 42 27 40 33 -2 4
-32 4 -32 5 5 2 35 0 37 -28 37 -28 0 -30 -3 -30 -35z"/>
<path d="M3153 935 c0 -22 2 -30 4 -17 2 12 2 30 0 40 -3 9 -5 -1 -4 -23z"/>
<path d="M3175 951 c-8 -26 4 -51 25 -51 25 0 43 25 35 50 -8 26 -51 27 -60 1z
m45 -16 c0 -16 -6 -25 -15 -25 -9 0 -15 9 -15 25 0 16 6 25 15 25 9 0 15 -9
15 -25z"/>
<path d="M3364 956 c-15 -39 23 -74 50 -46 8 9 4 10 -16 5 -18 -5 -28 -3 -28
4 0 6 12 11 26 11 20 0 25 4 20 16 -3 9 -6 18 -6 20 0 11 -41 2 -46 -10z m36
-6 c0 -5 -7 -10 -15 -10 -8 0 -15 5 -15 10 0 6 7 10 15 10 8 0 15 -4 15 -10z"/>
<path d="M3535 951 c-9 -28 5 -51 31 -51 13 0 24 4 24 9 0 5 -9 7 -20 4 -11
-3 -20 0 -20 6 0 6 8 11 18 11 26 0 34 11 21 27 -16 19 -47 16 -54 -6z m45 -1
c0 -5 -7 -10 -15 -10 -8 0 -15 5 -15 10 0 6 7 10 15 10 8 0 15 -4 15 -10z"/>
<path d="M3610 954 c0 -9 9 -18 20 -21 27 -7 25 -23 -2 -24 -19 -1 -20 -2 -4
-6 10 -3 23 0 30 7 8 8 5 16 -13 29 -23 18 -23 19 -5 24 16 4 16 5 -3 6 -15 1
-23 -5 -23 -15z"/>
<path d="M3672 938 c2 -28 8 -34 31 -36 25 -3 27 -1 26 35 -1 35 -2 36 -8 9
-9 -41 -31 -46 -31 -7 0 17 -5 31 -11 31 -6 0 -9 -14 -7 -32z"/>
<path d="M3745 960 c-3 -5 7 -17 21 -27 l27 -17 -24 -7 c-23 -7 -23 -7 -2 -8
32 -1 39 19 13 39 -22 17 -23 18 -4 23 17 4 17 5 -3 6 -12 0 -24 -3 -28 -9z"/>
<path d="M4026 961 c-4 -5 3 -7 14 -4 16 4 20 0 20 -21 0 -17 -5 -26 -16 -26
-10 0 -14 6 -10 15 3 8 1 15 -4 15 -6 0 -10 -9 -10 -20 0 -15 7 -20 25 -20 22
0 25 4 25 35 0 28 -4 35 -19 35 -11 0 -22 -4 -25 -9z"/>
<path d="M4173 935 c0 -22 2 -30 4 -17 2 12 2 30 0 40 -3 9 -5 -1 -4 -23z"/>
<path d="M4200 962 c0 -6 8 -8 18 -5 13 3 18 -2 20 -21 1 -18 -3 -26 -14 -26
-11 0 -14 5 -10 16 4 10 1 14 -6 12 -24 -8 -13 -33 15 -36 27 -3 28 -1 25 30
-2 25 -8 34 -25 36 -13 2 -23 -1 -23 -6z"/>
<path d="M3858 933 c7 -3 16 -2 19 1 4 3 -2 6 -13 5 -11 0 -14 -3 -6 -6z"/>
<path d="M3206 761 c-4 -5 3 -7 14 -4 26 7 26 -18 0 -42 -27 -25 -25 -35 8
-34 26 1 26 1 4 8 l-24 6 21 19 c27 24 28 56 2 56 -11 0 -22 -4 -25 -9z"/>
<path d="M3274 757 c-3 -9 -4 -28 -2 -44 2 -22 8 -28 28 -28 23 0 25 4 25 40
0 34 -3 40 -23 43 -13 2 -24 -3 -28 -11z m44 -29 c-3 -36 -30 -46 -36 -15 -5
26 5 47 23 47 12 0 15 -8 13 -32z"/>
<path d="M3350 761 c0 -5 9 -7 20 -4 11 3 20 1 20 -4 0 -6 -9 -18 -20 -28 -29
-26 -25 -45 8 -44 26 1 26 1 4 8 l-24 6 21 19 c30 27 28 56 -4 56 -14 0 -25
-4 -25 -9z"/>
<path d="M3426 754 c-10 -26 -7 -32 14 -27 16 4 20 0 20 -17 0 -17 -4 -21 -20
-17 -11 3 -18 1 -14 -4 3 -5 14 -9 25 -9 29 0 26 48 -3 59 l-23 9 25 10 c23
10 23 11 4 11 -12 1 -25 -6 -28 -15z"/>
</g>
</svg>
