<?xml version="1.0" encoding="UTF-8" standalone="no"?>
<svg
   xmlns:dc="http://purl.org/dc/elements/1.1/"
   xmlns:cc="http://creativecommons.org/ns#"
   xmlns:rdf="http://www.w3.org/1999/02/22-rdf-syntax-ns#"
   xmlns:svg="http://www.w3.org/2000/svg"
   xmlns="http://www.w3.org/2000/svg"
   viewBox="0 0 793.76001 1122.5601"
   height="1122.5601"
   width="793.76001"
   xml:space="preserve"
   id="svg2"
   version="1.1"><metadata
     id="metadata8"><rdf:RDF><cc:Work
         rdf:about=""><dc:format>image/svg+xml</dc:format><dc:type
           rdf:resource="http://purl.org/dc/dcmitype/StillImage" /></cc:Work></rdf:RDF></metadata><defs
     id="defs6"><clipPath
       id="clipPath18"
       clipPathUnits="userSpaceOnUse"><path
         style="clip-rule:evenodd"
         id="path16"
         d="M 8.871e-6,0 H 595.32001 V 841.92 H 8.871e-6 Z" /></clipPath><clipPath
       id="clipPath26"
       clipPathUnits="userSpaceOnUse"><path
         style="clip-rule:evenodd"
         id="path24"
         d="M 8.871e-6,0 H 595.32001 V 841.92 H 8.871e-6 Z" /></clipPath><clipPath
       id="clipPath38"
       clipPathUnits="userSpaceOnUse"><path
         style="clip-rule:evenodd"
         id="path36"
         d="M 8.871e-6,0 H 595.32001 V 841.92 H 8.871e-6 Z" /></clipPath><clipPath
       id="clipPath46"
       clipPathUnits="userSpaceOnUse"><path
         style="clip-rule:evenodd"
         id="path44"
         d="M 8.871e-6,0 H 595.32001 V 841.92 H 8.871e-6 Z" /></clipPath><clipPath
       id="clipPath54"
       clipPathUnits="userSpaceOnUse"><path
         style="clip-rule:evenodd"
         id="path52"
         d="M 8.871e-6,0 H 595.32001 V 841.92 H 8.871e-6 Z" /></clipPath><clipPath
       id="clipPath62"
       clipPathUnits="userSpaceOnUse"><path
         style="clip-rule:evenodd"
         id="path60"
         d="M 8.871e-6,0 H 595.32001 V 841.92 H 8.871e-6 Z" /></clipPath><clipPath
       id="clipPath70"
       clipPathUnits="userSpaceOnUse"><path
         style="clip-rule:evenodd"
         id="path68"
         d="M 8.871e-6,0 H 595.32001 V 841.92 H 8.871e-6 Z" /></clipPath><clipPath
       id="clipPath78"
       clipPathUnits="userSpaceOnUse"><path
         style="clip-rule:evenodd"
         id="path76"
         d="M 8.871e-6,0 H 595.32001 V 841.92 H 8.871e-6 Z" /></clipPath><clipPath
       id="clipPath86"
       clipPathUnits="userSpaceOnUse"><path
         style="clip-rule:evenodd"
         id="path84"
         d="M 8.871e-6,0 H 595.32001 V 841.92 H 8.871e-6 Z" /></clipPath><clipPath
       id="clipPath94"
       clipPathUnits="userSpaceOnUse"><path
         style="clip-rule:evenodd"
         id="path92"
         d="M 8.871e-6,0 H 595.32001 V 841.92 H 8.871e-6 Z" /></clipPath><clipPath
       id="clipPath102"
       clipPathUnits="userSpaceOnUse"><path
         style="clip-rule:evenodd"
         id="path100"
         d="M 8.871e-6,0 H 595.32001 V 841.92 H 8.871e-6 Z" /></clipPath><clipPath
       id="clipPath110"
       clipPathUnits="userSpaceOnUse"><path
         style="clip-rule:evenodd"
         id="path108"
         d="M 8.871e-6,0 H 595.32001 V 841.92 H 8.871e-6 Z" /></clipPath><clipPath
       id="clipPath118"
       clipPathUnits="userSpaceOnUse"><path
         style="clip-rule:evenodd"
         id="path116"
         d="M 8.871e-6,0 H 595.32001 V 841.92 H 8.871e-6 Z" /></clipPath><clipPath
       id="clipPath126"
       clipPathUnits="userSpaceOnUse"><path
         style="clip-rule:evenodd"
         id="path124"
         d="M 8.871e-6,0 H 595.32001 V 841.92 H 8.871e-6 Z" /></clipPath><clipPath
       id="clipPath134"
       clipPathUnits="userSpaceOnUse"><path
         style="clip-rule:evenodd"
         id="path132"
         d="M 8.871e-6,0 H 595.32001 V 841.92 H 8.871e-6 Z" /></clipPath><clipPath
       id="clipPath142"
       clipPathUnits="userSpaceOnUse"><path
         style="clip-rule:evenodd"
         id="path140"
         d="M 8.871e-6,0 H 595.32001 V 841.92 H 8.871e-6 Z" /></clipPath><clipPath
       id="clipPath150"
       clipPathUnits="userSpaceOnUse"><path
         style="clip-rule:evenodd"
         id="path148"
         d="M 8.871e-6,0 H 595.32001 V 841.92 H 8.871e-6 Z" /></clipPath><clipPath
       id="clipPath158"
       clipPathUnits="userSpaceOnUse"><path
         style="clip-rule:evenodd"
         id="path156"
         d="M 8.871e-6,0 H 595.32001 V 841.92 H 8.871e-6 Z" /></clipPath><clipPath
       id="clipPath166"
       clipPathUnits="userSpaceOnUse"><path
         style="clip-rule:evenodd"
         id="path164"
         d="M 8.871e-6,0 H 595.32001 V 841.92 H 8.871e-6 Z" /></clipPath><clipPath
       id="clipPath174"
       clipPathUnits="userSpaceOnUse"><path
         style="clip-rule:evenodd"
         id="path172"
         d="M 8.871e-6,0 H 595.32001 V 841.92 H 8.871e-6 Z" /></clipPath><clipPath
       id="clipPath182"
       clipPathUnits="userSpaceOnUse"><path
         style="clip-rule:evenodd"
         id="path180"
         d="M 8.871e-6,0 H 595.32001 V 841.92 H 8.871e-6 Z" /></clipPath><clipPath
       id="clipPath190"
       clipPathUnits="userSpaceOnUse"><path
         style="clip-rule:evenodd"
         id="path188"
         d="M 8.871e-6,0 H 595.32001 V 841.92 H 8.871e-6 Z" /></clipPath><clipPath
       id="clipPath198"
       clipPathUnits="userSpaceOnUse"><path
         style="clip-rule:evenodd"
         id="path196"
         d="M 8.871e-6,0 H 595.32001 V 841.92 H 8.871e-6 Z" /></clipPath><clipPath
       id="clipPath206"
       clipPathUnits="userSpaceOnUse"><path
         style="clip-rule:evenodd"
         id="path204"
         d="M 8.871e-6,0 H 595.32001 V 841.92 H 8.871e-6 Z" /></clipPath><clipPath
       id="clipPath218"
       clipPathUnits="userSpaceOnUse"><path
         style="clip-rule:evenodd"
         id="path216"
         d="M 8.871e-6,0 H 595.32001 V 841.92 H 8.871e-6 Z" /></clipPath><clipPath
       id="clipPath230"
       clipPathUnits="userSpaceOnUse"><path
         style="clip-rule:evenodd"
         id="path228"
         d="M 8.871e-6,0 H 595.32001 V 841.92 H 8.871e-6 Z" /></clipPath><clipPath
       id="clipPath238"
       clipPathUnits="userSpaceOnUse"><path
         style="clip-rule:evenodd"
         id="path236"
         d="M 8.871e-6,0 H 595.32001 V 841.92 H 8.871e-6 Z" /></clipPath><clipPath
       id="clipPath250"
       clipPathUnits="userSpaceOnUse"><path
         style="clip-rule:evenodd"
         id="path248"
         d="M 8.871e-6,0 H 595.32001 V 841.92 H 8.871e-6 Z" /></clipPath><clipPath
       id="clipPath262"
       clipPathUnits="userSpaceOnUse"><path
         style="clip-rule:evenodd"
         id="path260"
         d="M 8.871e-6,0 H 595.32001 V 841.92 H 8.871e-6 Z" /></clipPath><clipPath
       id="clipPath270"
       clipPathUnits="userSpaceOnUse"><path
         style="clip-rule:evenodd"
         id="path268"
         d="M 8.871e-6,0 H 595.32001 V 841.92 H 8.871e-6 Z" /></clipPath><clipPath
       id="clipPath278"
       clipPathUnits="userSpaceOnUse"><path
         style="clip-rule:evenodd"
         id="path276"
         d="M 8.871e-6,0 H 595.32001 V 841.92 H 8.871e-6 Z" /></clipPath><clipPath
       id="clipPath286"
       clipPathUnits="userSpaceOnUse"><path
         style="clip-rule:evenodd"
         id="path284"
         d="M 8.871e-6,0 H 595.32001 V 841.92 H 8.871e-6 Z" /></clipPath><clipPath
       id="clipPath294"
       clipPathUnits="userSpaceOnUse"><path
         style="clip-rule:evenodd"
         id="path292"
         d="M 8.871e-6,0 H 595.32001 V 841.92 H 8.871e-6 Z" /></clipPath><clipPath
       id="clipPath302"
       clipPathUnits="userSpaceOnUse"><path
         style="clip-rule:evenodd"
         id="path300"
         d="M 8.871e-6,0 H 595.32001 V 841.92 H 8.871e-6 Z" /></clipPath><clipPath
       id="clipPath310"
       clipPathUnits="userSpaceOnUse"><path
         style="clip-rule:evenodd"
         id="path308"
         d="M 8.871e-6,0 H 595.32001 V 841.92 H 8.871e-6 Z" /></clipPath><clipPath
       id="clipPath318"
       clipPathUnits="userSpaceOnUse"><path
         style="clip-rule:evenodd"
         id="path316"
         d="M 8.871e-6,0 H 595.32001 V 841.92 H 8.871e-6 Z" /></clipPath><clipPath
       id="clipPath326"
       clipPathUnits="userSpaceOnUse"><path
         style="clip-rule:evenodd"
         id="path324"
         d="M 8.871e-6,0 H 595.32001 V 841.92 H 8.871e-6 Z" /></clipPath><clipPath
       id="clipPath334"
       clipPathUnits="userSpaceOnUse"><path
         style="clip-rule:evenodd"
         id="path332"
         d="M 8.871e-6,0 H 595.32001 V 841.92 H 8.871e-6 Z" /></clipPath><clipPath
       id="clipPath342"
       clipPathUnits="userSpaceOnUse"><path
         style="clip-rule:evenodd"
         id="path340"
         d="M 8.871e-6,0 H 595.32001 V 841.92 H 8.871e-6 Z" /></clipPath><clipPath
       id="clipPath350"
       clipPathUnits="userSpaceOnUse"><path
         style="clip-rule:evenodd"
         id="path348"
         d="M 8.871e-6,0 H 595.32001 V 841.92 H 8.871e-6 Z" /></clipPath><clipPath
       id="clipPath358"
       clipPathUnits="userSpaceOnUse"><path
         style="clip-rule:evenodd"
         id="path356"
         d="M 8.871e-6,0 H 595.32001 V 841.92 H 8.871e-6 Z" /></clipPath><clipPath
       id="clipPath366"
       clipPathUnits="userSpaceOnUse"><path
         style="clip-rule:evenodd"
         id="path364"
         d="M 8.871e-6,0 H 595.32001 V 841.92 H 8.871e-6 Z" /></clipPath><clipPath
       id="clipPath374"
       clipPathUnits="userSpaceOnUse"><path
         style="clip-rule:evenodd"
         id="path372"
         d="M 8.871e-6,0 H 595.32001 V 841.92 H 8.871e-6 Z" /></clipPath><clipPath
       id="clipPath382"
       clipPathUnits="userSpaceOnUse"><path
         style="clip-rule:evenodd"
         id="path380"
         d="M 8.871e-6,0 H 595.32001 V 841.92 H 8.871e-6 Z" /></clipPath><clipPath
       id="clipPath390"
       clipPathUnits="userSpaceOnUse"><path
         style="clip-rule:evenodd"
         id="path388"
         d="M 8.871e-6,0 H 595.32001 V 841.92 H 8.871e-6 Z" /></clipPath><clipPath
       id="clipPath398"
       clipPathUnits="userSpaceOnUse"><path
         style="clip-rule:evenodd"
         id="path396"
         d="M 8.871e-6,0 H 595.32001 V 841.92 H 8.871e-6 Z" /></clipPath><clipPath
       id="clipPath406"
       clipPathUnits="userSpaceOnUse"><path
         style="clip-rule:evenodd"
         id="path404"
         d="M 8.871e-6,0 H 595.32001 V 841.92 H 8.871e-6 Z" /></clipPath><clipPath
       id="clipPath414"
       clipPathUnits="userSpaceOnUse"><path
         style="clip-rule:evenodd"
         id="path412"
         d="M 8.871e-6,0 H 595.32001 V 841.92 H 8.871e-6 Z" /></clipPath><clipPath
       id="clipPath422"
       clipPathUnits="userSpaceOnUse"><path
         style="clip-rule:evenodd"
         id="path420"
         d="M 8.871e-6,0 H 595.32001 V 841.92 H 8.871e-6 Z" /></clipPath><clipPath
       id="clipPath434"
       clipPathUnits="userSpaceOnUse"><path
         style="clip-rule:evenodd"
         id="path432"
         d="M 8.871e-6,0 H 595.32001 V 841.92 H 8.871e-6 Z" /></clipPath><clipPath
       id="clipPath446"
       clipPathUnits="userSpaceOnUse"><path
         style="clip-rule:evenodd"
         id="path444"
         d="M 8.871e-6,0 H 595.32001 V 841.92 H 8.871e-6 Z" /></clipPath><clipPath
       id="clipPath458"
       clipPathUnits="userSpaceOnUse"><path
         style="clip-rule:evenodd"
         id="path456"
         d="M 8.871e-6,0 H 595.32001 V 841.92 H 8.871e-6 Z" /></clipPath><clipPath
       id="clipPath470"
       clipPathUnits="userSpaceOnUse"><path
         style="clip-rule:evenodd"
         id="path468"
         d="M 8.871e-6,0 H 595.32001 V 841.92 H 8.871e-6 Z" /></clipPath><clipPath
       id="clipPath482"
       clipPathUnits="userSpaceOnUse"><path
         style="clip-rule:evenodd"
         id="path480"
         d="M 8.871e-6,0 H 595.32001 V 841.92 H 8.871e-6 Z" /></clipPath><clipPath
       id="clipPath494"
       clipPathUnits="userSpaceOnUse"><path
         style="clip-rule:evenodd"
         id="path492"
         d="M 8.871e-6,0 H 595.32001 V 841.92 H 8.871e-6 Z" /></clipPath><clipPath
       id="clipPath502"
       clipPathUnits="userSpaceOnUse"><path
         style="clip-rule:evenodd"
         id="path500"
         d="M 8.871e-6,0 H 595.32001 V 841.92 H 8.871e-6 Z" /></clipPath><clipPath
       id="clipPath510"
       clipPathUnits="userSpaceOnUse"><path
         style="clip-rule:evenodd"
         id="path508"
         d="M 8.871e-6,0 H 595.32001 V 841.92 H 8.871e-6 Z" /></clipPath><clipPath
       id="clipPath518"
       clipPathUnits="userSpaceOnUse"><path
         style="clip-rule:evenodd"
         id="path516"
         d="M 8.871e-6,0 H 595.32001 V 841.92 H 8.871e-6 Z" /></clipPath><clipPath
       id="clipPath526"
       clipPathUnits="userSpaceOnUse"><path
         style="clip-rule:evenodd"
         id="path524"
         d="M 8.871e-6,0 H 595.32001 V 841.92 H 8.871e-6 Z" /></clipPath><clipPath
       id="clipPath534"
       clipPathUnits="userSpaceOnUse"><path
         style="clip-rule:evenodd"
         id="path532"
         d="M 8.871e-6,0 H 595.32001 V 841.92 H 8.871e-6 Z" /></clipPath><clipPath
       id="clipPath542"
       clipPathUnits="userSpaceOnUse"><path
         style="clip-rule:evenodd"
         id="path540"
         d="M 8.871e-6,0 H 595.32001 V 841.92 H 8.871e-6 Z" /></clipPath><clipPath
       id="clipPath550"
       clipPathUnits="userSpaceOnUse"><path
         style="clip-rule:evenodd"
         id="path548"
         d="M 8.871e-6,0 H 595.32001 V 841.92 H 8.871e-6 Z" /></clipPath><clipPath
       id="clipPath558"
       clipPathUnits="userSpaceOnUse"><path
         style="clip-rule:evenodd"
         id="path556"
         d="M 8.871e-6,0 H 595.32001 V 841.92 H 8.871e-6 Z" /></clipPath><clipPath
       id="clipPath566"
       clipPathUnits="userSpaceOnUse"><path
         style="clip-rule:evenodd"
         id="path564"
         d="M 8.871e-6,0 H 595.32001 V 841.92 H 8.871e-6 Z" /></clipPath><clipPath
       id="clipPath574"
       clipPathUnits="userSpaceOnUse"><path
         style="clip-rule:evenodd"
         id="path572"
         d="M 8.871e-6,0 H 595.32001 V 841.92 H 8.871e-6 Z" /></clipPath><clipPath
       id="clipPath582"
       clipPathUnits="userSpaceOnUse"><path
         style="clip-rule:evenodd"
         id="path580"
         d="M 8.871e-6,0 H 595.32001 V 841.92 H 8.871e-6 Z" /></clipPath><clipPath
       id="clipPath590"
       clipPathUnits="userSpaceOnUse"><path
         style="clip-rule:evenodd"
         id="path588"
         d="M 8.871e-6,0 H 595.32001 V 841.92 H 8.871e-6 Z" /></clipPath><clipPath
       id="clipPath598"
       clipPathUnits="userSpaceOnUse"><path
         style="clip-rule:evenodd"
         id="path596"
         d="M 8.871e-6,0 H 595.32001 V 841.92 H 8.871e-6 Z" /></clipPath><clipPath
       id="clipPath606"
       clipPathUnits="userSpaceOnUse"><path
         style="clip-rule:evenodd"
         id="path604"
         d="M 8.871e-6,0 H 595.32001 V 841.92 H 8.871e-6 Z" /></clipPath><clipPath
       id="clipPath614"
       clipPathUnits="userSpaceOnUse"><path
         style="clip-rule:evenodd"
         id="path612"
         d="M 8.871e-6,0 H 595.32001 V 841.92 H 8.871e-6 Z" /></clipPath><clipPath
       id="clipPath622"
       clipPathUnits="userSpaceOnUse"><path
         style="clip-rule:evenodd"
         id="path620"
         d="M 8.871e-6,0 H 595.32001 V 841.92 H 8.871e-6 Z" /></clipPath><clipPath
       id="clipPath630"
       clipPathUnits="userSpaceOnUse"><path
         style="clip-rule:evenodd"
         id="path628"
         d="M 8.871e-6,0 H 595.32001 V 841.92 H 8.871e-6 Z" /></clipPath><clipPath
       id="clipPath638"
       clipPathUnits="userSpaceOnUse"><path
         style="clip-rule:evenodd"
         id="path636"
         d="M 8.871e-6,0 H 595.32001 V 841.92 H 8.871e-6 Z" /></clipPath><clipPath
       id="clipPath646"
       clipPathUnits="userSpaceOnUse"><path
         style="clip-rule:evenodd"
         id="path644"
         d="M 8.871e-6,0 H 595.32001 V 841.92 H 8.871e-6 Z" /></clipPath><clipPath
       id="clipPath654"
       clipPathUnits="userSpaceOnUse"><path
         style="clip-rule:evenodd"
         id="path652"
         d="M 8.871e-6,0 H 595.32001 V 841.92 H 8.871e-6 Z" /></clipPath><clipPath
       id="clipPath666"
       clipPathUnits="userSpaceOnUse"><path
         style="clip-rule:evenodd"
         id="path664"
         d="M 8.871e-6,0 H 595.32001 V 841.92 H 8.871e-6 Z" /></clipPath><clipPath
       id="clipPath678"
       clipPathUnits="userSpaceOnUse"><path
         style="clip-rule:evenodd"
         id="path676"
         d="M 8.871e-6,0 H 595.32001 V 841.92 H 8.871e-6 Z" /></clipPath><clipPath
       id="clipPath686"
       clipPathUnits="userSpaceOnUse"><path
         style="clip-rule:evenodd"
         id="path684"
         d="M 8.871e-6,0 H 595.32001 V 841.92 H 8.871e-6 Z" /></clipPath><clipPath
       id="clipPath698"
       clipPathUnits="userSpaceOnUse"><path
         style="clip-rule:evenodd"
         id="path696"
         d="M 8.871e-6,0 H 595.32001 V 841.92 H 8.871e-6 Z" /></clipPath><clipPath
       id="clipPath706"
       clipPathUnits="userSpaceOnUse"><path
         style="clip-rule:evenodd"
         id="path704"
         d="M 8.871e-6,0 H 595.32001 V 841.92 H 8.871e-6 Z" /></clipPath><clipPath
       id="clipPath718"
       clipPathUnits="userSpaceOnUse"><path
         style="clip-rule:evenodd"
         id="path716"
         d="M 8.871e-6,0 H 595.32001 V 841.92 H 8.871e-6 Z" /></clipPath></defs><g
     transform="matrix(1.3333333,0,0,-1.3333333,0,1122.56)"
     id="g10"><g
       id="g12"><g
         clip-path="url(#clipPath18)"
         id="g14" /></g><g
       id="g20"><g
         clip-path="url(#clipPath26)"
         id="g22"><text
           id="text30"
           style="font-variant:normal;font-weight:normal;font-size:14.03999996px;font-family:ArialMT;-inkscape-font-specification:ArialMT;writing-mode:lr-tb;fill:#000000;fill-opacity:1;fill-rule:nonzero;stroke:none"
           transform="matrix(1,0,0,-1,228.41,755.62)"><tspan
             id="tspan28"
             y="0"
             x="0 9.3646803 17.170919 26.535601 35.90028 45.714241 53.997841 57.943081 67.181396 71.12664 77.851799 86.135399 94.769997 98.71524 108.79596 118.03428 121.88124 128.94336 138.30804 147.67271 157.7394 166.97772">ALBERT SILVA DE JESUS </tspan></text>
</g></g><g
       id="g32"><g
         clip-path="url(#clipPath38)"
         id="g34" /></g><g
       id="g40"><g
         clip-path="url(#clipPath46)"
         id="g42" /></g><g
       id="g48"><g
         clip-path="url(#clipPath54)"
         id="g50" /></g><g
       id="g56"><g
         clip-path="url(#clipPath62)"
         id="g58" /></g><g
       id="g64"><g
         clip-path="url(#clipPath70)"
         id="g66" /></g><g
       id="g72"><g
         clip-path="url(#clipPath78)"
         id="g74" /></g><g
       id="g80"><g
         clip-path="url(#clipPath86)"
         id="g82" /></g><g
       id="g88"><g
         clip-path="url(#clipPath94)"
         id="g90" /></g><g
       id="g96"><g
         clip-path="url(#clipPath102)"
         id="g98" /></g><g
       id="g104"><g
         clip-path="url(#clipPath110)"
         id="g106" /></g><g
       id="g112"><g
         clip-path="url(#clipPath118)"
         id="g114" /></g><g
       id="g120"><g
         clip-path="url(#clipPath126)"
         id="g122" /></g><g
       id="g128"><g
         clip-path="url(#clipPath134)"
         id="g130" /></g><g
       id="g136"><g
         clip-path="url(#clipPath142)"
         id="g138" /></g><g
       id="g144"><g
         clip-path="url(#clipPath150)"
         id="g146" /></g><g
       id="g152"><g
         clip-path="url(#clipPath158)"
         id="g154" /></g><g
       id="g160"><g
         clip-path="url(#clipPath166)"
         id="g162" /></g><g
       id="g168"><g
         clip-path="url(#clipPath174)"
         id="g170" /></g><g
       id="g176"><g
         clip-path="url(#clipPath182)"
         id="g178" /></g><g
       id="g184"><g
         clip-path="url(#clipPath190)"
         id="g186" /></g><g
       id="g192"><g
         clip-path="url(#clipPath198)"
         id="g194" /></g><g
       id="g200"><g
         clip-path="url(#clipPath206)"
         id="g202"><text
           id="text210"
           style="font-variant:normal;font-weight:bold;font-size:15.96000004px;font-family:Arial;-inkscape-font-specification:Arial-BoldMT;writing-mode:lr-tb;fill:#000000;fill-opacity:1;fill-rule:nonzero;stroke:none"
           transform="matrix(1,0,0,-1,89.184,588.7)"><tspan
             id="tspan208"
             y="0"
             x="0 10.64532 19.519079 29.270639 33.70752 43.45908 49.667519 58.668961 68.420517 78.108238 87.939598 92.37648 102.12804 111.0018 115.51848 125.27004 134.95776 144.78912 154.54068 163.49425 177.68268 186.55644 196.35588 201.67056 211.35828 220.23204 224.66891 233.54268 238.10724 246.62988 255.50365 264.37741 274.20877 283.96033 288.39719 298.19662 307.94821 312.38507 321.25885 330.1326 334.66525 344.41681 353.29056 357.80725 362.24411 371.99567 377.24652 386.12027 392.3287 402.19199 411.06577 416.38043 420.81732 430.61676 439.49051 448.36429">Explorando os Fundamentos e Tecnologias da Internet das </tspan></text>
</g></g><g
       id="g212"><g
         clip-path="url(#clipPath218)"
         id="g214"><text
           id="text222"
           style="font-variant:normal;font-weight:bold;font-size:15.96000004px;font-family:Arial;-inkscape-font-specification:Arial-BoldMT;writing-mode:lr-tb;fill:#000000;fill-opacity:1;fill-rule:nonzero;stroke:none"
           transform="matrix(1,0,0,-1,287.59,560.95)"><tspan
             id="tspan220"
             y="0"
             x="0 11.52312 21.274679 25.711559 34.58532 43.45908 52.33284">Coisas </tspan></text>
</g></g><g
       id="g224"><g
         clip-path="url(#clipPath230)"
         id="g226" /></g><g
       id="g232"><g
         clip-path="url(#clipPath238)"
         id="g234"><text
           id="text242"
           style="font-variant:normal;font-weight:bold;font-size:14.03999996px;font-family:Arial;-inkscape-font-specification:Arial-BoldMT;writing-mode:lr-tb;fill:#000000;fill-opacity:1;fill-rule:nonzero;stroke:none"
           transform="matrix(1,0,0,-1,93.984,535.39)"><tspan
             id="tspan240"
             y="0"
             x="0 10.08072 17.886959 21.832199 29.638439 34.313759 42.83604 48.24144 52.18668 60.708961 64.654198 73.176483 80.982719 88.788963 97.297203 101.24244 109.04868 117.4446 121.29156 129.09779 137.60603 146.12833 151.632 159.43823 162.79379 172.87453 178.3782 186.90048 195.42276 199.368 204.04332 211.84956 216.52489 225.04716 230.55084 238.23071 242.07768 246.02292 255.3876 260.89127 269.41357 274.08887 282.61115 290.41739 298.92563 302.87088 311.39316 319.07303 323.01828 331.54056 339.3468 343.29205 353.37277 361.76868 374.25024 382.77252 391.2948 395.24005 403.0463 410.85251 418.65875 426.465 434.9592 438.80615">Relatório Técnico sobre Arquitetura, Protocolos de Comunicação, </tspan></text>
</g></g><g
       id="g244"><g
         clip-path="url(#clipPath250)"
         id="g246"><text
           id="text254"
           style="font-variant:normal;font-weight:bold;font-size:14.03999996px;font-family:Arial;-inkscape-font-specification:Arial-BoldMT;writing-mode:lr-tb;fill:#000000;fill-opacity:1;fill-rule:nonzero;stroke:none"
           transform="matrix(1,0,0,-1,135.02,511.51)"><tspan
             id="tspan252"
             y="0"
             x="0 9.3646803 17.170919 25.679159 34.201439 39.70512 47.51136 56.0196 63.82584 71.63208 75.464996 79.41024 89.490959 97.297203 102.80088 111.32316 122.11992 129.92616 135.42984 143.23608 147.069 154.87524 158.82048 168.9012 177.42348 189.90504 198.42732 206.9496 211.62492 219.43117 227.2374 235.04364 243.55188 247.49712 255.30336 267.65857 271.60379 281.68451 290.20679 295.71048 304.23276 312.039 315.98425 324.50653 332.31277 336.14569 340.09091 348.61319">Segurança, Hardware e Computação em Borda na IoT</tspan></text>
</g></g><g
       id="g256"><g
         clip-path="url(#clipPath262)"
         id="g258" /></g><g
       id="g264"><g
         clip-path="url(#clipPath270)"
         id="g266" /></g><g
       id="g272"><g
         clip-path="url(#clipPath278)"
         id="g274" /></g><g
       id="g280"><g
         clip-path="url(#clipPath286)"
         id="g282" /></g><g
       id="g288"><g
         clip-path="url(#clipPath294)"
         id="g290" /></g><g
       id="g296"><g
         clip-path="url(#clipPath302)"
         id="g298" /></g><g
       id="g304"><g
         clip-path="url(#clipPath310)"
         id="g306" /></g><g
       id="g312"><g
         clip-path="url(#clipPath318)"
         id="g314" /></g><g
       id="g320"><g
         clip-path="url(#clipPath326)"
         id="g322" /></g><g
       id="g328"><g
         clip-path="url(#clipPath334)"
         id="g330" /></g><g
       id="g336"><g
         clip-path="url(#clipPath342)"
         id="g338" /></g><g
       id="g344"><g
         clip-path="url(#clipPath350)"
         id="g346" /></g><g
       id="g352"><g
         clip-path="url(#clipPath358)"
         id="g354" /></g><g
       id="g360"><g
         clip-path="url(#clipPath366)"
         id="g362" /></g><g
       id="g368"><g
         clip-path="url(#clipPath374)"
         id="g370" /></g><g
       id="g376"><g
         clip-path="url(#clipPath382)"
         id="g378" /></g><g
       id="g384"><g
         clip-path="url(#clipPath390)"
         id="g386" /></g><g
       id="g392"><g
         clip-path="url(#clipPath398)"
         id="g394" /></g><g
       id="g400"><g
         clip-path="url(#clipPath406)"
         id="g402" /></g><g
       id="g408"><g
         clip-path="url(#clipPath414)"
         id="g410" /></g><g
       id="g416"><g
         clip-path="url(#clipPath422)"
         id="g418"><text
           id="text426"
           style="font-variant:normal;font-weight:normal;font-size:11.03999996px;font-family:ArialMT;-inkscape-font-specification:ArialMT;writing-mode:lr-tb;fill:#000000;fill-opacity:1;fill-rule:nonzero;stroke:none"
           transform="matrix(1,0,0,-1,333.31,354.17)"><tspan
             id="tspan424"
             y="0"
             x="0 7.9156799 14.05392 16.43856 22.576799 25.64592 31.784161 35.504639 37.900318 44.038559 57.573601 64.319038 70.413116 75.933121 82.071358 84.456001 89.975998 96.114243 110.00256 116.1408 122.12448 125.83392 131.97215 137.49216 143.59727 149.73552 152.80464 158.94289 165.08112 171.07584 184.98624 191.12448 197.2296 199.62527 205.62">Relatório Técnico apresentado pelo </tspan></text>
</g></g><g
       id="g428"><g
         clip-path="url(#clipPath434)"
         id="g430"><text
           id="text438"
           style="font-variant:normal;font-weight:normal;font-size:11.03999996px;font-family:ArialMT;-inkscape-font-specification:ArialMT;writing-mode:lr-tb;fill:#000000;fill-opacity:1;fill-rule:nonzero;stroke:none"
           transform="matrix(1,0,0,-1,333.31,335.33)"><tspan
             id="tspan436"
             y="0"
             x="0 6.1382399 8.5228796 14.04288 19.56288 25.70112 31.80624 34.919521 41.057758 48.465599 55.785118 58.180801 64.319038 70.424156 74.133598 77.24688 85.75872 93.078239 95.473923 97.869598 103.3896 109.38432 117.77472 123.91296 130.01808 138.52992 144.04993 150.18816 155.70816 161.81328 167.21184 170.21472 178.72656 184.24657 190.24129 199.47072 205.60896">discente Albert Silva de Jesus, como </tspan></text>
</g></g><g
       id="g440"><g
         clip-path="url(#clipPath446)"
         id="g442"><text
           id="text450"
           style="font-variant:normal;font-weight:normal;font-size:11.03999996px;font-family:ArialMT;-inkscape-font-specification:ArialMT;writing-mode:lr-tb;fill:#000000;fill-opacity:1;fill-rule:nonzero;stroke:none"
           transform="matrix(1,0,0,-1,333.31,316.49)"><tspan
             id="tspan448"
             y="0"
             x="0 3.70944 9.8476801 15.9528 22.09104 24.475679 29.99568 32.391361 35.504639 41.642879 53.135521 59.273762 65.378883 69.088318 74.608322 77.003998 83.142242 85.526878 97.030563 103.1688 109.27392 112.98336 118.97808 130.48177 136.62 142.72511 146.43456 152.5728 158.0928 164.19792 169.71793 175.85616 181.96127 193.46497 199.6032 205.58688">requisito parcial para aprovação na </tspan></text>
</g></g><g
       id="g452"><g
         clip-path="url(#clipPath458)"
         id="g454"><text
           id="text462"
           style="font-variant:normal;font-weight:normal;font-size:11.03999996px;font-family:ArialMT;-inkscape-font-specification:ArialMT;writing-mode:lr-tb;fill:#000000;fill-opacity:1;fill-rule:nonzero;stroke:none"
           transform="matrix(1,0,0,-1,333.31,297.53)"><tspan
             id="tspan460"
             y="0"
             x="0 6.1382399 8.5228796 14.04288 19.56288 21.958561 28.0968 30.48144 32.877121 39.015362 45.12048 50.265121 57.010559 63.104641 69.242882 71.627518 77.147522 83.285759 88.894081 93.321121 100.5192 106.0392 112.17744 118.28256 123.80256 129.9408 136.04591 142.18416 147.70416 153.19104 159.18576 168.41521 173.92416 181.83984 187.97807 194.08321 200.22144 205.59792">disciplina Tópicos Avançados em Redes </tspan></text>
</g></g><g
       id="g464"><g
         clip-path="url(#clipPath470)"
         id="g466"><text
           id="text474"
           style="font-variant:normal;font-weight:normal;font-size:11.03999996px;font-family:ArialMT;-inkscape-font-specification:ArialMT;writing-mode:lr-tb;fill:#000000;fill-opacity:1;fill-rule:nonzero;stroke:none"
           transform="matrix(1,0,0,-1,333.31,278.69)"><tspan
             id="tspan472"
             y="0"
             x="0 6.1382399 12.24336 15.1248 23.04048 29.17872 38.375038 44.513279 50.65152 53.753761 59.891998 65.997124 71.991837 75.701279 81.839523 87.35952 90.097443 93.806877 96.809761 105.44304 112.18848 115.76544 118.52544 124.04544 130.18369 136.2888 139.17024 145.30849 148.9848 151.43568 157.52975 163.668 166.73712 172.87537 178.39536 184.5336 190.52832 193.40976 199.548 205.65312">de Computadores (IOT) sob orientação do </tspan></text>
</g></g><g
       id="g476"><g
         clip-path="url(#clipPath482)"
         id="g478"><text
           id="text486"
           style="font-variant:normal;font-weight:normal;font-size:11.03999996px;font-family:ArialMT;-inkscape-font-specification:ArialMT;writing-mode:lr-tb;fill:#000000;fill-opacity:1;fill-rule:nonzero;stroke:none"
           transform="matrix(1,0,0,-1,333.31,259.85)"><tspan
             id="tspan484"
             y="0"
             x="0 6.1382399 12.24336 17.763359 23.9016 30.00672 33.119999 39.25824 42.327358 49.0728 55.21104 57.59568 59.99136 66.129601 72.234718 75.348 81.486237 87.469917 90.583199 97.902718 104.04096 110.14608 115.66608 121.6608 124.77408 132.0936 134.48927 136.88496 142.40495 148.5432">docente Felipe de Souza Silva.</tspan></text>
</g></g><g
       id="g488"><g
         clip-path="url(#clipPath494)"
         id="g490" /></g><g
       id="g496"><g
         clip-path="url(#clipPath502)"
         id="g498" /></g><g
       id="g504"><g
         clip-path="url(#clipPath510)"
         id="g506" /></g><g
       id="g512"><g
         clip-path="url(#clipPath518)"
         id="g514" /></g><g
       id="g520"><g
         clip-path="url(#clipPath526)"
         id="g522" /></g><g
       id="g528"><g
         clip-path="url(#clipPath534)"
         id="g530" /></g><g
       id="g536"><g
         clip-path="url(#clipPath542)"
         id="g538" /></g><g
       id="g544"><g
         clip-path="url(#clipPath550)"
         id="g546" /></g><g
       id="g552"><g
         clip-path="url(#clipPath558)"
         id="g554" /></g><g
       id="g560"><g
         clip-path="url(#clipPath566)"
         id="g562" /></g><g
       id="g568"><g
         clip-path="url(#clipPath574)"
         id="g570" /></g><g
       id="g576"><g
         clip-path="url(#clipPath582)"
         id="g578" /></g><g
       id="g584"><g
         clip-path="url(#clipPath590)"
         id="g586" /></g><g
       id="g592"><g
         clip-path="url(#clipPath598)"
         id="g594" /></g><g
       id="g600"><g
         clip-path="url(#clipPath606)"
         id="g602" /></g><g
       id="g608"><g
         clip-path="url(#clipPath614)"
         id="g610" /></g><g
       id="g616"><g
         clip-path="url(#clipPath622)"
         id="g618" /></g><g
       id="g624"><g
         clip-path="url(#clipPath630)"
         id="g626" /></g><g
       id="g632"><g
         clip-path="url(#clipPath638)"
         id="g634" /></g><g
       id="g640"><g
         clip-path="url(#clipPath646)"
         id="g642" /></g><g
       id="g648"><g
         clip-path="url(#clipPath654)"
         id="g650"><text
           id="text658"
           style="font-variant:normal;font-weight:normal;font-size:12px;font-family:ArialMT;-inkscape-font-specification:ArialMT;writing-mode:lr-tb;fill:#000000;fill-opacity:1;fill-rule:nonzero;stroke:none"
           transform="matrix(1,0,0,-1,228.17,97.944)"><tspan
             id="tspan656"
             y="0"
             x="0 8.0279999 14.736 21.444 24.684 31.392 34.032001 42.060001 48.768002 52.007999 58.716 65.424004 68.087997 74.760002 78.024002 84.732002 91.440002 94.776001 100.68 107.388 113.388 119.988 125.988">Santo Antônio de Jesus </tspan></text>
</g></g><g
       id="g660"><g
         clip-path="url(#clipPath666)"
         id="g662"><text
           id="text670"
           style="font-variant:normal;font-weight:normal;font-size:12px;font-family:ArialMT;-inkscape-font-specification:ArialMT;writing-mode:lr-tb;fill:#000000;fill-opacity:1;fill-rule:nonzero;stroke:none"
           transform="matrix(1,0,0,-1,357.67,97.944)"><tspan
             id="tspan668"
             y="0"
             x="0">-</tspan></text>
</g></g><g
       id="g672"><g
         clip-path="url(#clipPath678)"
         id="g674" /></g><g
       id="g680"><g
         clip-path="url(#clipPath686)"
         id="g682"><text
           id="text690"
           style="font-variant:normal;font-weight:normal;font-size:12px;font-family:ArialMT;-inkscape-font-specification:ArialMT;writing-mode:lr-tb;fill:#000000;fill-opacity:1;fill-rule:nonzero;stroke:none"
           transform="matrix(1,0,0,-1,364.99,97.944)"><tspan
             id="tspan688"
             y="0"
             x="0 8.0279999 14.736 21.444 24.108 30.684">Bahia </tspan></text>
</g></g><g
       id="g692"><g
         clip-path="url(#clipPath698)"
         id="g694" /></g><g
       id="g700"><g
         clip-path="url(#clipPath706)"
         id="g702"><text
           id="text710"
           style="font-variant:normal;font-weight:normal;font-size:12px;font-family:ArialMT;-inkscape-font-specification:ArialMT;writing-mode:lr-tb;fill:#000000;fill-opacity:1;fill-rule:nonzero;stroke:none"
           transform="matrix(1,0,0,-1,298.63,77.184)"><tspan
             id="tspan708"
             y="0"
             x="0 6.7080002 13.416 20.016001 26.724001">2025 </tspan></text>
</g></g><g
       id="g712"><g
         clip-path="url(#clipPath718)"
         id="g714" /></g></g></svg>