<?xml version="1.0" standalone="no"?>
<!DOCTYPE svg PUBLIC "-//W3C//DTD SVG 20010904//EN"
 "http://www.w3.org/TR/2001/REC-SVG-20010904/DTD/svg10.dtd">
<svg version="1.0" xmlns="http://www.w3.org/2000/svg"
 width="642.000000pt" height="907.000000pt" viewBox="0 0 642.000000 907.000000"
 preserveAspectRatio="xMidYMid meet">

<g transform="translate(0.000000,907.000000) scale(0.100000,-0.100000)"
fill="#000000" stroke="none">
<path d="M2453 8188 c-20 -52 -21 -80 -2 -45 12 21 59 23 59 2 0 -8 5 -15 10
-15 13 0 13 -4 -9 55 -10 27 -23 51 -28 52 -6 2 -19 -20 -30 -49z m46 -10 c1
-5 -6 -8 -14 -8 -15 0 -21 31 -8 44 7 6 20 -17 22 -36z"/>
<path d="M2552 8188 l-2 -58 33 1 c29 2 30 2 5 6 -25 4 -27 9 -31 56 l-3 52
-2 -57z"/>
<path d="M2630 8186 l0 -56 34 0 c37 0 63 22 49 42 -4 7 -8 24 -8 38 0 22 -5
25 -37 28 l-38 3 0 -55z m58 27 c-5 -26 -38 -29 -38 -4 0 15 6 21 21 21 14 0
19 -5 17 -17z m7 -53 c0 -8 -10 -16 -22 -18 -18 -3 -23 2 -23 18 0 16 5 21 23
18 12 -2 22 -10 22 -18z"/>
<path d="M2740 8185 l0 -55 43 2 42 1 -37 4 c-29 3 -38 9 -38 23 0 13 9 20 28
23 l27 4 -27 2 c-21 1 -28 6 -28 20 0 15 8 21 33 24 31 4 31 4 -5 5 l-38 2 0
-55z"/>
<path d="M2840 8185 c0 -30 5 -55 10 -55 6 0 10 9 10 20 0 11 6 20 13 20 7 0
18 -9 25 -20 7 -11 17 -20 24 -20 6 0 3 8 -7 20 -16 18 -16 20 -1 35 9 9 16
20 16 24 0 17 -26 31 -57 31 l-33 0 0 -55z m67 29 c6 -16 -12 -34 -34 -34 -7
0 -13 11 -13 25 0 18 5 25 20 25 11 0 23 -7 27 -16z"/>
<path d="M2953 8233 c13 -3 17 -15 17 -54 0 -27 5 -49 10 -49 6 0 10 22 10 49
0 39 4 51 18 54 9 3 -3 5 -28 5 -25 0 -37 -2 -27 -5z"/>
<path d="M3092 8228 c-19 -19 -14 -28 24 -44 42 -18 40 -40 -5 -38 -17 1 -28
-2 -25 -7 9 -15 60 -10 74 6 16 19 0 40 -35 49 -14 4 -25 14 -25 22 0 13 7 15
30 10 19 -3 29 -2 25 4 -9 14 -49 12 -63 -2z"/>
<path d="M3193 8185 c0 -33 2 -45 4 -27 2 18 2 45 0 60 -2 15 -4 0 -4 -33z"/>
<path d="M3230 8185 l0 -55 38 1 c30 2 32 3 10 6 -26 4 -28 8 -28 54 0 27 -4
49 -10 49 -5 0 -10 -25 -10 -55z"/>
<path d="M3310 8236 c0 -22 36 -106 45 -106 6 0 19 23 28 52 17 55 15 81 -3
32 -26 -72 -26 -72 -40 -29 -12 38 -30 68 -30 51z"/>
<path d="M3445 8228 c-26 -73 -33 -98 -25 -98 6 0 10 7 10 15 0 21 47 19 59
-2 19 -35 18 -7 -2 45 -19 51 -33 64 -42 40z m25 -39 c0 -11 -7 -19 -16 -19
-11 0 -14 5 -10 16 3 9 6 20 6 25 0 6 5 7 10 4 6 -3 10 -15 10 -26z"/>
<path d="M3560 8185 l0 -55 33 0 c41 0 57 15 57 55 0 40 -16 55 -57 55 l-33 0
0 -55z m68 33 c27 -27 7 -78 -30 -78 -15 0 -18 8 -18 45 0 37 3 45 18 45 10 0
23 -5 30 -12z"/>
<path d="M3680 8185 l0 -55 43 2 42 1 -37 4 c-29 3 -38 9 -38 23 0 13 9 20 28
23 l27 4 -27 2 c-21 1 -28 6 -28 20 0 15 8 21 33 24 31 4 31 4 -5 5 l-38 2 0
-55z"/>
<path d="M3858 8234 c-5 -4 -8 -27 -8 -50 0 -36 -3 -43 -22 -47 -20 -4 -19 -4
5 -6 15 0 30 5 33 13 8 20 0 99 -8 90z"/>
<path d="M3900 8185 l0 -55 43 2 c36 1 38 2 10 5 -40 5 -47 39 -10 46 l22 4
-22 2 c-38 2 -30 39 10 44 28 3 26 4 -10 5 l-43 2 0 -55z"/>
<path d="M4007 8233 c-16 -15 -5 -34 28 -50 43 -20 40 -39 -5 -36 -21 1 -29
-2 -22 -9 5 -5 22 -8 38 -6 21 2 30 9 32 25 3 17 -5 26 -33 37 -43 18 -38 41
7 32 18 -3 27 -2 23 4 -7 11 -58 14 -68 3z"/>
<path d="M4100 8204 c0 -19 5 -44 10 -55 12 -21 50 -25 68 -7 14 14 16 98 2
98 -5 0 -10 -23 -10 -51 0 -47 -2 -50 -22 -47 -20 3 -23 10 -26 51 -4 54 -22
64 -22 11z"/>
<path d="M4217 8233 c-16 -15 -5 -35 29 -49 43 -18 40 -40 -6 -37 -21 1 -29
-2 -22 -9 5 -5 22 -8 38 -6 21 2 30 9 32 26 3 18 -3 25 -27 33 -42 15 -42 44
-1 35 19 -3 29 -2 25 4 -7 11 -58 14 -68 3z"/>
<path d="M1230 6335 c0 -37 4 -65 10 -65 6 0 10 28 10 65 0 37 -4 65 -10 65
-6 0 -10 -28 -10 -65z"/>
<path d="M1720 6379 c0 -15 -5 -19 -15 -15 -16 6 -55 -26 -55 -45 0 -29 22
-49 55 -49 l35 0 0 65 c0 37 -4 65 -10 65 -5 0 -10 -9 -10 -21z m-2 -62 c3
-22 -1 -27 -17 -27 -15 0 -21 6 -21 23 0 46 33 49 38 4z"/>
<path d="M2560 6379 c0 -15 -5 -19 -15 -15 -16 6 -55 -26 -55 -45 0 -29 22
-49 55 -49 l35 0 0 65 c0 37 -4 65 -10 65 -5 0 -10 -9 -10 -21z m-2 -62 c3
-22 -1 -27 -17 -27 -15 0 -21 6 -21 23 0 46 33 49 38 4z"/>
<path d="M4040 6335 c0 -37 4 -65 10 -65 6 0 10 28 10 65 0 37 -4 65 -10 65
-6 0 -10 -28 -10 -65z"/>
<path d="M4310 6390 c0 -5 5 -10 10 -10 6 0 10 5 10 10 0 6 -4 10 -10 10 -5 0
-10 -4 -10 -10z"/>
<path d="M4660 6379 c0 -15 -5 -19 -19 -14 -38 12 -69 -53 -39 -83 7 -7 27
-12 45 -12 l33 0 0 65 c0 37 -4 65 -10 65 -5 0 -10 -9 -10 -21z m-5 -60 c0
-15 -7 -25 -17 -27 -13 -3 -18 3 -18 21 0 13 3 27 7 31 13 12 28 -1 28 -25z"/>
<path d="M5603 6380 c-3 -12 -11 -19 -17 -17 -20 8 -46 -13 -46 -38 0 -44 10
-55 51 -55 l39 0 0 65 c0 64 -16 89 -27 45z m-5 -63 c2 -18 -1 -27 -11 -27
-18 0 -29 24 -20 45 8 23 28 12 31 -18z"/>
<path d="M910 6330 l0 -60 45 0 c25 0 45 5 45 10 0 6 -13 10 -30 10 -20 0 -30
5 -30 15 0 8 9 15 20 15 11 0 20 5 20 10 0 6 -9 10 -20 10 -13 0 -20 7 -20 19
0 15 8 21 33 24 24 3 21 4 -15 5 l-48 2 0 -60z"/>
<path d="M2180 6330 c0 -47 3 -60 15 -60 9 0 15 9 15 25 0 18 5 25 20 25 11 0
20 5 20 10 0 6 -9 10 -20 10 -33 0 -26 38 8 43 19 3 14 4 -15 6 l-43 1 0 -60z"/>
<path d="M3533 6383 c13 -4 17 -15 17 -59 0 -41 4 -54 15 -54 11 0 15 13 15
54 0 49 2 55 23 59 12 2 -3 4 -33 4 -30 1 -47 -1 -37 -4z"/>
<path d="M4850 6330 c0 -47 3 -60 15 -60 12 0 15 13 15 60 0 47 -3 60 -15 60
-12 0 -15 -13 -15 -60z"/>
<path d="M3059 6368 c-5 -54 9 -98 31 -98 11 0 20 5 20 10 0 6 -5 10 -11 10
-6 0 -10 15 -9 33 3 50 1 57 -15 57 -8 0 -16 -6 -16 -12z"/>
<path d="M5007 6372 c-3 -4 -3 -28 0 -55 5 -37 9 -47 24 -47 11 0 19 5 19 10
0 6 -4 10 -10 10 -5 0 -10 14 -10 30 0 17 5 30 11 30 6 0 4 7 -5 15 -16 17
-23 18 -29 7z"/>
<path d="M5437 6372 c-3 -4 -3 -28 0 -55 5 -37 9 -47 24 -47 11 0 19 5 19 10
0 6 -4 10 -10 10 -5 0 -10 14 -10 30 0 17 5 30 11 30 6 0 4 7 -5 15 -16 17
-23 18 -29 7z"/>
<path d="M1143 6363 c-21 -4 -23 -10 -23 -69 0 -50 3 -64 15 -64 8 0 15 9 15
20 0 14 7 20 24 20 39 0 52 71 17 90 -11 5 -21 9 -23 9 -2 -1 -13 -4 -25 -6z
m39 -30 c7 -25 -1 -43 -18 -43 -9 0 -14 11 -14 30 0 33 24 42 32 13z"/>
<path d="M1290 6350 c-23 -23 -24 -33 -10 -61 12 -22 59 -26 78 -7 19 19 14
55 -10 72 -29 20 -34 20 -58 -4z m45 -36 c0 -19 -5 -29 -15 -29 -16 0 -25 28
-16 51 10 25 31 10 31 -22z"/>
<path d="M1403 6362 c-20 -3 -23 -10 -23 -48 0 -32 4 -44 15 -44 10 0 15 11
15 35 0 21 6 37 16 43 20 11 7 19 -23 14z"/>
<path d="M1464 6354 c-18 -15 -18 -15 9 -9 34 7 35 -8 1 -24 -38 -17 -28 -45
19 -49 l37 -3 0 40 c0 30 -5 43 -19 51 -25 13 -24 13 -47 -6z m36 -52 c0 -13
-12 -22 -22 -16 -10 6 -1 24 13 24 5 0 9 -4 9 -8z"/>
<path d="M1578 6363 c-26 -4 -28 -8 -28 -49 0 -32 4 -44 14 -44 10 0 16 13 18
38 2 20 8 37 13 37 6 0 11 -17 13 -37 4 -53 32 -52 32 0 0 34 -15 64 -29 61
-4 -1 -18 -4 -33 -6z"/>
<path d="M1782 6354 c-24 -17 -29 -53 -10 -72 19 -19 66 -15 78 7 14 28 13 38
-10 61 -24 24 -29 24 -58 4z m43 -40 c0 -19 -5 -29 -15 -29 -16 0 -25 28 -16
51 10 25 31 10 31 -22z"/>
<path d="M1936 6357 c-12 -9 -17 -23 -14 -47 3 -30 7 -35 31 -38 37 -4 57 13
57 49 0 22 -6 32 -26 39 -31 12 -27 13 -48 -3z m48 -23 c3 -8 1 -24 -5 -35 -8
-16 -13 -18 -25 -8 -15 12 -19 41 -7 52 11 12 31 7 37 -9z"/>
<path d="M2047 6362 c-27 -6 -18 -46 11 -50 12 -2 22 -10 22 -19 0 -12 -6 -14
-27 -8 -21 5 -25 4 -17 -5 17 -18 68 -8 72 13 3 13 -6 22 -27 30 -37 14 -42
32 -6 23 14 -4 25 -2 25 3 0 11 -29 18 -53 13z"/>
<path d="M2418 6363 c-26 -4 -28 -8 -28 -49 0 -24 5 -44 10 -44 6 0 10 15 10
34 0 20 6 36 14 39 20 8 26 -2 26 -40 0 -23 5 -33 15 -33 21 0 20 64 -1 84 -8
9 -16 15 -17 15 -1 -1 -14 -4 -29 -6z"/>
<path d="M2628 6363 c-10 -2 -18 -9 -18 -15 0 -5 7 -7 16 -4 31 12 36 -7 5
-20 -45 -19 -39 -48 12 -52 37 -3 37 -3 37 35 0 35 -14 65 -29 62 -4 -1 -14
-3 -23 -6z m30 -65 c-6 -18 -28 -21 -28 -4 0 9 7 16 16 16 9 0 14 -5 12 -12z"/>
<path d="M2728 6362 c-26 -3 -28 -7 -28 -48 0 -32 4 -44 14 -44 10 0 16 13 18
38 2 20 8 37 13 37 6 0 11 -17 13 -37 4 -44 22 -52 22 -9 0 16 7 34 15 41 13
11 15 7 15 -29 0 -30 4 -41 15 -41 18 0 21 75 3 86 -12 8 -59 11 -100 6z"/>
<path d="M2868 6351 c-19 -16 -21 -23 -13 -47 8 -23 17 -29 39 -29 16 0 31 6
34 13 3 11 0 12 -16 3 -19 -10 -32 -6 -32 11 0 4 14 8 30 8 29 0 38 13 22 36
-14 21 -41 23 -64 5z m42 -16 c0 -8 -7 -15 -15 -15 -16 0 -20 12 -8 23 11 12
23 8 23 -8z"/>
<path d="M2983 6362 c-32 -3 -33 -5 -33 -48 0 -32 4 -44 15 -44 10 0 15 10 15
34 0 20 6 36 14 39 20 8 26 -2 26 -40 0 -18 5 -33 10 -33 15 0 12 87 -2 92 -7
2 -28 2 -45 0z"/>
<path d="M3142 6359 c-19 -7 -23 -15 -20 -40 4 -38 26 -54 61 -45 23 5 27 12
27 41 0 24 -6 37 -19 45 -23 12 -19 12 -49 -1z m46 -35 c2 -11 -4 -26 -12 -33
-12 -10 -17 -9 -25 8 -6 11 -8 27 -5 36 9 22 38 14 42 -11z"/>
<path d="M3247 6362 c-27 -6 -18 -46 11 -50 12 -2 22 -10 22 -19 0 -12 -6 -14
-27 -8 -21 5 -25 4 -17 -5 17 -18 68 -8 72 13 3 13 -6 22 -27 30 -37 14 -42
32 -6 23 14 -4 25 -2 25 3 0 11 -29 18 -53 13z"/>
<path d="M3398 6362 c-22 -4 -35 -49 -21 -71 12 -20 51 -27 66 -12 15 15 0 26
-16 13 -8 -7 -17 -9 -20 -5 -15 14 -6 23 23 23 33 0 35 3 20 29 -11 22 -28 29
-52 23z m30 -30 c2 -7 -3 -12 -12 -12 -9 0 -16 7 -16 16 0 17 22 14 28 -4z"/>
<path d="M3646 6357 c-27 -20 -18 -81 12 -85 31 -5 55 5 47 18 -5 8 -11 7 -20
0 -15 -12 -35 -6 -35 11 0 5 14 9 30 9 23 0 30 4 30 20 0 10 -9 24 -19 30 -24
13 -24 13 -45 -3z m34 -22 c0 -8 -4 -15 -9 -15 -13 0 -22 16 -14 24 11 11 23
6 23 -9z"/>
<path d="M3739 6351 c-20 -16 -22 -23 -14 -47 8 -22 18 -30 41 -32 21 -2 33 2
37 12 7 19 -14 21 -31 4 -9 -9 -13 -8 -18 5 -12 33 0 52 31 49 29 -2 29 -2 11
13 -25 19 -29 19 -57 -4z"/>
<path d="M3853 6362 c-32 -3 -33 -5 -33 -48 0 -32 4 -44 15 -44 10 0 15 10 15
34 0 20 6 36 14 39 20 8 26 -2 26 -40 0 -18 5 -33 10 -33 15 0 12 87 -2 92 -7
2 -28 2 -45 0z"/>
<path d="M3952 6359 c-19 -7 -23 -15 -20 -40 4 -38 26 -54 61 -45 23 5 27 12
27 41 0 24 -6 37 -19 45 -23 12 -19 12 -49 -1z m46 -35 c2 -11 -4 -26 -12 -33
-12 -10 -17 -9 -25 8 -6 11 -8 27 -5 36 9 22 38 14 42 -11z"/>
<path d="M4100 6350 c-23 -23 -24 -33 -10 -61 12 -22 59 -26 78 -7 19 19 14
55 -10 72 -29 20 -34 20 -58 -4z m45 -36 c0 -19 -5 -29 -15 -29 -16 0 -25 28
-16 51 10 25 31 10 31 -22z"/>
<path d="M4218 6362 c-22 -4 -35 -49 -21 -71 6 -9 22 -17 37 -19 35 -4 28 -28
-8 -25 -31 2 -35 -12 -4 -20 42 -11 58 8 58 72 0 53 -2 59 -22 63 -13 2 -31 2
-40 0z m40 -45 c3 -22 -1 -27 -17 -27 -15 0 -21 6 -21 23 0 46 33 49 38 4z"/>
<path d="M4364 6354 c-18 -15 -18 -15 9 -9 33 7 36 -6 5 -20 -13 -6 -24 -20
-26 -32 -3 -21 1 -23 37 -23 40 0 41 1 41 34 0 31 -20 66 -39 66 -4 0 -16 -7
-27 -16z m32 -59 c-3 -9 -11 -13 -16 -10 -8 5 -7 11 1 21 14 18 24 11 15 -11z"/>
<path d="M4467 6362 c-27 -6 -18 -46 11 -50 12 -2 22 -10 22 -19 0 -12 -6 -14
-27 -8 -21 5 -25 4 -17 -5 17 -18 68 -8 72 13 3 13 -6 22 -27 30 -37 14 -42
32 -6 23 14 -4 25 -2 25 3 0 11 -29 18 -53 13z"/>
<path d="M4714 6354 c-18 -15 -18 -15 9 -9 34 7 35 -8 1 -24 -38 -17 -28 -45
19 -49 l37 -3 0 40 c0 30 -5 43 -19 51 -25 13 -24 13 -47 -6z m36 -52 c0 -13
-12 -22 -22 -16 -10 6 -1 24 13 24 5 0 9 -4 9 -8z"/>
<path d="M4928 6363 c-26 -4 -28 -8 -28 -49 0 -32 4 -44 14 -44 10 0 16 13 18
38 2 20 8 37 13 37 6 0 11 -17 13 -37 4 -53 32 -52 32 0 0 34 -15 64 -29 61
-4 -1 -18 -4 -33 -6z"/>
<path d="M5078 6359 c-18 -10 -23 -44 -12 -73 7 -18 59 -22 69 -5 11 17 -3 23
-21 9 -13 -12 -17 -11 -24 1 -7 11 -3 15 20 17 35 4 42 35 11 52 -23 12 -22
12 -43 -1z m34 -24 c0 -5 -5 -11 -11 -13 -6 -2 -11 4 -11 13 0 9 5 15 11 13 6
-2 11 -8 11 -13z"/>
<path d="M5183 6362 c-20 -3 -23 -10 -23 -48 0 -24 5 -44 10 -44 6 0 10 13 10
29 0 19 8 35 21 44 23 17 15 25 -18 19z"/>
<path d="M5258 6363 c-26 -4 -28 -8 -28 -49 0 -32 4 -44 14 -44 10 0 16 13 18
38 2 20 8 37 13 37 6 0 11 -17 13 -37 4 -53 32 -52 32 0 0 34 -15 64 -29 61
-4 -1 -18 -4 -33 -6z"/>
<path d="M5348 6351 c-19 -16 -21 -23 -13 -47 8 -23 17 -29 39 -29 16 0 31 6
34 13 3 11 0 12 -16 3 -19 -10 -32 -6 -32 11 0 4 14 8 30 8 29 0 38 13 22 36
-14 21 -41 23 -64 5z m42 -16 c0 -8 -7 -15 -15 -15 -16 0 -20 12 -8 23 11 12
23 8 23 -8z"/>
<path d="M5664 6354 c-18 -15 -18 -15 9 -9 33 7 36 -6 5 -20 -13 -6 -24 -20
-26 -32 -3 -21 1 -23 37 -23 40 0 41 1 41 34 0 31 -20 66 -39 66 -4 0 -16 -7
-27 -16z m32 -59 c-3 -9 -11 -13 -16 -10 -8 5 -7 11 1 21 14 18 24 11 15 -11z"/>
<path d="M5767 6362 c-27 -6 -18 -46 11 -50 12 -2 22 -10 22 -19 0 -12 -6 -14
-27 -8 -21 5 -25 4 -17 -5 17 -18 68 -8 72 13 3 13 -6 22 -27 30 -37 14 -42
32 -6 23 14 -4 25 -2 25 3 0 11 -29 18 -53 13z"/>
<path d="M1032 6335 c9 -19 9 -28 0 -37 -7 -7 -12 -16 -12 -20 0 -14 22 -8 36
10 13 16 13 16 14 0 0 -10 7 -18 15 -18 18 0 19 12 3 28 -9 9 -9 18 0 37 10
21 9 25 -3 25 -8 0 -15 -5 -15 -12 0 -9 -3 -9 -12 0 -7 7 -18 12 -25 12 -10 0
-10 -5 -1 -25z"/>
<path d="M2282 6318 c3 -43 3 -43 46 -46 l42 -3 0 45 c0 34 -4 46 -15 46 -10
0 -15 -11 -15 -35 0 -24 -5 -35 -15 -35 -10 0 -15 11 -15 35 0 25 -4 35 -16
35 -12 0 -14 -9 -12 -42z"/>
<path d="M4300 6315 c0 -33 4 -45 15 -45 11 0 15 12 15 45 0 33 -4 45 -15 45
-11 0 -15 -12 -15 -45z"/>
<path d="M3110 6072 c-16 -13 -23 -29 -22 -51 1 -42 18 -61 53 -61 30 0 71 31
49 38 -6 2 -17 -1 -23 -7 -16 -16 -44 -13 -51 5 -18 47 10 87 46 65 26 -16 39
-3 14 15 -26 19 -39 18 -66 -4z"/>
<path d="M3330 6080 c0 -5 5 -10 10 -10 6 0 10 5 10 10 0 6 -4 10 -10 10 -5 0
-10 -4 -10 -10z"/>
<path d="M3232 6044 c-24 -17 -29 -53 -10 -72 19 -19 66 -15 78 7 14 28 13 38
-10 61 -24 24 -29 24 -58 4z m43 -40 c0 -19 -5 -29 -15 -29 -16 0 -25 28 -16
51 10 25 31 10 31 -22z"/>
<path d="M3388 6053 c-30 -7 -21 -40 13 -52 36 -12 29 -34 -8 -25 -18 5 -24 3
-19 -5 4 -6 21 -11 37 -11 36 0 52 28 25 44 -10 6 -25 17 -34 24 -15 12 -14
13 11 7 29 -6 38 9 11 19 -9 3 -16 5 -17 5 -1 -1 -10 -3 -19 -6z"/>
<path d="M3484 6044 c-18 -15 -18 -15 9 -9 33 7 37 -10 3 -19 -24 -6 -40 -31
-30 -47 3 -5 22 -9 42 -9 l38 0 -4 43 c-6 56 -23 69 -58 41z m34 -55 c-2 -6
-8 -10 -13 -10 -5 0 -11 4 -13 10 -2 6 4 11 13 11 9 0 15 -5 13 -11z"/>
<path d="M3576 6047 c-22 -16 -15 -34 20 -47 36 -14 30 -33 -7 -25 -22 5 -29
4 -25 -4 11 -17 62 -13 77 5 11 14 10 18 -6 30 -10 8 -25 14 -32 14 -7 0 -13
5 -13 11 0 7 10 9 25 5 14 -4 25 -2 25 4 0 5 -4 10 -9 10 -5 0 -15 2 -23 5 -7
3 -22 -1 -32 -8z"/>
<path d="M3320 6005 c0 -33 4 -45 15 -45 11 0 15 12 15 45 0 33 -4 45 -15 45
-11 0 -15 -12 -15 -45z"/>
<path d="M960 5735 c0 -42 3 -55 15 -55 8 0 15 9 15 20 0 11 3 20 8 20 4 0 13
-9 20 -20 7 -11 20 -20 29 -20 14 0 14 2 -2 20 -16 18 -16 20 -1 35 27 27 4
55 -44 55 l-40 0 0 -55z m70 20 c0 -8 -9 -15 -20 -15 -11 0 -20 7 -20 15 0 8
9 15 20 15 11 0 20 -7 20 -15z"/>
<path d="M1160 5735 c0 -30 5 -55 10 -55 6 0 10 25 10 55 0 30 -4 55 -10 55
-5 0 -10 -25 -10 -55z"/>
<path d="M1362 5765 c-32 -34 -27 -79 9 -83 14 -2 31 4 38 12 17 20 6 66 -15
66 -14 0 -14 3 -4 15 21 25 -3 17 -28 -10z m32 -30 c7 -18 -2 -45 -15 -45 -13
0 -22 27 -15 45 3 8 10 15 15 15 5 0 11 -7 15 -15z"/>
<path d="M1498 5783 c7 -3 16 -2 19 1 4 3 -2 6 -13 5 -11 0 -14 -3 -6 -6z"/>
<path d="M1670 5780 c0 -5 7 -10 15 -10 11 0 15 -12 15 -45 0 -25 5 -45 10
-45 6 0 10 20 10 45 0 33 4 45 15 45 8 0 15 5 15 10 0 6 -18 10 -40 10 -22 0
-40 -4 -40 -10z"/>
<path d="M1804 5775 c-4 -8 -12 -15 -20 -15 -19 0 -29 -47 -14 -65 15 -18 56
-20 66 -4 5 9 -1 10 -20 5 -19 -5 -26 -3 -26 9 0 9 9 15 25 15 28 0 32 12 12
32 -8 7 -12 19 -9 26 5 17 -7 15 -14 -3z m6 -35 c0 -5 -4 -10 -10 -10 -5 0
-10 5 -10 10 0 6 5 10 10 10 6 0 10 -4 10 -10z"/>
<path d="M2038 5783 c7 -3 16 -2 19 1 4 3 -2 6 -13 5 -11 0 -14 -3 -6 -6z"/>
<path d="M2470 5734 l0 -55 38 3 c35 3 37 5 37 38 0 29 -4 36 -22 38 -13 2
-23 10 -23 18 0 8 -7 14 -15 14 -12 0 -15 -13 -15 -56z m55 -12 c0 -31 -19
-28 -23 4 -3 18 0 25 10 22 7 -3 13 -14 13 -26z"/>
<path d="M2783 5773 c-3 -10 -12 -33 -19 -52 -17 -41 -17 -41 1 -41 8 0 15 7
15 15 0 8 9 15 20 15 11 0 23 -7 26 -15 4 -9 19 -15 35 -15 25 0 29 4 29 30 0
17 7 33 18 39 14 9 12 10 -15 11 -30 0 -32 -3 -35 -37 l-3 -38 -18 53 c-19 53
-42 68 -54 35z m23 -51 c-12 -11 -18 7 -10 30 l8 23 4 -23 c2 -13 1 -26 -2
-30z"/>
<path d="M3670 5735 c0 -30 5 -55 10 -55 6 0 10 9 10 19 0 14 8 21 26 23 63 7
51 68 -12 68 l-34 0 0 -55z m60 20 c0 -8 -9 -15 -20 -15 -11 0 -20 7 -20 15 0
8 9 15 20 15 11 0 20 -7 20 -15z"/>
<path d="M4250 5735 c0 -30 5 -55 10 -55 6 0 10 25 10 55 0 30 -4 55 -10 55
-5 0 -10 -25 -10 -55z"/>
<path d="M4570 5775 c0 -9 -9 -15 -25 -15 -29 0 -40 -19 -31 -55 5 -21 12 -25
41 -25 l35 0 0 55 c0 30 -4 55 -10 55 -5 0 -10 -7 -10 -15z m-5 -55 c0 -13 -5
-25 -12 -27 -13 -5 -27 32 -18 47 11 18 30 5 30 -20z"/>
<path d="M4743 5764 c-15 -24 -15 -29 -2 -53 17 -30 59 -40 78 -17 7 8 8 17 3
20 -6 3 -15 -1 -22 -9 -17 -21 -40 -7 -40 25 0 30 24 58 35 40 3 -5 13 -10 22
-10 13 0 13 3 3 15 -20 24 -57 18 -77 -11z"/>
<path d="M1288 5769 c-2 -5 -2 -28 0 -50 3 -31 8 -39 24 -39 17 0 18 3 8 14
-6 8 -11 25 -10 38 3 36 1 48 -9 48 -5 0 -11 -5 -13 -11z"/>
<path d="M3158 5768 c-2 -7 -2 -29 2 -48 3 -24 11 -36 25 -38 16 -3 18 -1 8 9
-16 16 -17 59 -2 59 6 0 4 7 -5 15 -18 18 -23 19 -28 3z"/>
<path d="M3290 5753 c0 -41 11 -73 24 -73 9 0 12 35 7 93 -1 4 -8 7 -16 7 -10
0 -15 -10 -15 -27z"/>
<path d="M3928 5769 c-2 -5 -2 -28 0 -50 3 -31 8 -39 24 -39 17 0 18 3 8 14
-6 8 -11 25 -10 38 3 36 1 48 -9 48 -5 0 -11 -5 -13 -11z"/>
<path d="M5588 5773 c6 -2 18 -2 25 0 6 3 1 5 -13 5 -14 0 -19 -2 -12 -5z"/>
<path d="M1074 5745 c-12 -30 5 -65 31 -65 13 0 27 4 30 10 3 5 -2 9 -12 7
-10 -1 -19 3 -21 8 -1 6 9 11 23 13 21 3 23 6 15 23 -13 23 -58 26 -66 4z m46
-5 c0 -5 -7 -10 -16 -10 -8 0 -12 5 -9 10 3 6 10 10 16 10 5 0 9 -4 9 -10z"/>
<path d="M1204 5749 c-5 -9 -1 -11 14 -7 12 4 22 3 22 -2 0 -4 -9 -10 -20 -13
-12 -3 -20 -14 -20 -26 0 -17 6 -21 36 -21 35 0 35 1 32 38 -3 32 -7 37 -30
40 -14 2 -29 -2 -34 -9z m46 -38 c0 -12 -20 -25 -27 -18 -7 7 6 27 18 27 5 0
9 -4 9 -9z"/>
<path d="M1430 5720 c0 -22 5 -40 10 -40 6 0 10 13 10 30 0 17 7 33 18 39 14
9 13 10 -10 11 -26 0 -28 -3 -28 -40z"/>
<path d="M1490 5720 c0 -29 4 -40 15 -40 11 0 15 11 15 40 0 29 -4 40 -15 40
-11 0 -15 -11 -15 -40z"/>
<path d="M1537 5754 c-12 -12 -8 -51 7 -64 8 -6 25 -10 38 -8 19 2 23 9 23 38
0 32 -3 35 -30 38 -17 2 -34 0 -38 -4z m48 -34 c0 -13 -5 -25 -12 -27 -13 -5
-27 32 -18 47 11 18 30 5 30 -20z"/>
<path d="M1854 5746 c-11 -30 1 -61 25 -64 13 -2 28 1 34 7 16 16 0 26 -18 11
-12 -10 -16 -9 -21 4 -10 27 3 48 27 41 15 -5 19 -4 15 4 -10 16 -56 14 -62
-3z"/>
<path d="M1940 5720 c0 -47 17 -54 22 -8 4 46 28 49 28 4 0 -20 5 -36 10 -36
6 0 10 18 10 40 0 39 -1 40 -35 40 -34 0 -35 -1 -35 -40z"/>
<path d="M2030 5720 c0 -29 4 -40 15 -40 11 0 15 11 15 40 0 29 -4 40 -15 40
-11 0 -15 -11 -15 -40z"/>
<path d="M2074 5745 c-12 -30 5 -65 31 -65 24 0 42 16 30 28 -3 3 -10 0 -15
-8 -7 -11 -12 -12 -21 -3 -18 18 -6 48 19 46 12 -2 22 2 22 7 0 16 -60 12 -66
-5z"/>
<path d="M2164 5746 c-12 -31 0 -61 27 -64 33 -4 53 20 45 53 -5 20 -13 25
-37 25 -16 0 -32 -6 -35 -14z m50 -11 c7 -18 -2 -45 -15 -45 -13 0 -22 27 -15
45 3 8 10 15 15 15 5 0 11 -7 15 -15z"/>
<path d="M2297 5753 c-13 -12 -7 -23 18 -35 33 -15 32 -32 -1 -24 -17 5 -23 3
-19 -4 8 -14 48 -13 63 2 13 13 -2 38 -24 38 -7 0 -16 5 -20 12 -5 8 0 9 14 6
12 -4 25 -2 28 3 6 10 -49 13 -59 2z"/>
<path d="M2384 5746 c-12 -31 0 -61 27 -64 33 -4 53 20 45 53 -5 20 -13 25
-37 25 -16 0 -32 -6 -35 -14z m50 -11 c7 -18 -2 -45 -15 -45 -13 0 -22 27 -15
45 3 8 10 15 15 15 5 0 11 -7 15 -15z"/>
<path d="M2570 5720 c0 -22 5 -40 10 -40 6 0 10 13 10 30 0 17 7 33 18 39 14
9 13 10 -10 11 -26 0 -28 -3 -28 -40z"/>
<path d="M2630 5741 c-15 -29 3 -61 35 -61 13 0 27 5 31 11 4 7 -2 9 -16 7
-13 -2 -25 3 -27 10 -3 7 5 12 22 12 20 0 26 4 23 18 -5 26 -54 28 -68 3z m45
-1 c3 -5 -1 -10 -9 -10 -9 0 -16 5 -16 10 0 6 4 10 9 10 6 0 13 -4 16 -10z"/>
<path d="M2924 5735 c-7 -29 10 -55 37 -55 12 0 19 -7 19 -20 0 -11 5 -20 10
-20 6 0 10 27 10 60 l0 60 -35 0 c-29 0 -36 -4 -41 -25z m51 -13 c0 -31 -19
-28 -23 4 -3 18 0 25 10 22 7 -3 13 -14 13 -26z"/>
<path d="M3020 5720 l0 -40 40 0 40 0 0 40 c0 29 -4 40 -15 40 -10 0 -15 -10
-15 -30 0 -20 -5 -30 -15 -30 -10 0 -15 10 -15 30 0 17 -4 30 -10 30 -5 0 -10
-18 -10 -40z"/>
<path d="M3120 5720 c0 -22 5 -40 10 -40 6 0 10 18 10 40 0 22 -4 40 -10 40
-5 0 -10 -18 -10 -40z"/>
<path d="M3210 5741 c-15 -29 3 -61 35 -61 13 0 27 5 31 11 4 7 -2 9 -16 7
-13 -2 -25 3 -27 10 -3 7 5 12 22 12 20 0 26 4 23 18 -5 26 -54 28 -68 3z m45
-1 c3 -5 -1 -10 -9 -10 -9 0 -16 5 -16 10 0 6 4 10 9 10 6 0 13 -4 16 -10z"/>
<path d="M3342 5723 c3 -36 5 -38 41 -40 37 -1 37 -1 37 38 0 21 -4 39 -10 39
-5 0 -10 -13 -10 -30 0 -20 -5 -30 -15 -30 -10 0 -15 10 -15 30 0 21 -5 30
-16 30 -12 0 -14 -9 -12 -37z"/>
<path d="M3440 5720 c0 -22 5 -40 10 -40 6 0 10 13 10 30 0 17 7 33 18 39 14
9 13 10 -10 11 -26 0 -28 -3 -28 -40z"/>
<path d="M3504 5749 c-4 -8 0 -9 15 -4 11 3 21 2 21 -3 0 -5 -9 -12 -20 -15
-12 -3 -20 -14 -20 -26 0 -17 6 -21 35 -21 30 0 35 3 35 24 0 13 -3 31 -6 40
-7 18 -49 22 -60 5z m32 -56 c-10 -10 -19 5 -10 18 6 11 8 11 12 0 2 -7 1 -15
-2 -18z"/>
<path d="M3770 5720 c0 -22 5 -40 10 -40 6 0 10 13 10 30 0 17 7 33 18 39 14
9 13 10 -10 11 -26 0 -28 -3 -28 -40z"/>
<path d="M3834 5746 c-3 -8 -4 -25 -2 -38 2 -19 9 -23 38 -23 33 0 35 2 35 35
0 32 -3 35 -33 38 -21 2 -34 -2 -38 -12z m51 -26 c0 -27 -22 -39 -31 -16 -8
22 3 49 19 43 6 -2 12 -14 12 -27z"/>
<path d="M3982 5748 c-27 -27 -6 -68 35 -68 31 0 52 42 33 65 -15 18 -51 20
-68 3z m46 -23 c-2 -14 -7 -26 -13 -26 -5 0 -11 12 -13 26 -2 18 1 25 13 25
12 0 15 -7 13 -25z"/>
<path d="M4074 5746 c-11 -30 1 -61 25 -64 13 -2 28 1 34 7 16 16 0 26 -18 11
-12 -10 -16 -9 -21 4 -10 27 3 48 27 41 15 -5 19 -4 15 4 -10 16 -56 14 -62
-3z"/>
<path d="M4157 5754 c-12 -12 -8 -51 7 -64 8 -6 25 -10 38 -8 19 2 23 9 23 38
0 32 -3 35 -30 38 -17 2 -34 0 -38 -4z m48 -34 c0 -13 -5 -25 -12 -27 -13 -5
-27 32 -18 47 11 18 30 5 30 -20z"/>
<path d="M4294 5746 c-3 -8 -4 -25 -2 -38 2 -19 9 -23 38 -23 33 0 35 2 35 35
0 32 -3 35 -33 38 -21 2 -34 -2 -38 -12z m51 -26 c0 -27 -22 -39 -31 -16 -8
22 3 49 19 43 6 -2 12 -14 12 -27z"/>
<path d="M4390 5741 c0 -10 9 -21 20 -24 11 -3 20 -10 20 -17 0 -7 -8 -9 -20
-5 -12 4 -20 2 -20 -5 0 -7 13 -10 32 -8 42 4 51 34 14 44 -14 3 -26 11 -26
16 0 6 9 8 20 5 11 -3 20 -1 20 4 0 5 -13 9 -30 9 -23 0 -30 -5 -30 -19z"/>
<path d="M4610 5741 c-15 -29 3 -61 35 -61 13 0 27 5 31 11 4 7 -2 9 -16 7
-13 -2 -25 3 -27 10 -3 7 5 12 22 12 20 0 26 4 23 18 -5 26 -54 28 -68 3z m45
-1 c3 -5 -1 -10 -9 -10 -9 0 -16 5 -16 10 0 6 4 10 9 10 6 0 13 -4 16 -10z"/>
<path d="M4852 5748 c-27 -27 -6 -68 35 -68 31 0 52 42 33 65 -15 18 -51 20
-68 3z m46 -23 c-2 -14 -7 -26 -13 -26 -5 0 -11 12 -13 26 -2 18 1 25 13 25
12 0 15 -7 13 -25z"/>
<path d="M4940 5720 c0 -48 17 -54 22 -7 2 17 8 32 13 32 6 0 11 -15 13 -32 2
-18 7 -33 12 -33 5 0 10 15 12 33 2 17 8 32 13 32 6 0 11 -15 13 -32 5 -47 22
-41 22 7 l0 40 -60 0 -60 0 0 -40z"/>
<path d="M5070 5743 c1 -48 11 -62 46 -61 33 1 34 3 34 40 0 21 -4 38 -10 38
-5 0 -10 -13 -10 -30 0 -20 -5 -30 -15 -30 -10 0 -15 10 -15 30 0 20 -5 30
-15 30 -8 0 -15 -8 -15 -17z"/>
<path d="M5170 5721 c0 -23 5 -41 10 -41 6 0 10 13 10 29 0 16 6 31 14 34 19
8 26 -1 26 -35 0 -15 5 -28 11 -28 6 0 9 16 7 38 -3 35 -5 37 -40 40 l-38 3 0
-40z"/>
<path d="M5270 5720 c0 -22 5 -40 10 -40 6 0 10 18 10 40 0 22 -4 40 -10 40
-5 0 -10 -18 -10 -40z"/>
<path d="M5310 5740 c-15 -28 4 -60 35 -60 13 0 27 5 30 11 10 16 -3 23 -18
11 -17 -15 -27 -6 -27 25 0 20 3 23 26 17 19 -5 25 -4 20 5 -12 18 -54 13 -66
-9z"/>
<path d="M5400 5750 c0 -7 8 -9 20 -5 11 3 20 2 20 -3 0 -6 -12 -13 -26 -16
-37 -10 -28 -40 14 -44 33 -3 33 -3 30 35 -3 33 -7 38 -30 41 -16 2 -28 -2
-28 -8z m40 -38 c0 -13 -12 -22 -22 -16 -10 6 -1 24 13 24 5 0 9 -4 9 -8z"/>
<path d="M5480 5740 c-12 -22 2 -60 21 -60 6 0 9 -7 5 -15 -3 -9 0 -15 10 -15
9 0 14 6 11 13 -2 6 3 17 12 24 9 6 13 15 9 19 -4 4 -14 2 -21 -4 -17 -15 -27
-6 -27 25 0 20 3 23 26 17 19 -5 25 -4 20 5 -12 18 -54 13 -66 -9z"/>
<path d="M5570 5750 c0 -7 8 -9 20 -5 11 3 20 2 20 -3 0 -6 -12 -13 -26 -16
-37 -10 -28 -40 14 -44 33 -3 33 -3 30 35 -3 33 -7 38 -30 41 -16 2 -28 -2
-28 -8z m40 -38 c0 -13 -12 -22 -22 -16 -10 6 -1 24 13 24 5 0 9 -4 9 -8z"/>
<path d="M5654 5746 c-3 -8 -4 -25 -2 -38 2 -19 9 -23 38 -23 33 0 35 2 35 35
0 32 -3 35 -33 38 -21 2 -34 -2 -38 -12z m51 -26 c0 -13 -6 -25 -12 -27 -16
-6 -27 21 -19 43 9 23 31 11 31 -16z"/>
<path d="M3587 5693 c-10 -9 -8 -33 2 -33 5 0 11 9 14 20 5 20 -3 26 -16 13z"/>
<path d="M5747 5693 c-10 -9 -8 -33 2 -33 5 0 11 9 14 20 5 20 -3 26 -16 13z"/>
<path d="M1420 5515 c-10 -12 -10 -18 0 -30 7 -8 18 -15 26 -15 18 0 28 -20
16 -32 -8 -8 -15 -8 -26 1 -14 12 -32 0 -19 -13 11 -10 58 -7 71 6 20 20 13
39 -18 50 -35 12 -35 35 0 30 14 -2 20 0 16 7 -10 16 -52 13 -66 -4z"/>
<path d="M2287 5523 c-4 -3 -7 -28 -7 -55 0 -36 4 -48 15 -48 9 0 15 9 15 25
0 18 5 25 20 25 15 0 20 -7 20 -25 0 -16 6 -25 15 -25 12 0 15 13 15 55 0 42
-3 55 -15 55 -9 0 -15 -9 -15 -25 0 -18 -5 -25 -20 -25 -15 0 -20 7 -20 25 0
24 -10 32 -23 18z"/>
<path d="M2590 5516 c0 -8 -10 -16 -22 -18 -19 -2 -23 -9 -23 -38 0 -33 2 -35
38 -38 l37 -3 0 55 c0 43 -3 56 -15 56 -8 0 -15 -6 -15 -14z m0 -50 c0 -14 -5
-28 -10 -31 -13 -8 -24 20 -16 40 9 24 26 17 26 -9z"/>
<path d="M3163 5504 c-15 -24 -15 -29 -2 -53 17 -30 59 -40 78 -17 7 8 8 17 3
20 -6 3 -15 -1 -22 -9 -17 -21 -40 -7 -40 25 0 30 24 58 35 40 3 -5 13 -10 22
-10 13 0 13 3 3 15 -20 24 -57 18 -77 -11z"/>
<path d="M3925 5520 c-4 -6 3 -10 14 -10 25 0 27 6 6 13 -8 4 -17 2 -20 -3z"/>
<path d="M4400 5476 c0 -55 0 -56 29 -56 42 0 61 10 61 31 0 10 -4 19 -8 19
-4 0 -8 12 -7 28 0 24 -4 27 -37 30 l-38 3 0 -55z m60 25 c0 -5 -7 -12 -16
-15 -22 -9 -24 -8 -24 9 0 8 9 15 20 15 11 0 20 -4 20 -9z m5 -46 c0 -5 -10
-11 -22 -13 -16 -2 -23 2 -23 13 0 11 7 15 23 13 12 -2 22 -7 22 -13z"/>
<path d="M4710 5516 c0 -8 -10 -16 -22 -18 -19 -2 -23 -9 -23 -38 0 -33 2 -35
38 -38 l37 -3 0 55 c0 43 -3 56 -15 56 -8 0 -15 -6 -15 -14z m0 -50 c0 -14 -5
-28 -10 -31 -13 -8 -24 20 -16 40 9 24 26 17 26 -9z"/>
<path d="M5107 5523 c-4 -3 -7 -28 -7 -55 0 -36 4 -48 15 -48 12 0 15 13 15
55 0 51 -7 65 -23 48z"/>
<path d="M5240 5520 c0 -5 7 -10 15 -10 11 0 15 -12 15 -45 0 -25 5 -45 10
-45 6 0 10 20 10 45 0 33 4 45 15 45 8 0 15 5 15 10 0 6 -18 10 -40 10 -22 0
-40 -4 -40 -10z"/>
<path d="M3688 5509 c-2 -5 -2 -27 0 -49 l4 -38 54 -1 54 0 0 39 c0 38 -2 40
-30 40 -16 0 -30 -5 -30 -11 0 -6 9 -8 20 -4 11 4 20 2 20 -4 0 -6 -6 -11 -14
-11 -8 0 -21 -9 -29 -21 -17 -23 -29 -12 -27 24 3 35 1 47 -9 47 -5 0 -11 -5
-13 -11z m92 -64 c0 -8 -4 -15 -10 -15 -5 0 -10 7 -10 15 0 8 5 15 10 15 6 0
10 -7 10 -15z"/>
<path d="M1514 5475 c-4 -15 -1 -32 6 -40 15 -18 56 -20 66 -4 5 9 -1 10 -20
5 -19 -5 -26 -3 -26 9 0 10 9 15 26 15 20 0 25 4 20 16 -3 9 -6 18 -6 20 0 2
-13 4 -30 4 -23 0 -31 -5 -36 -25z m46 5 c0 -5 -4 -10 -10 -10 -5 0 -10 5 -10
10 0 6 5 10 10 10 6 0 10 -4 10 -10z"/>
<path d="M1604 5486 c-13 -33 0 -61 29 -64 23 -3 26 -6 16 -18 -8 -10 -15 -11
-24 -4 -9 8 -15 8 -20 1 -9 -16 43 -25 60 -11 10 8 15 30 15 61 l0 49 -35 0
c-22 0 -38 -6 -41 -14z m54 -23 c4 -24 -26 -40 -34 -18 -8 21 3 47 19 43 6 -3
13 -14 15 -25z"/>
<path d="M1692 5463 c3 -36 5 -38 41 -40 37 -1 37 -1 37 38 0 21 -4 39 -10 39
-5 0 -10 -13 -10 -30 0 -20 -5 -30 -15 -30 -10 0 -15 10 -15 30 0 21 -5 30
-16 30 -12 0 -14 -9 -12 -37z"/>
<path d="M1790 5460 c0 -22 5 -40 10 -40 6 0 10 13 10 30 0 17 7 33 18 39 14
9 13 10 -10 11 -26 0 -28 -3 -28 -40z"/>
<path d="M1854 5489 c-4 -8 0 -9 15 -4 11 3 21 2 21 -3 0 -5 -9 -12 -20 -15
-12 -3 -20 -14 -20 -26 0 -17 6 -21 35 -21 30 0 35 3 35 24 0 13 -3 31 -6 40
-7 18 -49 22 -60 5z m32 -56 c-10 -10 -19 5 -10 18 6 11 8 11 12 0 2 -7 1 -15
-2 -18z"/>
<path d="M1930 5460 c0 -51 27 -57 32 -7 2 17 8 32 13 32 6 0 11 -15 13 -32 5
-47 22 -41 22 7 l0 40 -40 0 -40 0 0 -40z"/>
<path d="M2030 5480 c-12 -22 2 -60 21 -60 6 0 9 -7 5 -15 -3 -9 0 -15 10 -15
9 0 14 6 11 13 -2 6 3 17 12 24 9 6 13 15 9 19 -4 4 -14 2 -21 -4 -17 -15 -27
-6 -27 25 0 20 3 23 26 17 19 -5 25 -4 20 5 -12 18 -54 13 -66 -9z"/>
<path d="M2120 5490 c0 -7 8 -9 20 -5 11 3 20 2 20 -3 0 -6 -12 -13 -26 -16
-37 -10 -28 -40 14 -44 33 -3 33 -3 30 35 -3 33 -7 38 -30 41 -16 2 -28 -2
-28 -8z m40 -38 c0 -13 -12 -22 -22 -16 -10 6 -1 24 13 24 5 0 9 -4 9 -8z"/>
<path d="M2400 5489 c0 -6 9 -8 20 -4 27 9 25 -8 -2 -20 -34 -15 -29 -39 10
-43 31 -3 32 -2 32 37 0 39 -2 41 -30 41 -16 0 -30 -5 -30 -11z m40 -44 c0 -8
-4 -15 -10 -15 -5 0 -10 7 -10 15 0 8 5 15 10 15 6 0 10 -7 10 -15z"/>
<path d="M2480 5460 c0 -22 5 -40 10 -40 6 0 10 13 10 30 0 17 7 33 18 39 14
9 13 10 -10 11 -26 0 -28 -3 -28 -40z"/>
<path d="M2635 5468 c4 -18 11 -37 15 -42 12 -13 30 2 31 27 1 21 1 21 8 -2 4
-14 12 -26 19 -29 12 -4 32 36 32 64 0 23 -18 16 -23 -8 l-4 -23 -8 23 c-4 12
-13 22 -20 22 -7 0 -16 -10 -20 -22 l-8 -23 -4 23 c-2 12 -9 22 -14 22 -7 0
-8 -13 -4 -32z"/>
<path d="M2760 5490 c0 -7 8 -9 20 -5 11 3 20 2 20 -3 0 -6 -12 -13 -26 -16
-37 -10 -28 -40 14 -44 33 -3 33 -3 30 35 -3 33 -7 38 -30 41 -16 2 -28 -2
-28 -8z m40 -38 c0 -13 -12 -22 -22 -16 -10 6 -1 24 13 24 5 0 9 -4 9 -8z"/>
<path d="M2840 5460 c0 -22 5 -40 10 -40 6 0 10 13 10 30 0 17 7 33 18 39 14
9 13 10 -10 11 -26 0 -28 -3 -28 -40z"/>
<path d="M2900 5481 c-15 -29 3 -61 35 -61 13 0 27 5 31 11 4 7 -2 9 -16 7
-13 -2 -25 3 -27 10 -3 7 5 12 22 12 20 0 26 4 23 18 -5 26 -54 28 -68 3z m45
-1 c3 -5 -1 -10 -9 -10 -9 0 -16 5 -16 10 0 6 4 10 9 10 6 0 13 -4 16 -10z"/>
<path d="M3024 5475 c-4 -15 -1 -32 6 -40 15 -18 56 -20 66 -4 5 9 -1 10 -20
5 -19 -5 -26 -3 -26 9 0 10 9 15 26 15 20 0 25 4 20 16 -3 9 -6 18 -6 20 0 2
-13 4 -30 4 -23 0 -31 -5 -36 -25z m46 5 c0 -5 -4 -10 -10 -10 -5 0 -10 5 -10
10 0 6 5 10 10 10 6 0 10 -4 10 -10z"/>
<path d="M3272 5488 c-27 -27 -6 -68 35 -68 31 0 52 42 33 65 -15 18 -51 20
-68 3z m46 -23 c-2 -14 -7 -26 -13 -26 -5 0 -11 12 -13 26 -2 18 1 25 13 25
12 0 15 -7 13 -25z"/>
<path d="M3360 5460 c0 -48 17 -54 22 -7 2 17 8 32 13 32 6 0 11 -15 13 -32 2
-18 7 -33 12 -33 5 0 10 15 12 33 2 17 8 32 13 32 6 0 11 -15 13 -32 5 -47 22
-41 22 7 l0 40 -60 0 -60 0 0 -40z"/>
<path d="M3500 5440 c0 -33 4 -60 10 -60 6 0 10 9 10 20 0 13 7 20 20 20 24 0
43 34 35 60 -5 15 -15 20 -41 20 l-34 0 0 -60z m50 26 c0 -14 -5 -28 -10 -31
-13 -8 -24 20 -16 40 9 24 26 17 26 -9z"/>
<path d="M3592 5463 c3 -36 5 -38 41 -41 l37 -3 0 40 c0 46 -17 56 -22 14 -2
-17 -10 -29 -20 -31 -14 -3 -18 3 -18 27 0 17 -5 31 -11 31 -6 0 -9 -16 -7
-37z"/>
<path d="M3827 5493 c-16 -15 -6 -63 14 -74 17 -9 19 -13 8 -20 -12 -7 -11 -9
1 -9 8 0 21 12 27 27 15 31 10 41 -12 23 -12 -10 -16 -9 -21 4 -10 27 3 48 27
41 15 -5 19 -4 15 4 -8 12 -49 15 -59 4z"/>
<path d="M3910 5489 c0 -6 9 -8 20 -4 27 9 25 -8 -2 -20 -34 -15 -29 -39 10
-43 31 -3 32 -2 32 37 0 39 -2 41 -30 41 -16 0 -30 -5 -30 -11z m40 -44 c0 -8
-4 -15 -10 -15 -5 0 -10 7 -10 15 0 8 5 15 10 15 6 0 10 -7 10 -15z"/>
<path d="M3997 5494 c-12 -12 -8 -51 7 -64 8 -6 25 -10 38 -8 19 2 23 9 23 38
0 32 -3 35 -30 38 -17 2 -34 0 -38 -4z m48 -34 c0 -13 -5 -25 -12 -27 -13 -5
-27 32 -18 47 11 18 30 5 30 -20z"/>
<path d="M4130 5481 c-15 -29 3 -61 35 -61 13 0 27 5 31 11 4 7 -2 9 -16 7
-13 -2 -25 3 -27 10 -3 7 5 12 22 12 20 0 26 4 23 18 -5 26 -54 28 -68 3z m45
-1 c3 -5 -1 -10 -9 -10 -9 0 -16 5 -16 10 0 6 4 10 9 10 6 0 13 -4 16 -10z"/>
<path d="M4220 5460 c0 -22 5 -40 10 -40 6 0 10 13 10 29 0 17 5 33 10 36 6 4
10 -8 10 -29 0 -25 4 -36 15 -36 10 0 15 10 15 29 0 17 5 33 10 36 6 4 10 -8
10 -29 0 -26 4 -36 16 -36 12 0 14 9 12 38 l-3 37 -57 3 -58 3 0 -41z"/>
<path d="M4512 5488 c-27 -27 -6 -68 35 -68 31 0 52 42 33 65 -15 18 -51 20
-68 3z m46 -23 c-2 -14 -7 -26 -13 -26 -5 0 -11 12 -13 26 -2 18 1 25 13 25
12 0 15 -7 13 -25z"/>
<path d="M4600 5460 c0 -22 5 -40 10 -40 6 0 10 13 10 30 0 17 7 33 18 39 14
9 13 10 -10 11 -26 0 -28 -3 -28 -40z"/>
<path d="M4760 5490 c0 -7 8 -9 20 -5 11 3 20 2 20 -3 0 -6 -12 -13 -26 -16
-37 -10 -28 -40 14 -44 33 -3 33 -3 30 35 -3 33 -7 38 -30 41 -16 2 -28 -2
-28 -8z m40 -38 c0 -13 -12 -22 -22 -16 -10 6 -1 24 13 24 5 0 9 -4 9 -8z"/>
<path d="M4880 5461 c0 -23 5 -41 10 -41 6 0 10 13 10 29 0 16 6 31 14 34 19
8 26 -1 26 -35 0 -15 5 -28 11 -28 6 0 9 16 7 38 -3 35 -5 37 -40 40 l-38 3 0
-40z"/>
<path d="M4980 5489 c0 -6 9 -8 20 -4 27 9 25 -8 -2 -20 -34 -15 -29 -39 10
-43 31 -3 32 -2 32 37 0 39 -2 41 -30 41 -16 0 -30 -5 -30 -11z m40 -44 c0 -8
-4 -15 -10 -15 -5 0 -10 7 -10 15 0 8 5 15 10 15 6 0 10 -7 10 -15z"/>
<path d="M5152 5488 c-27 -27 -6 -68 35 -68 31 0 52 42 33 65 -15 18 -51 20
-68 3z m46 -23 c-2 -14 -7 -26 -13 -26 -5 0 -11 12 -13 26 -2 18 1 25 13 25
12 0 15 -7 13 -25z"/>
<path d="M2200 5418 c0 -19 2 -20 10 -8 13 19 13 30 0 30 -5 0 -10 -10 -10
-22z"/>
<path d="M3617 3823 c-11 -10 -8 -83 3 -83 6 0 10 7 10 15 0 19 9 19 32 -2 20
-18 25 -4 6 15 -9 9 -9 12 0 12 18 0 15 37 -4 44 -20 8 -39 8 -47 -1z m48 -23
c0 -8 -8 -16 -17 -18 -13 -2 -18 3 -18 18 0 15 5 20 18 18 9 -2 17 -10 17 -18z"/>
<path d="M3763 3785 c0 -27 2 -38 4 -22 2 15 2 37 0 50 -2 12 -4 0 -4 -28z"/>
<path d="M4253 3823 c12 -3 17 -16 19 -46 l1 -42 4 40 c3 22 10 43 16 47 7 4
-4 7 -23 7 -19 -1 -27 -3 -17 -6z"/>
<path d="M5400 3822 c0 -4 -10 -12 -22 -17 -15 -7 -23 -19 -23 -35 0 -20 6
-26 28 -28 26 -3 27 -2 27 42 0 25 -2 46 -5 46 -3 0 -5 -3 -5 -8z m-3 -38 c8
-20 -13 -42 -27 -28 -12 12 -3 44 11 44 5 0 12 -7 16 -16z"/>
<path d="M5773 3785 c0 -27 2 -38 4 -22 2 15 2 37 0 50 -2 12 -4 0 -4 -28z"/>
<path d="M3859 3815 c-7 -6 2 -75 10 -75 3 0 6 16 5 35 -1 35 -6 49 -15 40z"/>
<path d="M3907 3805 c-25 -18 -19 -59 9 -63 27 -4 38 22 21 53 -10 21 -14 22
-30 10z m23 -30 c0 -16 -6 -25 -15 -25 -15 0 -21 31 -8 43 13 14 23 6 23 -18z"/>
<path d="M4340 3813 c0 -5 5 -14 12 -21 9 -9 8 -12 -5 -12 -9 0 -17 6 -17 13
0 9 -3 8 -9 -2 -15 -23 -1 -51 25 -51 13 0 24 4 24 9 0 5 -9 7 -20 4 -11 -3
-20 0 -20 6 0 6 9 11 20 11 24 0 26 16 5 36 -8 9 -15 12 -15 7z"/>
<path d="M5252 3784 c2 -23 9 -39 18 -41 12 -4 13 -3 1 5 -9 6 -11 19 -7 35 3
15 1 29 -5 32 -7 5 -9 -6 -7 -31z"/>
<path d="M3700 3795 c-16 -19 -3 -55 20 -55 10 0 21 4 24 9 4 5 -2 7 -13 4
-10 -3 -22 0 -25 6 -5 7 3 11 18 11 28 0 33 9 14 28 -16 16 -23 15 -38 -3z
m35 -5 c3 -5 -1 -10 -9 -10 -9 0 -16 5 -16 10 0 6 4 10 9 10 6 0 13 -4 16 -10z"/>
<path d="M3800 3799 c-12 -8 -10 -9 8 -4 12 3 22 2 22 -3 0 -5 -9 -12 -20 -15
-30 -8 -25 -37 6 -37 22 0 25 4 22 32 -3 35 -15 43 -38 27z m30 -39 c0 -5 -7
-10 -15 -10 -8 0 -15 5 -15 10 0 6 7 10 15 10 8 0 15 -4 15 -10z"/>
<path d="M4030 3795 c-19 -23 -8 -50 20 -50 16 0 26 6 28 18 4 18 -14 47 -28
47 -4 0 -13 -7 -20 -15z m38 -23 c2 -14 -2 -22 -12 -22 -19 0 -28 14 -20 35 9
21 28 14 32 -13z"/>
<path d="M4390 3795 c-17 -21 -8 -50 18 -53 12 -2 22 1 22 7 0 6 -6 8 -14 5
-8 -3 -17 -1 -20 4 -10 16 5 44 21 38 8 -3 11 -1 8 4 -9 14 -21 12 -35 -5z"/>
<path d="M4458 3803 c-12 -3 -18 -14 -18 -34 0 -37 18 -38 22 -1 4 36 21 34
30 -4 6 -28 6 -28 5 5 -2 36 -9 42 -39 34z"/>
<path d="M4540 3791 c-14 -27 -2 -51 24 -50 16 1 17 2 4 6 -11 3 -18 14 -18
30 0 19 4 24 16 19 8 -3 12 -2 9 4 -10 16 -23 12 -35 -9z"/>
<path d="M4612 3801 c-21 -13 -11 -55 14 -59 26 -4 38 22 24 49 -12 21 -18 23
-38 10z m28 -26 c0 -16 -6 -25 -15 -25 -15 0 -21 31 -8 43 13 14 23 6 23 -18z"/>
<path d="M4825 3800 c-3 -6 1 -7 9 -4 9 3 16 1 16 -4 0 -6 -9 -14 -21 -17 -27
-9 -19 -29 14 -33 23 -3 27 1 27 20 0 36 -31 61 -45 38z m25 -40 c0 -5 -7 -10
-16 -10 -8 0 -12 5 -9 10 3 6 10 10 16 10 5 0 9 -4 9 -10z"/>
<path d="M4893 3803 c-8 -3 -13 -22 -12 -51 1 -26 3 -39 6 -29 2 9 13 17 24
17 24 0 36 27 22 48 -11 18 -23 22 -40 15z m31 -20 c9 -22 -10 -41 -25 -26
-13 13 -5 43 10 43 5 0 12 -8 15 -17z"/>
<path d="M4951 3771 c1 -28 3 -30 6 -11 3 14 9 30 14 36 5 7 3 11 -6 11 -11 0
-15 -11 -14 -36z"/>
<path d="M5002 3801 c-22 -13 -11 -56 16 -59 12 -2 22 1 22 6 0 6 -9 8 -20 5
-11 -3 -20 0 -20 6 0 6 11 11 25 11 23 0 24 2 15 20 -12 22 -18 24 -38 11z
m28 -11 c0 -5 -7 -10 -16 -10 -8 0 -12 5 -9 10 3 6 10 10 16 10 5 0 9 -4 9
-10z"/>
<path d="M5064 3798 c-4 -6 0 -16 9 -23 22 -16 21 -22 0 -28 -14 -4 -13 -5 4
-6 30 -1 38 16 13 31 -23 15 -27 33 -4 24 8 -3 12 -2 9 4 -8 13 -22 13 -31 -2z"/>
<path d="M5150 3795 c10 -12 10 -15 -4 -15 -9 0 -16 6 -16 13 0 9 -3 8 -9 -2
-15 -23 -1 -51 25 -51 13 0 24 4 24 9 0 5 -9 7 -20 4 -11 -3 -20 0 -20 6 0 6
9 11 20 11 24 0 27 25 4 34 -14 5 -15 4 -4 -9z"/>
<path d="M5198 3803 c-12 -3 -18 -14 -18 -34 0 -37 18 -38 22 -1 4 36 21 34
30 -4 6 -28 6 -28 5 5 -2 36 -9 42 -39 34z"/>
<path d="M5295 3800 c-3 -5 0 -7 8 -4 8 3 18 1 21 -4 3 -5 -3 -12 -14 -15 -30
-8 -25 -37 5 -37 21 0 25 5 25 29 0 17 -6 31 -16 35 -21 8 -22 8 -29 -4z m35
-40 c0 -5 -7 -10 -15 -10 -8 0 -15 5 -15 10 0 6 7 10 15 10 8 0 15 -4 15 -10z"/>
<path d="M5432 3801 c-21 -13 -11 -55 14 -59 26 -4 38 22 24 49 -12 21 -18 23
-38 10z m28 -26 c0 -16 -6 -25 -15 -25 -15 0 -21 31 -8 43 13 14 23 6 23 -18z"/>
<path d="M5653 3803 c-8 -3 -13 -22 -12 -51 1 -26 3 -40 6 -31 2 10 13 19 24
22 16 4 20 12 17 33 -3 28 -14 36 -35 27z m27 -34 c0 -10 -7 -19 -15 -19 -15
0 -21 31 -9 43 11 10 24 -3 24 -24z"/>
<path d="M5710 3795 c-16 -19 -3 -55 20 -55 10 0 21 4 24 9 4 5 -2 7 -13 4
-10 -3 -22 0 -25 6 -5 7 3 11 18 11 28 0 33 9 14 28 -16 16 -23 15 -38 -3z
m35 -5 c3 -5 -1 -10 -9 -10 -9 0 -16 5 -16 10 0 6 4 10 9 10 6 0 13 -4 16 -10z"/>
<path d="M5800 3791 c-14 -27 -2 -53 24 -49 36 5 31 67 -6 68 -4 0 -12 -9 -18
-19z m38 -19 c2 -15 -2 -22 -12 -22 -11 0 -16 9 -16 26 0 31 23 28 28 -4z"/>
<path d="M3960 3770 c0 -16 2 -30 4 -30 2 0 6 14 8 30 3 17 1 30 -4 30 -4 0
-8 -13 -8 -30z"/>
<path d="M4002 3770 c0 -19 2 -27 5 -17 2 9 2 25 0 35 -3 9 -5 1 -5 -18z"/>
<path d="M4512 3770 c0 -19 2 -27 5 -17 2 9 2 25 0 35 -3 9 -5 1 -5 -18z"/>
<path d="M3650 3605 c0 -8 -3 -14 -7 -14 -26 4 -34 -3 -31 -28 2 -20 9 -29 26
-31 20 -3 22 1 22 42 0 25 -2 46 -5 46 -3 0 -5 -7 -5 -15z m0 -46 c0 -10 -7
-19 -15 -19 -15 0 -21 31 -9 43 11 10 24 -3 24 -24z"/>
<path d="M4171 3598 c-5 -13 -11 -34 -15 -48 -6 -23 -6 -24 6 -5 12 20 14 23
17 48 2 6 11 -6 21 -28 22 -48 26 -33 5 19 -18 42 -23 44 -34 14z"/>
<path d="M4233 3575 c0 -27 2 -38 4 -22 2 15 2 37 0 50 -2 12 -4 0 -4 -28z"/>
<path d="M4261 3577 c-1 -45 1 -48 22 -45 16 2 23 11 25 31 3 24 -1 29 -25 26
-4 0 -10 8 -14 18 -5 11 -8 0 -8 -30z m39 -18 c0 -10 -7 -19 -15 -19 -15 0
-21 31 -9 43 11 10 24 -3 24 -24z"/>
<path d="M4567 3613 c-14 -14 -6 -34 18 -43 14 -5 25 -15 25 -21 0 -7 -10 -9
-25 -7 -14 3 -25 1 -25 -4 0 -5 12 -8 27 -6 38 4 43 35 9 48 -36 13 -34 34 2
26 20 -5 23 -4 12 4 -17 11 -34 13 -43 3z"/>
<path d="M4663 3575 c0 -27 2 -38 4 -22 2 15 2 37 0 50 -2 12 -4 0 -4 -28z"/>
<path d="M4950 3604 c0 -9 -5 -12 -12 -8 -15 10 -37 -23 -31 -46 3 -13 14 -20
29 -20 22 0 24 4 24 45 0 25 -2 45 -5 45 -3 0 -5 -7 -5 -16z m-2 -42 c2 -15
-2 -22 -12 -22 -11 0 -16 9 -16 26 0 31 23 28 28 -4z"/>
<path d="M3959 3605 c-7 -6 2 -75 10 -75 3 0 6 16 5 35 -1 35 -6 49 -15 40z"/>
<path d="M4432 3574 c2 -23 9 -39 18 -41 12 -4 13 -3 1 5 -9 6 -11 19 -7 35 3
15 1 29 -5 32 -7 5 -9 -6 -7 -31z"/>
<path d="M5160 3576 c0 -24 -5 -36 -17 -39 -14 -4 -12 -5 5 -6 19 -1 22 4 22
39 0 22 -2 40 -5 40 -3 0 -5 -15 -5 -34z"/>
<path d="M3772 3591 c-22 -13 -11 -56 16 -59 12 -2 22 1 22 6 0 6 -9 8 -21 5
-17 -5 -20 -2 -17 18 2 16 9 24 20 23 10 -1 15 2 12 7 -6 11 -15 11 -32 0z"/>
<path d="M3830 3585 c-16 -19 -3 -55 20 -55 10 0 21 4 24 9 4 5 -2 7 -13 4
-10 -3 -22 0 -25 6 -5 7 3 11 18 11 28 0 33 9 14 28 -16 16 -23 15 -38 -3z
m35 -5 c3 -5 -1 -10 -9 -10 -9 0 -16 5 -16 10 0 6 4 10 9 10 6 0 13 -4 16 -10z"/>
<path d="M3928 3565 c2 -19 8 -35 13 -35 14 0 11 46 -4 58 -10 9 -12 4 -9 -23z"/>
<path d="M4000 3585 c-18 -22 -8 -50 20 -52 l25 -3 -25 12 -25 12 28 4 c29 4
33 12 15 30 -16 16 -23 15 -38 -3z m30 -5 c0 -5 -7 -10 -16 -10 -8 0 -12 5 -9
10 3 6 10 10 16 10 5 0 9 -4 9 -10z"/>
<path d="M4330 3585 c-16 -19 -3 -55 20 -55 10 0 21 4 24 9 4 5 -2 7 -13 4
-10 -3 -22 0 -25 6 -5 7 3 11 18 11 28 0 33 9 14 28 -16 16 -23 15 -38 -3z
m35 -5 c3 -5 -1 -10 -9 -10 -9 0 -16 5 -16 10 0 6 4 10 9 10 6 0 13 -4 16 -10z"/>
<path d="M4403 3593 c-7 -2 -12 -19 -12 -36 2 -28 2 -29 6 -7 3 14 10 31 15
38 11 13 10 13 -9 5z"/>
<path d="M4724 3575 l-7 -28 -13 24 c-14 26 -17 18 -8 -18 4 -13 10 -23 14
-23 10 0 34 59 27 67 -3 3 -9 -7 -13 -22z"/>
<path d="M4760 3589 c-12 -8 -10 -9 8 -4 12 3 22 2 22 -3 0 -5 -9 -12 -20 -15
-30 -8 -25 -37 6 -37 22 0 25 4 22 32 -3 35 -15 43 -38 27z m30 -39 c0 -5 -7
-10 -15 -10 -8 0 -15 5 -15 10 0 6 7 10 15 10 8 0 15 -4 15 -10z"/>
<path d="M4980 3585 c-18 -22 -8 -50 20 -52 l25 -3 -25 12 -25 12 28 4 c29 4
33 12 15 30 -16 16 -23 15 -38 -3z m30 -5 c0 -5 -7 -10 -16 -10 -8 0 -12 5 -9
10 3 6 10 10 16 10 5 0 9 -4 9 -10z"/>
<path d="M5200 3585 c-18 -22 -8 -50 20 -52 l25 -3 -25 12 -25 12 28 4 c29 4
33 12 15 30 -16 16 -23 15 -38 -3z m30 -5 c0 -5 -7 -10 -16 -10 -8 0 -12 5 -9
10 3 6 10 10 16 10 5 0 9 -4 9 -10z"/>
<path d="M5264 3589 c-4 -7 3 -20 17 -29 22 -17 22 -18 3 -23 -18 -4 -18 -4 0
-3 27 1 32 26 7 33 -12 3 -21 10 -21 15 0 6 7 7 16 4 8 -3 12 -2 9 4 -8 13
-22 13 -31 -1z"/>
<path d="M5322 3568 c-2 -34 0 -38 23 -38 22 0 25 4 24 33 -2 30 -2 30 -6 5
-6 -39 -31 -35 -36 5 -4 31 -4 31 -5 -5z"/>
<path d="M5394 3588 c-4 -6 0 -16 9 -23 22 -16 21 -22 0 -28 -14 -4 -13 -5 4
-6 30 -1 38 16 13 31 -23 15 -27 33 -4 24 8 -3 12 -2 9 4 -8 13 -22 13 -31 -2z"/>
<path d="M5583 3593 c-18 -7 -16 -52 3 -60 8 -3 20 -1 26 5 8 8 5 9 -11 5 -19
-5 -22 -2 -19 18 2 16 9 23 21 21 9 -2 17 -1 17 1 0 8 -25 14 -37 10z"/>
<path d="M5640 3585 c-19 -23 -8 -50 20 -50 16 0 26 6 28 18 4 18 -14 47 -28
47 -4 0 -13 -7 -20 -15z m34 -11 c8 -20 -1 -34 -20 -34 -8 0 -14 8 -14 18 0
33 23 44 34 16z"/>
<path d="M5700 3566 c0 -20 2 -36 4 -36 8 0 12 61 4 66 -4 3 -8 -11 -8 -30z"/>
<path d="M5737 3565 c8 -39 13 -45 13 -12 0 14 5 29 10 32 6 4 10 -7 10 -24 0
-17 5 -31 10 -31 12 0 13 40 2 56 -4 5 -17 10 -29 10 -19 0 -21 -4 -16 -31z"/>
<path d="M5812 3591 c-21 -13 -11 -55 14 -59 26 -4 38 22 24 49 -12 21 -18 23
-38 10z m28 -26 c0 -16 -6 -25 -15 -25 -15 0 -21 31 -8 43 13 14 23 6 23 -18z"/>
<path d="M3682 3560 c0 -19 2 -27 5 -17 2 9 2 25 0 35 -3 9 -5 1 -5 -18z"/>
<path d="M3700 3581 c0 -6 10 -16 23 -23 l22 -12 -25 -7 -25 -7 28 -1 c34 -1
36 21 2 43 -14 9 -25 12 -25 7z"/>
<path d="M3890 3560 c0 -16 2 -30 4 -30 2 0 6 14 8 30 3 17 1 30 -4 30 -4 0
-8 -13 -8 -30z"/>
<path d="M4642 3560 c0 -19 2 -27 5 -17 2 9 2 25 0 35 -3 9 -5 1 -5 -18z"/>
<path d="M4523 3365 c0 -27 2 -38 4 -22 2 15 2 37 0 50 -2 12 -4 0 -4 -28z"/>
<path d="M3964 3385 c-7 -18 3 -65 14 -65 4 0 6 18 4 40 -4 43 -9 49 -18 25z"/>
<path d="M5487 3386 c-4 -10 -1 -13 9 -9 7 3 14 1 14 -5 0 -5 -9 -12 -20 -15
-29 -8 -26 -37 5 -37 20 0 25 5 25 24 0 47 -21 74 -33 42z m23 -46 c0 -5 -7
-10 -16 -10 -8 0 -12 5 -9 10 3 6 10 10 16 10 5 0 9 -4 9 -10z"/>
<path d="M3611 3351 c1 -28 3 -30 6 -11 3 14 9 30 14 36 5 7 3 11 -6 11 -11 0
-15 -11 -14 -36z"/>
<path d="M3662 3381 c-22 -13 -11 -56 16 -59 12 -2 22 1 22 6 0 6 -9 8 -20 5
-11 -3 -20 0 -20 6 0 6 14 11 30 11 20 0 30 -5 30 -15 0 -8 9 -15 19 -15 11 0
22 -8 24 -17 3 -10 5 3 6 28 1 53 -23 75 -47 42 -12 -17 -14 -17 -23 0 -11 19
-18 21 -37 8z m28 -11 c0 -5 -7 -10 -16 -10 -8 0 -12 5 -9 10 3 6 10 10 16 10
5 0 9 -4 9 -10z m68 -18 c2 -15 -2 -22 -12 -22 -11 0 -16 9 -16 26 0 31 23 28
28 -4z"/>
<path d="M3884 3378 c-4 -6 0 -16 9 -23 22 -16 21 -22 0 -28 -14 -4 -13 -5 4
-6 30 -1 38 16 13 31 -23 15 -27 33 -4 24 8 -3 12 -2 9 4 -8 13 -22 13 -31 -2z"/>
<path d="M4012 3381 c-21 -13 -11 -55 14 -59 26 -4 38 22 24 49 -12 21 -18 23
-38 10z m28 -26 c0 -16 -6 -25 -15 -25 -15 0 -21 31 -8 43 13 14 23 6 23 -18z"/>
<path d="M4203 3383 c-8 -3 -13 -22 -12 -51 1 -26 3 -39 6 -29 2 9 13 17 24
17 24 0 36 27 22 48 -11 18 -23 22 -40 15z m31 -20 c9 -22 -10 -41 -25 -26
-13 13 -5 43 10 43 5 0 12 -8 15 -17z"/>
<path d="M4270 3379 c-12 -8 -10 -9 8 -4 12 3 22 2 22 -3 0 -5 -9 -12 -20 -15
-30 -8 -25 -37 6 -37 22 0 25 4 22 32 -3 35 -15 43 -38 27z m30 -39 c0 -5 -7
-10 -15 -10 -8 0 -15 5 -15 10 0 6 7 10 15 10 8 0 15 -4 15 -10z"/>
<path d="M4333 3383 c-15 -5 -18 -63 -4 -63 5 0 11 16 13 35 2 19 4 35 3 34 0
0 -6 -3 -12 -6z"/>
<path d="M4370 3371 c-14 -27 -2 -51 24 -50 16 1 17 2 4 6 -11 3 -18 14 -18
30 0 19 4 24 16 19 8 -3 12 -2 9 4 -10 16 -23 12 -35 -9z"/>
<path d="M4465 3381 c-3 -7 0 -8 9 -5 9 3 16 2 16 -4 0 -5 -9 -12 -20 -15 -30
-8 -25 -37 6 -37 22 0 25 4 22 32 -3 32 -21 48 -33 29z m25 -41 c0 -5 -7 -10
-16 -10 -8 0 -12 5 -9 10 3 6 10 10 16 10 5 0 9 -4 9 -10z"/>
<path d="M4708 3379 c17 -18 15 -49 -3 -49 -9 0 -15 9 -15 25 0 14 -4 25 -10
25 -5 0 -10 -20 -10 -45 0 -25 5 -45 10 -45 6 0 10 6 10 14 0 7 9 16 20 19 26
7 27 52 3 62 -15 5 -16 4 -5 -6z"/>
<path d="M4750 3379 c-12 -8 -10 -9 8 -4 12 3 22 2 22 -3 0 -5 -9 -12 -20 -15
-30 -8 -25 -37 6 -37 22 0 25 4 22 32 -3 35 -15 43 -38 27z m30 -39 c0 -5 -7
-10 -15 -10 -8 0 -15 5 -15 10 0 6 7 10 15 10 8 0 15 -4 15 -10z"/>
<path d="M4860 3379 c-12 -8 -10 -9 8 -4 12 3 22 2 22 -3 0 -5 -9 -12 -20 -15
-30 -8 -25 -37 6 -37 22 0 25 4 22 32 -3 35 -15 43 -38 27z m30 -39 c0 -5 -7
-10 -15 -10 -8 0 -15 5 -15 10 0 6 7 10 15 10 8 0 15 -4 15 -10z"/>
<path d="M5050 3379 c-12 -8 -10 -9 8 -4 12 3 22 2 22 -3 0 -5 -9 -12 -20 -15
-30 -8 -25 -37 6 -37 22 0 25 4 22 32 -3 35 -15 43 -38 27z m30 -39 c0 -5 -7
-10 -15 -10 -8 0 -15 5 -15 10 0 6 7 10 15 10 8 0 15 -4 15 -10z"/>
<path d="M5123 3383 c-8 -3 -13 -22 -12 -51 1 -26 3 -40 6 -31 2 10 13 19 24
22 16 4 20 12 17 33 -3 28 -14 36 -35 27z m27 -34 c0 -10 -7 -19 -15 -19 -15
0 -21 31 -9 43 11 10 24 -3 24 -24z"/>
<path d="M5183 3383 c-15 -5 -18 -63 -4 -63 5 0 11 16 13 35 2 19 4 35 3 34 0
0 -6 -3 -12 -6z"/>
<path d="M5220 3371 c-14 -27 -2 -53 24 -49 36 5 31 67 -6 68 -4 0 -12 -9 -18
-19z m38 -19 c2 -15 -2 -22 -12 -22 -11 0 -16 9 -16 26 0 31 23 28 28 -4z"/>
<path d="M5281 3389 c-2 -13 21 -69 29 -69 4 0 10 10 14 23 9 34 6 45 -5 17
l-11 -25 -13 30 c-7 17 -14 27 -14 24z"/>
<path d="M5355 3380 c-3 -6 1 -7 9 -4 9 3 16 1 16 -4 0 -6 -9 -14 -21 -17 -27
-9 -19 -29 14 -33 23 -3 27 1 27 20 0 36 -31 61 -45 38z m25 -40 c0 -5 -7 -10
-16 -10 -8 0 -12 5 -9 10 3 6 10 10 16 10 5 0 9 -4 9 -10z"/>
<path d="M5423 3383 c-17 -6 -16 -43 1 -65 14 -19 32 -25 21 -8 -3 6 -1 10 4
10 6 0 11 4 11 9 0 5 -9 7 -21 4 -17 -5 -20 -2 -17 18 2 16 9 24 20 23 10 -1
15 2 12 7 -6 10 -12 10 -31 2z"/>
<path d="M5552 3381 c-21 -13 -11 -55 14 -59 26 -4 38 22 24 49 -12 21 -18 23
-38 10z m28 -26 c0 -16 -6 -25 -15 -25 -15 0 -21 31 -8 43 13 14 23 6 23 -18z"/>
<path d="M5768 3355 c2 -19 8 -35 13 -35 14 0 11 46 -4 58 -10 9 -12 4 -9 -23z"/>
<path d="M5810 3379 c-12 -8 -10 -9 8 -4 12 3 22 2 22 -3 0 -5 -9 -12 -20 -15
-30 -8 -25 -37 6 -37 22 0 25 4 22 32 -3 35 -15 43 -38 27z m30 -39 c0 -5 -7
-10 -15 -10 -8 0 -15 5 -15 10 0 6 7 10 15 10 8 0 15 -4 15 -10z"/>
<path d="M3780 3366 c0 -30 13 -46 36 -46 21 0 24 5 23 33 -1 29 -2 29 -8 8
-9 -34 -31 -39 -31 -7 0 14 -4 26 -10 26 -5 0 -10 -6 -10 -14z"/>
<path d="M3852 3350 c0 -19 2 -27 5 -17 2 9 2 25 0 35 -3 9 -5 1 -5 -18z"/>
<path d="M3942 3350 c0 -19 2 -27 5 -17 2 9 2 25 0 35 -3 9 -5 1 -5 -18z"/>
<path d="M4432 3350 c0 -19 2 -27 5 -17 2 9 2 25 0 35 -3 9 -5 1 -5 -18z"/>
<path d="M4810 3350 c0 -16 2 -30 4 -30 2 0 6 14 8 30 3 17 1 30 -4 30 -4 0
-8 -13 -8 -30z"/>
<path d="M5730 3350 c0 -16 2 -30 4 -30 2 0 6 14 8 30 3 17 1 30 -4 30 -4 0
-8 -13 -8 -30z"/>
<path d="M3650 3185 c0 -8 -3 -14 -7 -14 -26 4 -34 -3 -31 -28 2 -20 9 -29 26
-31 20 -3 22 1 22 42 0 25 -2 46 -5 46 -3 0 -5 -7 -5 -15z m0 -46 c0 -10 -7
-19 -15 -19 -15 0 -21 31 -9 43 11 10 24 -3 24 -24z"/>
<path d="M3923 3155 c0 -27 2 -38 4 -22 2 15 2 37 0 50 -2 12 -4 0 -4 -28z"/>
<path d="M4168 3193 c7 -2 12 -22 12 -44 0 -21 5 -39 10 -39 6 0 10 18 10 39
0 22 5 42 13 44 6 3 -4 5 -23 5 -19 0 -29 -2 -22 -5z"/>
<path d="M4656 3168 c-22 -52 -19 -72 4 -23 13 28 19 34 19 19 1 -11 8 -29 17
-40 14 -18 15 -18 8 6 -3 14 -12 36 -20 50 l-13 25 -15 -37z"/>
<path d="M5090 3192 c0 -4 -10 -12 -22 -17 -15 -7 -23 -19 -23 -35 0 -20 6
-26 28 -28 26 -3 27 -2 27 42 0 25 -2 46 -5 46 -3 0 -5 -3 -5 -8z m-3 -38 c8
-20 -13 -42 -27 -28 -12 12 -3 44 11 44 5 0 12 -7 16 -16z"/>
<path d="M5521 3153 c1 -27 3 -40 6 -30 2 9 9 17 15 17 6 0 21 -8 32 -17 18
-15 19 -16 8 -1 -11 13 -11 20 0 38 11 17 11 22 -2 30 -8 5 -25 10 -37 10 -21
0 -23 -5 -22 -47z m54 17 c0 -22 -39 -19 -43 3 -3 15 1 18 20 15 12 -2 23 -10
23 -18z"/>
<path d="M5710 3160 c0 -29 -4 -40 -15 -40 -18 0 -20 31 -2 50 10 12 9 12 -6
0 -24 -18 -18 -54 11 -58 20 -3 22 1 22 42 0 25 -2 46 -5 46 -3 0 -5 -18 -5
-40z"/>
<path d="M4246 3171 c-24 -27 -17 -56 14 -56 30 0 38 26 17 55 -14 20 -14 20
-31 1z m32 -29 c2 -14 -2 -22 -12 -22 -19 0 -28 14 -20 35 9 21 28 14 32 -13z"/>
<path d="M3772 3171 c-22 -13 -11 -56 16 -59 12 -2 22 1 22 6 0 6 -9 8 -21 5
-17 -5 -20 -2 -17 18 2 16 9 24 20 23 10 -1 15 2 12 7 -6 11 -15 11 -32 0z"/>
<path d="M3851 3126 c1 -28 3 -43 6 -33 2 9 13 17 23 17 20 0 32 31 19 51 -4
8 -17 15 -29 15 -18 1 -20 -4 -19 -50z m39 19 c0 -16 -6 -25 -15 -25 -15 0
-21 31 -8 43 13 14 23 6 23 -18z"/>
<path d="M3970 3146 c0 -20 2 -36 4 -36 8 0 12 61 4 66 -4 3 -8 -11 -8 -30z"/>
<path d="M4009 3142 c5 -34 6 -35 9 -8 2 16 0 32 -5 37 -5 5 -7 -7 -4 -29z"/>
<path d="M4045 3170 c-3 -5 0 -7 8 -4 8 3 18 1 21 -4 3 -5 -3 -12 -14 -15 -30
-8 -25 -37 5 -37 21 0 25 5 25 29 0 17 -6 31 -16 35 -21 8 -22 8 -29 -4z m35
-40 c0 -5 -7 -10 -15 -10 -8 0 -15 5 -15 10 0 6 7 10 15 10 8 0 15 -4 15 -10z"/>
<path d="M4313 3173 c-8 -3 -13 -22 -12 -51 1 -26 3 -39 6 -29 2 9 13 17 24
17 24 0 36 27 22 48 -11 18 -23 22 -40 15z m31 -20 c9 -22 -10 -41 -25 -26
-13 13 -5 43 10 43 5 0 12 -8 15 -17z"/>
<path d="M4400 3165 c-17 -21 -8 -50 18 -53 12 -2 22 1 22 7 0 6 -6 8 -14 5
-8 -3 -17 -1 -20 4 -10 16 5 44 21 38 8 -3 11 -1 8 4 -9 14 -21 12 -35 -5z"/>
<path d="M4460 3165 c-19 -23 -8 -50 20 -50 16 0 26 6 28 18 4 18 -14 47 -28
47 -4 0 -13 -7 -20 -15z m38 -23 c2 -14 -2 -22 -12 -22 -19 0 -28 14 -20 35 9
21 28 14 32 -13z"/>
<path d="M4754 3155 l-7 -28 -13 24 c-14 26 -17 18 -8 -18 4 -13 10 -23 14
-23 10 0 34 59 27 67 -3 3 -9 -7 -13 -22z"/>
<path d="M4790 3169 c-12 -8 -10 -9 8 -4 12 3 22 2 22 -3 0 -5 -9 -12 -20 -15
-30 -8 -25 -37 6 -37 22 0 25 4 22 32 -3 35 -15 43 -38 27z m30 -39 c0 -5 -7
-10 -15 -10 -8 0 -15 5 -15 10 0 6 7 10 15 10 8 0 15 -4 15 -10z"/>
<path d="M4863 3173 c-7 -2 -12 -19 -12 -36 l1 -32 7 29 c3 17 11 30 16 30 6
0 13 -13 17 -30 6 -28 6 -28 5 5 -2 35 -11 44 -34 34z"/>
<path d="M4922 3168 c-16 -16 -15 -39 4 -63 13 -17 16 -18 24 -5 14 21 12 30
-4 24 -8 -3 -17 -1 -20 4 -10 16 5 44 21 38 8 -3 11 -1 8 4 -8 13 -18 13 -33
-2z"/>
<path d="M4985 3170 c-3 -5 0 -7 8 -4 8 3 18 1 21 -4 3 -5 -3 -12 -14 -15 -30
-8 -25 -37 5 -37 21 0 25 5 25 29 0 17 -6 31 -16 35 -21 8 -22 8 -29 -4z m35
-40 c0 -5 -7 -10 -15 -10 -8 0 -15 5 -15 10 0 6 7 10 15 10 8 0 15 -4 15 -10z"/>
<path d="M5122 3171 c-21 -13 -11 -55 14 -59 26 -4 38 22 24 49 -12 21 -18 23
-38 10z m28 -26 c0 -16 -6 -25 -15 -25 -15 0 -21 31 -8 43 13 14 23 6 23 -18z"/>
<path d="M5184 3168 c-4 -6 0 -16 9 -23 22 -16 21 -22 0 -28 -14 -4 -13 -5 4
-6 30 -1 38 16 13 31 -23 15 -27 33 -4 24 8 -3 12 -2 9 4 -8 13 -22 13 -31 -2z"/>
<path d="M5300 3165 c-16 -19 -3 -55 20 -55 10 0 21 4 24 9 4 5 -2 7 -13 4
-10 -3 -22 0 -25 6 -5 7 3 11 18 11 28 0 33 9 14 28 -16 16 -23 15 -38 -3z
m35 -5 c3 -5 -1 -10 -9 -10 -9 0 -16 5 -16 10 0 6 4 10 9 10 6 0 13 -4 16 -10z"/>
<path d="M5399 3140 l5 -35 5 30 c8 38 24 38 33 -1 6 -28 6 -27 5 6 -2 30 -5
35 -27 35 -23 1 -25 -2 -21 -35z"/>
<path d="M5610 3165 c-16 -19 -3 -55 20 -55 10 0 21 4 24 9 4 5 -2 7 -13 4
-10 -3 -22 0 -25 6 -5 7 3 11 18 11 28 0 33 9 14 28 -16 16 -23 15 -38 -3z
m35 -5 c3 -5 -1 -10 -9 -10 -9 0 -16 5 -16 10 0 6 4 10 9 10 6 0 13 -4 16 -10z"/>
<path d="M5752 3171 c-22 -13 -11 -56 16 -59 12 -2 22 1 22 6 0 6 -9 8 -20 5
-11 -3 -20 0 -20 6 0 6 11 11 25 11 23 0 24 2 15 20 -12 22 -18 24 -38 11z
m28 -11 c0 -5 -7 -10 -16 -10 -8 0 -12 5 -9 10 3 6 10 10 16 10 5 0 9 -4 9
-10z"/>
<path d="M5814 3168 c-4 -6 0 -16 9 -23 22 -16 21 -22 0 -28 -14 -4 -13 -5 4
-6 30 -1 38 16 13 31 -23 15 -27 33 -4 24 8 -3 12 -2 9 4 -8 13 -22 13 -31 -2z"/>
<path d="M3682 3140 c0 -19 2 -27 5 -17 2 9 2 25 0 35 -3 9 -5 1 -5 -18z"/>
<path d="M3700 3161 c0 -6 10 -16 23 -23 l22 -12 -25 -7 -25 -7 28 -1 c34 -1
36 21 2 43 -14 9 -25 12 -25 7z"/>
<path d="M3832 3140 c0 -19 2 -27 5 -17 2 9 2 25 0 35 -3 9 -5 1 -5 -18z"/>
<path d="M3952 3140 c0 -19 2 -27 5 -17 2 9 2 25 0 35 -3 9 -5 1 -5 -18z"/>
<path d="M4372 3140 c0 -19 2 -27 5 -17 2 9 2 25 0 35 -3 9 -5 1 -5 -18z"/>
<path d="M4520 3161 c0 -6 10 -16 23 -23 l22 -12 -25 -7 -25 -7 28 -1 c34 -1
36 21 2 43 -14 9 -25 12 -25 7z"/>
<path d="M5360 3140 c0 -16 2 -30 4 -30 2 0 6 14 8 30 3 17 1 30 -4 30 -4 0
-8 -13 -8 -30z"/>
<path d="M3650 2985 c0 -8 -3 -14 -7 -14 -26 4 -34 -3 -31 -28 2 -20 9 -29 26
-31 20 -3 22 1 22 42 0 25 -2 46 -5 46 -3 0 -5 -7 -5 -15z m0 -46 c0 -10 -7
-19 -15 -19 -15 0 -21 31 -9 43 11 10 24 -3 24 -24z"/>
<path d="M3786 2984 c-19 -18 -20 -28 -6 -55 11 -20 54 -26 65 -9 4 6 -6 7
-25 3 -31 -6 -31 -5 -28 28 2 28 7 34 25 33 12 0 20 3 17 8 -8 13 -31 9 -48
-8z"/>
<path d="M4310 2992 c0 -4 -10 -12 -22 -17 -15 -7 -23 -19 -23 -35 0 -20 6
-26 28 -28 26 -3 27 -2 27 42 0 25 -2 46 -5 46 -3 0 -5 -3 -5 -8z m-3 -38 c8
-20 -13 -42 -27 -28 -12 12 -3 44 11 44 5 0 12 -7 16 -16z"/>
<path d="M4610 2981 c-14 -27 -13 -54 5 -77 13 -18 14 -17 6 11 -4 17 -4 42 0
58 9 32 4 35 -11 8z"/>
<path d="M4643 2955 c0 -27 2 -38 4 -22 2 15 2 37 0 50 -2 12 -4 0 -4 -28z"/>
<path d="M4686 2984 c-33 -32 -10 -79 36 -72 17 2 24 11 26 31 6 49 -30 73
-62 41z m49 -29 c0 -23 -5 -31 -22 -33 -26 -4 -41 31 -22 54 20 24 44 13 44
-21z"/>
<path d="M4777 2992 c6 -4 13 -25 16 -47 l4 -40 1 42 c2 30 7 43 20 46 9 3 1
5 -18 6 -19 0 -30 -3 -23 -7z"/>
<path d="M4845 2945 c0 -29 3 -48 7 -42 4 7 8 26 8 42 0 17 -4 35 -8 42 -4 6
-7 -13 -7 -42z"/>
<path d="M5041 2957 c-1 -45 1 -48 22 -45 16 2 23 11 25 31 3 24 -1 29 -25 26
-4 0 -10 8 -14 18 -5 11 -8 0 -8 -30z m39 -18 c0 -10 -7 -19 -15 -19 -15 0
-21 31 -9 43 11 10 24 -3 24 -24z"/>
<path d="M5770 2960 c0 -29 -4 -40 -15 -40 -18 0 -20 31 -2 50 10 12 9 12 -6
0 -24 -18 -18 -54 11 -58 20 -3 22 1 22 42 0 25 -2 46 -5 46 -3 0 -5 -18 -5
-40z"/>
<path d="M4164 2975 c-7 -18 3 -65 14 -65 4 0 6 18 4 40 -4 43 -9 49 -18 25z"/>
<path d="M5404 2975 c-7 -18 3 -65 14 -65 4 0 6 18 4 40 -4 43 -9 49 -18 25z"/>
<path d="M5577 2976 c-4 -10 -1 -13 7 -10 8 3 17 1 20 -4 3 -5 -3 -12 -14 -15
-30 -8 -25 -37 5 -37 21 0 25 5 25 30 0 17 -5 30 -11 30 -5 0 -7 5 -4 10 3 6
0 10 -8 10 -8 0 -17 -7 -20 -14z m33 -46 c0 -5 -7 -10 -15 -10 -8 0 -15 5 -15
10 0 6 7 10 15 10 8 0 15 -4 15 -10z"/>
<path d="M3710 2965 c10 -12 10 -15 -4 -15 -9 0 -16 6 -16 13 0 9 -3 8 -9 -2
-15 -23 -1 -51 25 -51 13 0 24 4 24 9 0 5 -9 7 -20 4 -11 -3 -20 0 -20 6 0 6
9 11 20 11 24 0 27 25 4 34 -14 5 -15 4 -4 -9z"/>
<path d="M3870 2965 c-19 -23 -8 -50 20 -50 16 0 26 6 28 18 4 18 -14 47 -28
47 -4 0 -13 -7 -20 -15z m34 -11 c8 -20 -1 -34 -20 -34 -8 0 -14 8 -14 18 0
33 23 44 34 16z"/>
<path d="M3930 2946 c0 -20 2 -36 4 -36 8 0 12 61 4 66 -4 3 -8 -11 -8 -30z"/>
<path d="M3967 2945 c8 -39 13 -45 13 -12 0 14 5 29 10 32 6 4 10 -7 10 -24 0
-17 5 -31 10 -31 12 0 13 40 2 56 -4 5 -17 10 -29 10 -19 0 -21 -4 -16 -31z"/>
<path d="M4031 2926 c1 -28 3 -43 6 -33 2 9 13 17 23 17 20 0 32 31 19 51 -4
8 -17 15 -29 15 -18 1 -20 -4 -19 -50z m39 19 c0 -16 -6 -25 -15 -25 -15 0
-21 31 -8 43 13 14 23 6 23 -18z"/>
<path d="M4140 2950 c0 -39 -27 -41 -33 -2 -4 25 -4 25 -6 -5 -1 -29 2 -33 24
-33 22 0 25 4 25 35 0 19 -2 35 -5 35 -3 0 -5 -13 -5 -30z"/>
<path d="M4205 2970 c-3 -5 0 -7 8 -4 8 3 18 1 21 -4 3 -5 -3 -12 -14 -15 -30
-8 -25 -37 5 -37 21 0 25 5 25 29 0 17 -6 31 -16 35 -21 8 -22 8 -29 -4z m35
-40 c0 -5 -7 -10 -15 -10 -8 0 -15 5 -15 10 0 6 7 10 15 10 8 0 15 -4 15 -10z"/>
<path d="M4340 2965 c-19 -23 -8 -50 20 -50 16 0 26 6 28 18 4 18 -14 47 -28
47 -4 0 -13 -7 -20 -15z m34 -11 c8 -20 -1 -34 -20 -34 -8 0 -14 8 -14 18 0
33 23 44 34 16z"/>
<path d="M4401 2941 c1 -28 3 -30 6 -11 3 14 9 30 14 36 5 7 3 11 -6 11 -11 0
-15 -11 -14 -36z"/>
<path d="M4452 2971 c-22 -13 -11 -56 16 -59 12 -2 22 1 22 6 0 6 -9 8 -20 5
-11 -3 -20 0 -20 6 0 6 11 11 25 11 23 0 24 2 15 20 -12 22 -18 24 -38 11z
m28 -11 c0 -5 -7 -10 -16 -10 -8 0 -12 5 -9 10 3 6 10 10 16 10 5 0 9 -4 9
-10z"/>
<path d="M4514 2968 c-4 -6 0 -16 9 -23 22 -16 21 -22 0 -28 -14 -4 -13 -5 4
-6 30 -1 38 16 13 31 -23 15 -27 33 -4 24 8 -3 12 -2 9 4 -8 13 -22 13 -31 -2z"/>
<path d="M4914 2969 c-4 -7 3 -20 17 -29 22 -17 22 -18 3 -23 -18 -4 -18 -4 0
-3 27 1 32 26 7 33 -12 3 -21 10 -21 15 0 6 7 7 16 4 8 -3 12 -2 9 4 -8 13
-22 13 -31 -1z"/>
<path d="M4980 2965 c-19 -23 -8 -50 20 -50 16 0 26 6 28 18 4 18 -14 47 -28
47 -4 0 -13 -7 -20 -15z m34 -11 c8 -20 -1 -34 -20 -34 -8 0 -14 8 -14 18 0
33 23 44 34 16z"/>
<path d="M5140 2961 c-14 -27 -2 -53 24 -49 36 5 31 67 -6 68 -4 0 -12 -9 -18
-19z m38 -19 c2 -15 -2 -22 -12 -22 -11 0 -16 9 -16 26 0 31 23 28 28 -4z"/>
<path d="M5213 2973 c-15 -5 -18 -63 -4 -63 5 0 11 16 13 35 2 19 4 35 3 34 0
0 -6 -3 -12 -6z"/>
<path d="M5280 2965 c-18 -22 -8 -50 20 -52 l25 -3 -25 12 -25 12 28 4 c29 4
33 12 15 30 -16 16 -23 15 -38 -3z m30 -5 c0 -5 -7 -10 -16 -10 -8 0 -12 5 -9
10 3 6 10 10 16 10 5 0 9 -4 9 -10z"/>
<path d="M5340 2946 c0 -20 2 -36 4 -36 8 0 12 61 4 66 -4 3 -8 -11 -8 -30z"/>
<path d="M5379 2942 c5 -34 6 -35 9 -8 2 16 0 32 -5 37 -5 5 -7 -7 -4 -29z"/>
<path d="M5450 2969 c-12 -8 -10 -9 8 -4 12 3 22 2 22 -3 0 -5 -9 -12 -20 -15
-30 -8 -25 -37 6 -37 22 0 25 4 22 32 -3 35 -15 43 -38 27z m30 -39 c0 -5 -7
-10 -15 -10 -8 0 -15 5 -15 10 0 6 7 10 15 10 8 0 15 -4 15 -10z"/>
<path d="M5510 2961 c-13 -25 -13 -24 9 -50 15 -18 20 -19 25 -6 3 9 0 15 -9
15 -9 0 -15 10 -15 26 0 20 4 25 16 20 8 -3 12 -2 9 4 -10 16 -23 12 -35 -9z"/>
<path d="M5640 2965 c-19 -23 -8 -50 20 -50 16 0 26 6 28 18 4 18 -14 47 -28
47 -4 0 -13 -7 -20 -15z m38 -23 c2 -14 -2 -22 -12 -22 -19 0 -28 14 -20 35 9
21 28 14 32 -13z"/>
<path d="M5812 2971 c-21 -13 -11 -55 14 -59 26 -4 38 22 24 49 -12 21 -18 23
-38 10z m28 -26 c0 -16 -6 -25 -15 -25 -15 0 -21 31 -8 43 13 14 23 6 23 -18z"/>
<path d="M5252 2940 c0 -19 2 -27 5 -17 2 9 2 25 0 35 -3 9 -5 1 -5 -18z"/>
<path d="M3650 2775 c0 -8 -3 -14 -7 -14 -26 4 -34 -3 -31 -28 2 -20 9 -29 26
-31 20 -3 22 1 22 42 0 25 -2 46 -5 46 -3 0 -5 -7 -5 -15z m0 -46 c0 -10 -7
-19 -15 -19 -15 0 -21 31 -9 43 11 10 24 -3 24 -24z"/>
<path d="M4081 2743 c1 -27 4 -38 6 -26 2 12 12 24 21 26 15 4 15 5 0 6 -26 2
-22 29 5 34 19 4 18 4 -5 6 -27 1 -28 -1 -27 -46z"/>
<path d="M4223 2745 c0 -27 2 -38 4 -22 2 15 2 37 0 50 -2 12 -4 0 -4 -28z"/>
<path d="M4480 2774 c0 -9 -5 -12 -12 -8 -15 10 -37 -23 -31 -46 3 -13 14 -20
29 -20 22 0 24 4 24 45 0 25 -2 45 -5 45 -3 0 -5 -7 -5 -16z m-2 -42 c2 -15
-2 -22 -12 -22 -11 0 -16 9 -16 26 0 31 23 28 28 -4z"/>
<path d="M4617 2783 c-14 -14 -6 -34 18 -43 14 -5 25 -15 25 -21 0 -7 -10 -9
-25 -7 -14 3 -25 1 -25 -4 0 -5 12 -8 27 -6 38 4 43 35 9 48 -36 13 -34 34 2
26 20 -5 23 -4 12 4 -17 11 -34 13 -43 3z"/>
<path d="M4993 2783 c-22 -8 -14 -32 12 -39 35 -9 34 -38 -1 -31 -16 3 -22 1
-16 -5 14 -14 57 -5 57 12 0 8 -12 21 -28 28 -30 14 -27 37 4 29 11 -3 17 -1
13 4 -6 10 -21 11 -41 2z"/>
<path d="M5093 2745 c0 -27 2 -38 4 -22 2 15 2 37 0 50 -2 12 -4 0 -4 -28z"/>
<path d="M3940 2742 c0 -23 3 -42 8 -42 9 0 8 68 -2 77 -3 3 -6 -12 -6 -35z"/>
<path d="M3680 2751 c-14 -27 -2 -53 24 -49 36 5 31 67 -6 68 -4 0 -12 -9 -18
-19z m38 -19 c2 -15 -2 -22 -12 -22 -11 0 -16 9 -16 26 0 31 23 28 28 -4z"/>
<path d="M3752 2761 c-22 -13 -11 -56 16 -59 12 -2 22 1 22 6 0 6 -9 8 -21 5
-17 -5 -20 -2 -17 18 2 16 9 24 20 23 10 -1 15 2 12 7 -6 11 -15 11 -32 0z"/>
<path d="M3810 2755 c-16 -19 -3 -55 20 -55 10 0 21 4 24 9 4 5 -2 7 -13 4
-10 -3 -22 0 -25 6 -5 7 3 11 18 11 28 0 33 9 14 28 -16 16 -23 15 -38 -3z
m35 -5 c3 -5 -1 -10 -9 -10 -9 0 -16 5 -16 10 0 6 4 10 9 10 6 0 13 -4 16 -10z"/>
<path d="M3908 2735 c2 -19 8 -35 13 -35 14 0 11 46 -4 58 -10 9 -12 4 -9 -23z"/>
<path d="M3980 2755 c-18 -22 -8 -50 20 -52 l25 -3 -25 12 -25 12 28 4 c29 4
33 12 15 30 -16 16 -23 15 -38 -3z m30 -5 c0 -5 -7 -10 -16 -10 -8 0 -12 5 -9
10 3 6 10 10 16 10 5 0 9 -4 9 -10z"/>
<path d="M4180 2755 c10 -12 10 -15 -4 -15 -9 0 -16 6 -16 13 0 9 -3 8 -9 -2
-15 -23 -1 -51 25 -51 13 0 24 4 24 9 0 5 -9 7 -20 4 -11 -3 -20 0 -20 6 0 6
9 11 20 11 24 0 27 25 4 34 -14 5 -15 4 -4 -9z"/>
<path d="M4283 2763 c-8 -3 -13 -22 -12 -51 1 -26 3 -40 6 -31 2 10 13 19 24
22 16 4 20 12 17 33 -3 28 -14 36 -35 27z m27 -34 c0 -10 -7 -19 -15 -19 -15
0 -21 31 -9 43 11 10 24 -3 24 -24z"/>
<path d="M4340 2755 c-16 -19 -3 -55 20 -55 10 0 21 4 24 9 4 5 -2 7 -13 4
-10 -3 -22 0 -25 6 -5 7 3 11 18 11 28 0 33 9 14 28 -16 16 -23 15 -38 -3z
m35 -5 c3 -5 -1 -10 -9 -10 -9 0 -16 5 -16 10 0 6 4 10 9 10 6 0 13 -4 16 -10z"/>
<path d="M4510 2755 c-16 -19 -3 -55 20 -55 10 0 21 4 24 9 4 5 -2 7 -13 4
-10 -3 -22 0 -25 6 -5 7 3 11 18 11 28 0 33 9 14 28 -16 16 -23 15 -38 -3z
m35 -5 c3 -5 -1 -10 -9 -10 -9 0 -16 5 -16 10 0 6 4 10 9 10 6 0 13 -4 16 -10z"/>
<path d="M4690 2755 c-19 -23 -8 -50 20 -50 16 0 26 6 28 18 4 18 -14 47 -28
47 -4 0 -13 -7 -20 -15z m38 -23 c2 -14 -2 -22 -12 -22 -19 0 -28 14 -20 35 9
21 28 14 32 -13z"/>
<path d="M4833 2762 c16 -7 16 -9 3 -27 -22 -29 -20 -35 12 -34 16 1 20 3 10
6 -22 5 -23 17 -3 33 19 16 10 30 -18 29 -19 0 -19 -1 -4 -7z"/>
<path d="M4890 2759 c-12 -8 -10 -9 8 -4 12 3 22 2 22 -3 0 -5 -9 -12 -20 -15
-30 -8 -25 -37 6 -37 22 0 25 4 22 32 -3 35 -15 43 -38 27z m30 -39 c0 -5 -7
-10 -15 -10 -8 0 -15 5 -15 10 0 6 7 10 15 10 8 0 15 -4 15 -10z"/>
<path d="M5185 2760 c-3 -6 1 -7 9 -4 9 3 16 1 16 -4 0 -6 -9 -14 -21 -17 -27
-9 -19 -29 14 -33 23 -3 27 1 27 20 0 36 -31 61 -45 38z m25 -40 c0 -5 -7 -10
-16 -10 -8 0 -12 5 -9 10 3 6 10 10 16 10 5 0 9 -4 9 -10z"/>
<path d="M3870 2730 c0 -16 2 -30 4 -30 2 0 6 14 8 30 3 17 1 30 -4 30 -4 0
-8 -13 -8 -30z"/>
<path d="M4242 2730 c0 -19 2 -27 5 -17 2 9 2 25 0 35 -3 9 -5 1 -5 -18z"/>
<path d="M4754 2730 c1 -20 7 -26 29 -28 24 -3 27 0 27 27 0 17 -4 31 -10 31
-5 0 -10 -11 -10 -25 0 -32 -27 -34 -33 -2 -3 19 -4 19 -3 -3z"/>
<path d="M5062 2730 c0 -19 2 -27 5 -17 2 9 2 25 0 35 -3 9 -5 1 -5 -18z"/>
<path d="M5116 2740 c10 -40 22 -46 34 -15 6 15 9 30 6 32 -2 3 -7 -6 -11 -18
l-7 -22 -15 24 -14 24 7 -25z"/>
<path d="M2468 1069 c-26 -14 -22 -26 12 -44 39 -20 39 -39 1 -33 -17 2 -28 1
-25 -4 9 -15 54 -8 61 8 6 16 -13 38 -41 47 -7 3 -7 9 3 20 15 19 13 21 -11 6z"/>
<path d="M3360 1065 c0 -8 -9 -15 -19 -15 -22 0 -35 -28 -25 -54 3 -9 17 -16
30 -16 22 0 24 4 24 50 0 28 -2 50 -5 50 -3 0 -5 -7 -5 -15z m0 -50 c0 -16 -6
-25 -15 -25 -9 0 -15 9 -15 25 0 16 6 25 15 25 9 0 15 -9 15 -25z"/>
<path d="M2851 1048 c-5 -13 -11 -34 -15 -48 -6 -23 -6 -23 7 -7 18 22 43 22
51 1 4 -9 9 -15 11 -12 7 7 -27 88 -37 88 -5 0 -12 -10 -17 -22z m29 -13 c0
-8 -4 -15 -10 -15 -5 0 -10 7 -10 15 0 8 5 15 10 15 6 0 10 -7 10 -15z"/>
<path d="M3532 1033 c-2 -35 -6 -42 -24 -46 l-23 -4 23 -2 c27 -1 35 15 29 61
-3 30 -4 30 -5 -9z"/>
<path d="M3960 1025 c0 -46 0 -46 33 -43 30 3 32 5 32 43 0 38 -2 40 -32 43
-33 3 -33 3 -33 -43z m54 26 c3 -5 -1 -12 -10 -15 -22 -9 -24 -8 -24 9 0 16
25 21 34 6z m6 -46 c0 -8 -9 -15 -20 -15 -11 0 -20 7 -20 15 0 8 9 15 20 15
11 0 20 -7 20 -15z"/>
<path d="M4120 1025 c0 -25 5 -45 10 -45 6 0 10 14 10 30 0 42 27 40 33 -2 4
-32 4 -32 5 5 2 31 -1 37 -18 37 -11 0 -20 5 -20 10 0 6 -4 10 -10 10 -5 0
-10 -20 -10 -45z"/>
<path d="M2689 1055 c-7 -6 2 -75 10 -75 3 0 6 16 5 35 -1 35 -6 49 -15 40z"/>
<path d="M2992 1024 c4 -49 23 -55 22 -7 -1 20 -7 39 -13 41 -9 3 -11 -7 -9
-34z"/>
<path d="M2546 1041 c-4 -5 3 -7 14 -4 16 4 20 0 20 -21 0 -17 -5 -26 -16 -26
-10 0 -14 6 -10 15 3 8 1 15 -4 15 -6 0 -10 -9 -10 -20 0 -15 7 -20 25 -20 22
0 25 4 25 35 0 28 -4 35 -19 35 -11 0 -22 -4 -25 -9z"/>
<path d="M2610 1015 c0 -19 5 -35 10 -35 6 0 10 14 10 30 0 42 27 40 33 -2 4
-32 4 -32 5 5 2 35 0 37 -28 37 -28 0 -30 -3 -30 -35z"/>
<path d="M2724 1036 c-11 -29 0 -51 26 -51 21 0 25 5 25 30 0 24 -5 31 -23 33
-13 2 -24 -3 -28 -12z m46 -21 c0 -25 -23 -35 -35 -15 -10 16 2 40 20 40 9 0
15 -9 15 -25z"/>
<path d="M2921 1013 c1 -36 2 -37 8 -8 3 17 13 30 21 30 8 0 18 -13 22 -30 6
-29 6 -29 5 5 -2 30 -6 35 -29 38 -26 3 -28 1 -27 -35z"/>
<path d="M3034 1036 c-11 -29 0 -51 26 -51 21 0 25 5 25 30 0 24 -5 31 -23 33
-13 2 -24 -3 -28 -12z m41 -21 c0 -11 -8 -21 -17 -23 -14 -3 -18 3 -18 23 0
20 4 26 18 23 9 -2 17 -12 17 -23z"/>
<path d="M3100 1015 c0 -19 5 -35 10 -35 6 0 10 14 10 30 0 42 27 40 33 -2 4
-32 4 -32 5 5 2 35 0 37 -28 37 -28 0 -30 -3 -30 -35z"/>
<path d="M3183 1015 c0 -22 2 -30 4 -17 2 12 2 30 0 40 -3 9 -5 -1 -4 -23z"/>
<path d="M3205 1031 c-8 -26 4 -51 25 -51 25 0 43 25 35 50 -8 26 -51 27 -60
1z m45 -16 c0 -16 -6 -25 -15 -25 -9 0 -15 9 -15 25 0 16 6 25 15 25 9 0 15
-9 15 -25z"/>
<path d="M3394 1036 c-15 -39 23 -74 50 -46 8 9 4 10 -16 5 -18 -5 -28 -3 -28
4 0 6 12 11 26 11 20 0 25 4 20 16 -3 9 -6 18 -6 20 0 11 -41 2 -46 -10z m36
-6 c0 -5 -7 -10 -15 -10 -8 0 -15 5 -15 10 0 6 7 10 15 10 8 0 15 -4 15 -10z"/>
<path d="M3565 1031 c-9 -28 5 -51 31 -51 13 0 24 4 24 9 0 5 -9 7 -20 4 -11
-3 -20 0 -20 6 0 6 8 11 18 11 26 0 34 11 21 27 -16 19 -47 16 -54 -6z m45 -1
c0 -5 -7 -10 -15 -10 -8 0 -15 5 -15 10 0 6 7 10 15 10 8 0 15 -4 15 -10z"/>
<path d="M3640 1034 c0 -9 9 -18 20 -21 27 -7 25 -23 -2 -24 -19 -1 -20 -2 -4
-6 10 -3 23 0 30 7 8 8 5 16 -13 29 -23 18 -23 19 -5 24 16 4 16 5 -3 6 -15 1
-23 -5 -23 -15z"/>
<path d="M3702 1018 c2 -28 8 -34 31 -36 25 -3 27 -1 26 35 -1 35 -2 36 -8 9
-9 -41 -31 -46 -31 -7 0 17 -5 31 -11 31 -6 0 -9 -14 -7 -32z"/>
<path d="M3775 1040 c-3 -5 7 -17 21 -27 l27 -17 -24 -7 c-23 -7 -23 -7 -2 -8
32 -1 39 19 13 39 -22 17 -23 18 -4 23 17 4 17 5 -3 6 -12 0 -24 -3 -28 -9z"/>
<path d="M4056 1041 c-4 -5 3 -7 14 -4 16 4 20 0 20 -21 0 -17 -5 -26 -16 -26
-10 0 -14 6 -10 15 3 8 1 15 -4 15 -6 0 -10 -9 -10 -20 0 -15 7 -20 25 -20 22
0 25 4 25 35 0 28 -4 35 -19 35 -11 0 -22 -4 -25 -9z"/>
<path d="M4203 1015 c0 -22 2 -30 4 -17 2 12 2 30 0 40 -3 9 -5 -1 -4 -23z"/>
<path d="M4230 1042 c0 -6 8 -8 18 -5 13 3 18 -2 20 -21 1 -18 -3 -26 -14 -26
-11 0 -14 5 -10 16 4 10 1 14 -6 12 -24 -8 -13 -33 15 -36 27 -3 28 -1 25 30
-2 25 -8 34 -25 36 -13 2 -23 -1 -23 -6z"/>
<path d="M3888 1013 c7 -3 16 -2 19 1 4 3 -2 6 -13 5 -11 0 -14 -3 -6 -6z"/>
<path d="M3236 831 c-4 -5 3 -7 14 -4 26 7 26 -18 0 -42 -27 -25 -25 -35 8
-34 26 1 26 1 4 8 l-24 6 21 19 c27 24 28 56 2 56 -11 0 -22 -4 -25 -9z"/>
<path d="M3304 827 c-3 -9 -4 -28 -2 -44 2 -22 8 -28 28 -28 23 0 25 4 25 40
0 34 -3 40 -23 43 -13 2 -24 -3 -28 -11z m44 -29 c-3 -36 -30 -46 -36 -15 -5
26 5 47 23 47 12 0 15 -8 13 -32z"/>
<path d="M3380 831 c0 -5 9 -7 20 -4 11 3 20 1 20 -4 0 -6 -9 -18 -20 -28 -29
-26 -25 -45 8 -44 26 1 26 1 4 8 l-24 6 21 19 c30 27 28 56 -4 56 -14 0 -25
-4 -25 -9z"/>
<path d="M3456 824 c-10 -26 -7 -32 14 -27 16 4 20 0 20 -17 0 -17 -4 -21 -20
-17 -11 3 -18 1 -14 -4 3 -5 14 -9 25 -9 29 0 26 48 -3 59 l-23 9 25 10 c23
10 23 11 4 11 -12 1 -25 -6 -28 -15z"/>
</g>
</svg>
